<?xml version="1.0" encoding="UTF-8" standalone="no"?>
<!-- Created with Inkscape (http://www.inkscape.org/) -->

<svg
   width="106.62371mm"
   height="33.447819mm"
   viewBox="0 0 106.6237 33.447818"
   version="1.1"
   id="svg1"
   xml:space="preserve"
   xmlns:xlink="http://www.w3.org/1999/xlink"
   xmlns="http://www.w3.org/2000/svg"
   xmlns:svg="http://www.w3.org/2000/svg"><defs
     id="defs1"><linearGradient
       id="linearGradient31"><stop
         style="stop-color:#5d91a6;stop-opacity:1;"
         offset="0"
         id="stop31" /><stop
         style="stop-color:#5d91a6;stop-opacity:0;"
         offset="1"
         id="stop32" /></linearGradient><radialGradient
       id="a-5-8"
       cx="0"
       cy="0"
       r="1"
       gradientTransform="matrix(84.04136,0,0,84.04136,38.426,42.169)"
       gradientUnits="userSpaceOnUse"><stop
         stop-color="#aeb2d5"
         id="stop8-8-9"
         offset="0"
         style="stop-color:#5d91a6;stop-opacity:1;" /><stop
         offset=".3"
         stop-color="#aeb2d5"
         id="stop9-6-3" /><stop
         offset="0.75"
         stop-color="#484c89"
         id="stop10-2-0"
         style="stop-color:#426676;stop-opacity:1;" /><stop
         offset="1"
         stop-color="#484c89"
         id="stop11-65-7"
         style="stop-color:#a3c2cd;stop-opacity:1;" /></radialGradient><linearGradient
       xlink:href="#linearGradient31"
       id="linearGradient32"
       x1="-0.5"
       y1="64"
       x2="128.5"
       y2="64"
       gradientUnits="userSpaceOnUse" /></defs><g
     id="layer20"
     transform="translate(-209.25315,-44.54773)"><g
       id="layer8-7"
       transform="translate(0.71434792,44.192087)"><g
         id="g26-8"
         transform="matrix(0.26458333,0,0,0.26458333,209.4479,0.47161944)"><path
           fill="url(#a)"
           d="M 0,64 C 0,82.593 28.654,97.667 64,97.667 99.346,97.667 128,82.593 128,64 128,45.407 99.345,30.333 64,30.333 28.655,30.333 0,45.407 0,64"
           id="path1-5-3"
           style="fill:url(#a-5-8);stroke:url(#linearGradient32);stroke-opacity:1" /><path
           fill="#777bb3"
           d="M 64,95.167 C 97.965,95.167 125.5,81.212 125.5,64 125.5,46.786 97.965,32.833 64,32.833 30.035,32.833 2.5,46.786 2.5,64 2.5,81.212 30.035,95.167 64,95.167"
           id="path2-8-7"
           style="fill:#5d91a6;fill-opacity:1;stroke:#5d91a6;stroke-opacity:1" /><path
           d="m 34.772,67.864 c 2.793,0 4.877,-0.515 6.196,-1.53 1.306,-1.006 2.207,-2.747 2.68,-5.175 0.44,-2.27 0.272,-3.854 -0.5,-4.71 -0.788,-0.874 -2.493,-1.317 -5.067,-1.317 H 33.617 L 31.144,67.864 Z M 20.173,83.547 c -0.436688,-5.92e-4 -0.764318,-0.399529 -0.68,-0.828 L 26.05,48.981 c 0.0639,-0.325221 0.348562,-0.560065 0.68,-0.561 h 14.134 c 4.442,0 7.748,1.206 9.827,3.585 2.088,2.39 2.734,5.734 1.917,9.935 -0.333,1.711 -0.905,3.3 -1.7,4.724 -0.827321,1.464865 -1.883287,2.788197 -3.128,3.92 -1.531,1.432 -3.264,2.472 -5.147,3.083 -1.852,0.604 -4.232,0.91 -7.07,0.91 h -5.724 l -1.634,8.408 c -0.06363,0.326355 -0.3495,0.561926 -0.682,0.562 z"
           id="path3-6-1"
           style="display:inline;fill:#ffffff;fill-opacity:1;stroke:none" /><path
           fill="#ffffff"
           d="m 34.19,55.826 h 3.891 c 3.107,0 4.186,0.682 4.553,1.089 0.607,0.674 0.723,2.097 0.331,4.112 -0.439,2.257 -1.253,3.858 -2.42,4.756 -1.194,0.92 -3.138,1.386 -5.773,1.386 h -2.786 z m 6.674,-8.1 H 26.731 c -0.664691,5.5e-5 -1.236322,0.470687 -1.364,1.123 L 18.81,82.588 c -0.165066,0.856637 0.490605,1.651813 1.363,1.653 h 7.35 c 0.664624,-6.27e-4 1.235813,-0.471659 1.363,-1.124 l 1.525,-7.846 h 5.151 c 2.912,0 5.364,-0.318 7.287,-0.944 1.977,-0.642 3.796,-1.731 5.406,-3.237 1.296601,-1.180507 2.396737,-2.56015 3.259,-4.087 0.831,-1.487 1.429,-3.147 1.775,-4.931 0.86,-4.423 0.161,-7.964 -2.076,-10.524 -2.216,-2.537 -5.698,-3.823 -10.349,-3.823 z M 30.301,68.557 h 4.471 c 2.963333,6.67e-4 5.17,-0.557667 6.62,-1.675 1.45,-1.116 2.429333,-2.979667 2.938,-5.591 0.485333,-2.508 0.263667,-4.277333 -0.665,-5.308 -0.93,-1.030667 -2.791333,-1.546 -5.584,-1.546 h -5.036 l -2.743,14.12 M 40.865,49.112 c 4.252,0 7.353,1.116 9.303,3.348 1.95,2.232 2.536667,5.347333 1.76,9.346 -0.321333,1.648 -0.863,3.154 -1.625,4.518 -0.763333,1.365333 -1.760333,2.614333 -2.991,3.747 -1.466667,1.373333 -3.097333,2.351667 -4.892,2.935 -1.794,0.584 -4.079667,0.875667 -6.857,0.875 h -6.296 l -1.743,8.97 h -7.35 l 6.558,-33.739 z"
           id="path4-1-0"
           style="display:none;fill:#ffffff;fill-opacity:1;stroke:none" /><path
           d="m 69.459,74.577 c -0.437008,5.44e-4 -0.76575,-0.398092 -0.682,-0.827 l 2.9,-14.928 c 0.277,-1.42 0.209,-2.438 -0.19,-2.87 -0.245,-0.263 -0.979,-0.704 -3.15,-0.704 h -5.256 l -3.646,18.768 c -0.06454,0.325929 -0.350743,0.560592 -0.683,0.56 h -7.29 c -0.436562,2.88e-4 -0.765287,-0.397263 -0.683,-0.826 l 6.558,-33.739 c 0.06405,-0.325958 0.349809,-0.561019 0.682,-0.561 h 7.29 c 0.436562,-2.88e-4 0.765287,0.397263 0.683,0.826 L 64.41,48.42 h 5.653 c 4.307,0 7.227,0.758 8.928,2.321 1.733,1.593 2.275,4.14 1.608,7.573 l -3.051,15.702 c -0.06447,0.32556 -0.350119,0.560113 -0.682,0.56 z"
           id="path5-2-0"
           style="display:inline;fill:#ffffff;fill-opacity:1;stroke:none" /><path
           fill="#ffffff"
           d="m 65.31,38.755 h -7.291 c -0.665,1.49e-4 -1.236741,0.47129 -1.364,1.124 l -6.557,33.738 c -0.165787,0.857 0.490112,1.652933 1.363,1.654 h 7.291 c 0.665,-1.49e-4 1.236741,-0.47129 1.364,-1.124 l 3.537,-18.205 h 4.682 c 2.168,0 2.624,0.463 2.641,0.484 0.132,0.14 0.305,0.795 0.019,2.264 l -2.9,14.927 c -0.165863,0.8574 0.490704,1.653561 1.364,1.654 h 7.408 c 0.664624,-6.27e-4 1.235813,-0.471659 1.363,-1.124 l 3.051,-15.7 c 0.715,-3.686 0.103,-6.45 -1.82,-8.217 -1.836,-1.686 -4.91,-2.505 -9.398,-2.505 h -4.81 l 1.421,-7.315 c 0.166586,-0.857763 -0.49021,-1.654682 -1.364,-1.655 m 0,1.39 -1.743,8.968 h 6.496 c 4.087333,0 6.906333,0.713333 8.457,2.14 1.552,1.425333 2.018,3.735333 1.398,6.93 L 76.866,73.882 H 69.459 L 72.36,58.954 c 0.33,-1.698 0.208333,-2.856 -0.365,-3.474 -0.573333,-0.617333 -1.792667,-0.926 -3.658,-0.926 H 62.508 L 58.752,73.881 H 51.46 l 6.558,-33.739 h 7.292 z"
           id="path6-4-8"
           style="display:none;fill:#ffffff;fill-opacity:1;stroke:none" /><path
           d="m 92.136,67.864 c 2.793,0 4.878,-0.515 6.198,-1.53 1.304,-1.006 2.206,-2.747 2.679,-5.175 0.44,-2.27 0.273,-3.854 -0.5,-4.71 -0.788,-0.874 -2.493,-1.317 -5.067,-1.317 H 90.983 L 88.508,67.864 Z M 77.54,83.547 c -0.437503,6.68e-4 -0.766475,-0.398729 -0.682,-0.828 l 6.557,-33.738 c 0.06405,-0.325958 0.349809,-0.561019 0.682,-0.561 H 98.23 c 4.442,0 7.748,1.206 9.826,3.585 2.089,2.39 2.734,5.734 1.917,9.935 -0.3126,1.654702 -0.88608,3.249239 -1.699,4.724 -0.82732,1.464865 -1.88329,2.788197 -3.128,3.92 -1.53,1.432 -3.265,2.472 -5.147,3.083 -1.852,0.604 -4.232,0.91 -7.071,0.91 h -5.723 l -1.633,8.408 c -0.0637,0.326725 -0.350124,0.562404 -0.683,0.562 z"
           id="path7-2-3"
           style="fill:#ffffff;fill-opacity:1;stroke:none" /><path
           fill="#ffffff"
           d="m 91.555,55.826 h 3.891 c 3.107,0 4.186,0.682 4.552,1.089 0.61,0.674 0.724,2.097 0.333,4.112 -0.44,2.257 -1.254,3.858 -2.421,4.756 -1.195,0.92 -3.139,1.386 -5.773,1.386 h -2.786 z m 6.674,-8.1 H 84.096 a 1.39,1.39 0 0 0 -1.363,1.123 l -6.558,33.739 a 1.39,1.39 0 0 0 1.364,1.653 h 7.35 a 1.39,1.39 0 0 0 1.363,-1.124 l 1.525,-7.846 h 5.15 c 2.911,0 5.364,-0.318 7.286,-0.944 1.978,-0.642 3.797,-1.731 5.408,-3.238 a 16.5,16.5 0 0 0 3.258,-4.086 c 0.832,-1.487 1.428,-3.147 1.775,-4.931 0.86,-4.423 0.162,-7.964 -2.076,-10.524 -2.216,-2.537 -5.697,-3.823 -10.35,-3.823 z M 87.666,68.557 h 4.47 q 4.445,0.001 6.622,-1.675 2.175,-1.674 2.936,-5.591 0.731,-3.762 -0.665,-5.308 -1.396,-1.546 -5.583,-1.546 H 90.411 Z M 98.229,49.112 q 6.378,0 9.303,3.348 2.925,3.348 1.759,9.346 -0.48,2.472 -1.624,4.518 -1.144,2.048 -2.992,3.747 -2.2,2.06 -4.892,2.935 -2.69,0.876 -6.856,0.875 h -6.295 l -1.745,8.97 h -7.35 l 6.558,-33.739 h 14.133"
           id="path8-4"
           style="display:none" /></g></g><g
       id="layer9-4"
       transform="translate(1.4160651,45.436648)"><path
         fill="#00618a"
         d="m 280.77069,25.254955 c -1.84494,-0.05054 -3.25358,0.121973 -4.45876,0.629444 -0.3421,0.144727 -0.88767,0.147902 -0.9435,0.576791 0.18812,0.197379 0.21696,0.491861 0.36698,0.734748 0.28733,0.464079 0.77311,1.088231 1.20623,1.41605 0.47334,0.356658 0.96123,0.738981 1.4687,1.048015 0.90329,0.550862 1.91109,0.865187 2.77919,1.41605 0.51276,0.325437 1.02102,0.734748 1.52135,1.101725 0.24712,0.180975 0.41355,0.463021 0.73369,0.576791 v -0.05159 c -0.16854,-0.214845 -0.21193,-0.510649 -0.36698,-0.734751 l -0.68209,-0.682096 c -0.66675,-0.884767 -1.51315,-1.661848 -2.41221,-2.306902 -0.71728,-0.515673 -2.3233,-1.211263 -2.62202,-2.045229 l -0.0526,-0.05265 c 0.50853,-0.05794 1.10384,-0.24183 1.57401,-0.368036 0.78846,-0.210873 1.49357,-0.156104 2.3069,-0.366977 l 1.10172,-0.31406 v -0.209817 c -0.41142,-0.421746 -0.70485,-0.98081 -1.15332,-1.363133 -1.17501,-1.00039 -2.45665,-1.998927 -3.77639,-2.831836 -0.73184,-0.461962 -1.63619,-0.762793 -2.41221,-1.154377 -0.26141,-0.131233 -0.7194,-0.200554 -0.89191,-0.419629 -0.40719,-0.518848 -0.62944,-1.177131 -0.94351,-1.782762 -0.65828,-1.268148 -1.30439,-2.651919 -1.88833,-3.986213 -0.39793,-0.909373 -0.65722,-1.806575 -1.15332,-2.622021 -2.38125,-3.9150385 -4.94426,-6.2785608 -8.91513,-8.6010733 -0.84534,-0.4939771 -1.8624,-0.6892396 -2.9374,-0.9445625 l -1.73117,-0.1045105 c -0.35243,-0.1468437 -0.71835,-0.57785 -1.04908,-0.7876645 -1.31524,-0.83158574 -4.68974,-2.6392188 -5.66446,-0.26220207 -0.61489,1.49965827 0.91996,2.96306867 1.4687,3.72374577 0.3855,0.5323417 0.87842,1.1305646 1.15332,1.7301104 0.18203,0.3947583 0.21299,0.7895165 0.36804,1.2062352 0.38047,1.0273764 0.71305,2.1455048 1.20623,3.0943005 0.24897,0.480484 0.52388,0.986102 0.83926,1.41605 0.19235,0.263525 0.52387,0.380471 0.57679,0.786607 -0.32464,0.45376 -0.34316,1.157552 -0.52493,1.731168 -0.81968,2.58498 -0.50959,5.797021 0.68209,7.709165 0.36592,0.588169 1.22793,1.846792 2.41221,1.364192 1.03664,-0.422805 0.80513,-1.730111 1.10172,-2.884488 0.0672,-0.261408 0.0259,-0.45376 0.15717,-0.629444 v 0.05265 l 0.94456,1.887273 c 0.69876,1.125538 1.93781,2.301611 2.989,3.095361 0.54477,0.411427 0.97366,1.122362 1.67851,1.363133 v -0.05265 h -0.0526 c -0.13652,-0.21299 -0.3503,-0.300831 -0.52387,-0.471223 -0.41037,-0.40296 -0.86704,-0.903287 -1.20624,-1.364192 -0.95594,-1.296987 -1.80049,-2.71727 -2.56937,-4.194968 -0.36803,-0.705909 -0.68738,-1.484048 -0.99747,-2.202392 -0.11986,-0.277019 -0.11774,-0.696648 -0.36698,-0.839258 -0.33893,0.525991 -0.83926,0.951971 -1.10173,1.572948 -0.41857,0.993245 -0.47334,2.205566 -0.62838,3.461279 -0.0921,0.03307 -0.0516,0.01032 -0.10531,0.05265 -0.73078,-0.17674 -0.98689,-0.928156 -1.25889,-1.574004 -0.68632,-1.630892 -0.81438,-4.257146 -0.20981,-6.135952 0.1561,-0.485775 0.86307,-2.015332 0.57679,-2.464859 -0.13652,-0.44741 -0.58711,-0.706966 -0.83926,-1.049073 -0.31221,-0.422804 -0.62309,-0.979752 -0.83926,-1.4687017 -0.56223,-1.2713221 -0.82364,-2.6995425 -1.41605,-3.9851528 -0.2831,-0.6148917 -0.76067,-1.2371917 -1.15331,-1.7827625 -0.43524,-0.6056313 -0.92181,-1.0522479 -1.25889,-1.7838209 -0.11986,-0.26035 -0.28205,-0.6770687 -0.10531,-0.9435041 0.0569,-0.180975 0.13653,-0.25638127 0.31512,-0.31511877 0.30374,-0.2346854 1.15147,0.078581 1.46765,0.20981457 0.84137,0.34925 1.54305,0.6820958 2.2561,1.1543771 0.34105,0.2262187 0.68739,0.6646333 1.10067,0.7866062 h 0.47228 c 0.73792,0.169598 1.56474,0.051594 2.25504,0.2614084 1.21947,0.3709458 2.31193,0.9477375 3.30412,1.5740062 3.02207,1.9089688 5.49433,4.6249146 7.18502,7.8671193 0.27173,0.522023 0.38973,1.019175 0.62945,1.572948 0.4826,1.116277 1.0914,2.264569 1.57189,3.357033 0.48048,1.088232 0.94773,2.188105 1.62665,3.094302 0.35666,0.476515 1.73329,0.731838 2.35956,0.996421 0.43921,0.184944 1.15861,0.378354 1.574,0.629444 0.79375,0.478631 1.56263,1.049073 2.30796,1.572948 0.37095,0.262467 1.51607,0.8382 1.57295,1.31154 z M 257.32729,5.2736229 c -0.38444,-0.00714 -0.65617,0.041275 -0.94351,0.1045104 v 0.052652 h 0.0516 c 0.18388,0.3762376 0.50747,0.6191251 0.73474,0.9435043 l 0.52388,1.1017249 0.0526,-0.05159 c 0.32464,-0.2293937 0.47334,-0.5953117 0.47122,-1.1543768 -0.13017,-0.1375833 -0.14869,-0.307975 -0.26246,-0.4722812 -0.1487,-0.2180167 -0.43921,-0.3410479 -0.62839,-0.523875 z m 0,0"
         id="path1-4-5"
         style="fill:#5d91a6;fill-opacity:1;stroke-width:0.264583" /></g><g
       id="layer10-3"
       transform="translate(-0.42328748,44.178096)"><g
         id="g27-5"
         transform="matrix(0.26458333,0,0,0.26458333,286.55296,0.09949128)"><g
           data-name="layer101"
           id="g4-6"><path
             d="m 45.34,127.9 c -0.53,-0.49 -0.21,-1.76 0.73,-2.91 0.56,-0.67 1.89,-2.56 2.94,-4.2 2.35,-3.65 3.23,-4.52 4.07,-4 0.49,0.31 0.59,0.84 0.52,2.77 l -0.1,2.44 1,-1.22 c 1.89,-2.46 3.67,-4.21 4.27,-4.21 1.33,0 1.54,0.88 1,4.07 -0.39,2.34 -0.39,3.15 -0.07,3.67 0.91,1.47 0.14,2.77 -1.65,2.77 -1.12,0 -1.54,-1.23 -1.26,-3.64 l 0.25,-2.14 -0.81,1 c -1.85,2.49 -3.6,4 -4.59,4 -0.99,0 -1.08,-0.18 -1.4,-2.24 -0.07,-0.46 -0.56,0 -1.75,1.68 C 47,128 46,128.6 45.34,127.9"
             id="path1-6-6" /><path
             d="m 38.47,126.53 c -0.7,-0.88 -0.77,-1.3 -0.63,-3 a 9.32,9.32 0 0 1 2.7,-6 c 1,-1 1.54,-1.33 2.48,-1.33 a 2.9,2.9 0 0 0 1.61,-0.38 c 0.71,-0.7 2.18,0 2.81,1.22 1.68,3.58 -2.31,9.67 -6.8,10.27 -1.22,0.2 -1.5,0.1 -2.17,-0.78 M 43.13,124 A 6.55,6.55 0 0 0 45,119.81 c -0.07,-0.74 -0.32,-1 -1.09,-1.06 -1.57,-0.17 -3,1.44 -3.57,4.07 -0.4,2.06 1.04,2.69 2.79,1.18"
             id="path2-1-6" /><path
             d="m 70,126.57 c -1,-1 -0.95,-4.17 0.14,-6.48 0.94,-2.1 2.31,-3.26 6.3,-5.57 1.68,-1 2.91,-1.82 2.77,-2 -0.14,-0.18 -0.7,-0.39 -1.23,-0.63 -0.91,-0.39 -1.12,-0.25 -4.27,2.66 -2.45,2.24 -3.4,3.4 -3.71,4.38 -0.42,1.47 -2.17,2.9 -4.66,3.88 -1.4,0.53 -1.61,0.77 -2,2.11 -0.39,1.54 -1.23,2.17 -2.35,1.71 -0.77,-0.28 -0.59,-1.57 0.91,-6.09 a 39,39 0 0 0 1.33,-4.38 c -0.07,-0.07 -4.13,-0.91 -9,-1.93 l -8.93,-1.82 -8.83,-0.17 c -6.94,-0.11 -8.86,-0.25 -8.86,-0.6 0,-0.59 0.87,-0.77 6.3,-1.26 a 80.7,80.7 0 0 1 14.89,0.25 c 1.82,0.17 2.34,0.14 2.06,-0.18 -0.73,-0.81 -16.95,-5.08 -18.56,-4.87 -0.8,0.11 -0.7,0.21 1.12,1.65 1.19,0.94 1.82,1.64 1.54,1.71 -0.66,0.25 -8.4,-3.85 -8.4,-4.44 0,-0.42 0.73,-0.46 4.66,-0.28 a 71,71 0 0 1 7.25,0.73 10.2,10.2 0 0 0 2.8,0.32 c 0.1,-0.07 -0.28,-0.56 -0.81,-1 -0.8,-0.7 -0.94,-1 -0.77,-2 0.21,-1.16 0.21,-1.16 -7.14,-6.55 -4.38,-3.19 -7.39,-5.64 -7.39,-6 0,-1 -0.88,-1.82 -2.49,-2.42 l -1.54,-0.59 -0.21,-5.57 c -0.14,-3.08 -0.25,-8.65 -0.28,-12.36 0,-6.34 -0.07,-6.83 -0.81,-7.78 -0.74,-0.95 -0.73,-1.22 -0.38,-3 0.42,-2.27 0.28,-2.55 -1.51,-2.55 -1.79,0 -1.94,-0.33 -1.36,-6.45 0.32,-3.08 0.6,-5.68 0.7,-5.75 a 20.6,20.6 0 0 1 4.55,0.88 c 0.63,0.18 0.81,-0.07 1.34,-2 l 0.59,-2.21 -1.09,-2.42 c -0.87,-1.93 -1.19,-2.35 -1.71,-2.17 -1.09,0.31 -2,-2.31 -0.95,-2.87 0.42,-0.25 0.25,-1.12 -1,-5.22 -3.75,-12 -4.31,-16.18 -2.24,-16.25 0.73,0 2.27,1.85 3.85,4.66 2.63,4.62 2.31,4.48 4,1.75 3.71,-6 4.9,-7 6.62,-5.92 a 3.5,3.5 0 0 0 1.57,0.56 c 1,0 7,-2.24 9.91,-3.75 2.91,-1.51 4,-1.43 3.86,0.25 0,1.05 -0.42,1.57 -2.77,3.74 l -2.7,2.53 0.63,2.13 a 7.3,7.3 0 0 0 1,2.31 110,110 0 0 0 9.63,-5.64 c 5.11,-3.18 9.56,-5.74 9.88,-5.7 a 0.8,0.8 0 0 1 0.56,0.77 c 0,0.49 -1.68,1.75 -6,4.55 -3.33,2.14 -5.85,4 -5.61,4 a 5.8,5.8 0 0 1 1.2,0.84 c 1.33,1.22 1,2.31 -1.55,5 C 48,26 46.84,27.8 44.28,33 c -2,4 -2.52,4.55 -5.39,6 -1.08,0.53 -1.51,1 -1.51,1.51 a 2.2,2.2 0 0 1 -0.56,1.36 c -0.7,0.77 -2,5.26 -1.61,5.61 a 33,33 0 0 0 3.51,1 11.8,11.8 0 0 1 3.22,1 c 0,0.49 -2.1,8.44 -2.31,8.8 -0.11,0.17 -0.56,0.21 -1.05,0.1 -0.7,-0.18 -0.84,-0.1 -0.81,0.6 a 10,10 0 0 0 0.28,1.68 c 0.21,0.73 0.39,0.56 1.58,-1.65 a 46.4,46.4 0 0 1 8.26,-9.84 42,42 0 0 1 4.73,-2.91 14.75,14.75 0 0 1 6.48,-2.1 17,17 0 0 1 5.36,0 c 3,0.56 6.86,2.56 8.47,4.34 l 1.34,1.5 h 3.36 c 2.9,0 3.6,0.14 5.15,1 a 21.4,21.4 0 0 1 2.87,1.85 28.1,28.1 0 0 1 5.46,7.15 c 0.6,1.26 0.88,1.61 1,1.16 a 4.8,4.8 0 0 0 -0.73,-2.24 l -0.91,-1.65 0.7,-1.33 c 0.38,-0.77 0.73,-1.51 0.8,-1.65 0.07,-0.14 -0.21,-0.14 -0.63,0.11 -0.42,0.25 -0.91,0.28 -1,0.1 -0.73,-0.73 -5.64,-10 -5.5,-10.4 a 12.1,12.1 0 0 1 3.36,-1.37 10.2,10.2 0 0 0 3.19,-1.26 15,15 0 0 0 -0.49,-1.92 7.53,7.53 0 0 0 -2.31,-3.37 8.9,8.9 0 0 0 -2.24,-1.75 c -0.77,0 -5.29,-2.34 -6.94,-3.6 -2.2,-1.72 -3,-2.11 -7.18,-3.4 -3.43,-1.09 -3.6,-1.19 -3.6,-2.1 0,-1.82 0.91,-2.42 4.9,-3.15 2,-0.39 3.82,-0.78 4,-0.81 0.49,-0.18 -3.18,-4 -6,-6.23 -4.17,-3.33 -4.27,-3.4 -4.27,-4.28 0,-1.29 1.19,-2.13 2.87,-2.1 A 7.93,7.93 0 0 1 74,10.5 l 2.49,1.64 -3.28,-3.32 C 70.17,5.7 70,5.38 70,4 70,2.62 70.14,2.49 70.87,2.21 a 1.2,1.2 0 0 0 0.88,-1 c 0,-1 1.15,-1.51 3.22,-1.23 2.07,0.28 7.81,3.29 11.84,6.34 A 16,16 0 0 0 89.47,8.07 13.5,13.5 0 0 0 88.31,4.85 C 87.08,2 87,1.74 87.5,0.87 a 2.33,2.33 0 0 1 3.58,-0.39 c 1.78,1.4 6.58,10.19 7.88,14.43 a 52,52 0 0 1 1.75,12.54 c -0.07,2 0.14,2.84 1.4,6.13 a 30,30 0 0 0 1.79,4.13 c 0.17,0.18 2,-0.21 4.27,-0.94 a 17.3,17.3 0 0 1 4.2,-1 c 0.28,0.32 -0.49,10.27 -0.84,10.83 a 2.8,2.8 0 0 1 -1.3,0.63 c -0.59,0.14 -1,0.35 -1,0.45 a 10.6,10.6 0 0 0 1.4,2 c 1,1.12 1.37,1.93 1.2,2.28 a 2.6,2.6 0 0 0 -0.18,0.91 c 0,0.21 0.11,1.54 0.18,3 0.07,1.46 0.24,3.26 0.38,4 0.28,1.61 -0.21,3.11 -3.33,10.61 a 64.4,64.4 0 0 0 -3.92,15.48 24.3,24.3 0 0 1 -1.54,5.32 10.8,10.8 0 0 0 -1.19,4.49 c 0,1.47 0.1,1.78 0.52,1.61 a 14.8,14.8 0 0 1 4,-0.49 36,36 0 0 1 -2.87,3 l -2.88,2.86 2,-0.67 c 2.42,-0.8 4.87,-1.26 4.87,-0.84 0,0.18 -0.59,0.6 -1.29,1 -1.58,0.81 -5.12,3.54 -4.14,3.19 a 19.2,19.2 0 0 1 3.51,-0.38 c 3.29,-0.18 3.43,-0.25 -6,2.41 A 115.7,115.7 0 0 0 81,114.2 c -3,1.51 -3,1.58 -2.48,2.21 0.52,0.63 0.8,1.89 0.42,4.13 -0.21,1.23 -0.18,1.47 0.31,1.47 a 4.14,4.14 0 0 1 1.75,1.23 4.1,4.1 0 0 0 1.93,1.23 c 0.88,0 0.84,-0.11 -1.19,-3 -1.51,-2.06 -1.54,-3.08 -0.21,-4.44 2,-2 6.34,-0.81 5.43,1.57 a 1.06,1.06 0 0 1 -1.72,0.21 1.8,1.8 0 0 0 -2.1,0 6.9,6.9 0 0 0 1.4,2.49 c 1.89,2.59 2.1,4.17 0.67,5.08 -0.77,0.52 -1.12,0.56 -2.66,0.17 -2.25,-0.49 -4.07,-1.61 -4.35,-2.63 -0.17,-0.7 -0.28,-0.63 -1.82,0.85 a 8.18,8.18 0 0 1 -5.11,2.45 2.3,2.3 0 0 1 -1.26,-0.7 z m 4.55,-2.91 c 1.47,-1.47 2.35,-3.75 1.68,-4.52 -0.52,-0.67 -2.17,-0.56 -2.84,0.17 -1.36,1.51 -2.17,5 -1.19,5.43 0.8,0.35 0.98,0.26 2.31,-1.08 z m -8.65,-3.4 c 1.37,-1 1.68,-1.82 0.77,-2.17 -0.7,-0.25 -1.79,0.73 -2.24,2 -0.45,1.27 -0.25,1.29 1.43,0.17 z m 6.13,-7 A 26,26 0 0 0 74.41,111 c 0.07,-0.1 -0.64,-0.52 -1.55,-0.87 -2.38,-1 -5.25,-0.88 -8.58,0.35 a 13.4,13.4 0 0 0 -2.73,1.19 12,12 0 0 0 2.56,1.16 25.6,25.6 0 0 1 3.57,1.64 4.3,4.3 0 0 0 1.51,0.7 10.7,10.7 0 0 0 2.81,-1.95 z m 16.7,-5.15 c 2.32,-1.12 5.89,-2.69 8,-3.5 2.24,-0.88 3.78,-1.68 3.78,-2 a 4.5,4.5 0 0 1 0.73,-1.65 c 0.39,-0.66 0.63,-1.19 0.49,-1.19 a 136,136 0 0 0 -12.5,5.5 c -5.08,2.45 -5.53,2.77 -5.53,3.61 0,0.84 0.31,1.5 0.66,1.29 0.03,-0.03 2.02,-1.01 4.33,-2.1 z m -3.57,-52.5 a 9.2,9.2 0 0 0 -1.72,-1.44 c -0.59,-0.42 -0.38,-0.14 0.53,0.7 1.71,1.58 2.24,1.89 1.19,0.74 m 16.42,69.55 a 26,26 0 0 0 -2.31,-2.27 5.8,5.8 0 0 0 -0.38,1.61 5.5,5.5 0 0 1 -0.6,2.1 c -0.56,0.67 -2,0.6 -2.31,-0.11 a 19.2,19.2 0 0 1 0.77,-4.62 c 1.3,-5.46 1.68,-6.16 3.19,-5.78 0.42,0.11 0.87,0 1,-0.17 0.42,-0.63 2.84,-0.46 3.47,0.24 1,1.16 0.52,4.07 -1,5.29 -0.49,0.42 -0.49,0.53 0,1.33 a 7.6,7.6 0 0 0 1.93,1.72 c 1.47,0.94 1.75,2 0.67,2.59 -1.44,0.74 -2.24,0.39 -4.49,-1.93 z m -0.17,-5.53 c 0.87,-0.81 1,-1.65 0.28,-1.65 -0.72,0 -2,1.65 -2,2.35 0,0.7 0.53,0.35 1.72,-0.7"
             id="path3-8-7" /><path
             d="m 87.19,126.7 c -0.56,-0.21 -0.77,-0.52 -0.63,-0.91 a 65,65 0 0 1 2.2,-6.93 16,16 0 0 1 1.44,-1.33 c 1.09,-0.88 1.44,-1 4.13,-1 2.69,0 3,0.07 3,0.67 0,1 -0.88,1.5 -3.58,1.75 -2,0.17 -2.55,0.35 -2.66,0.84 -0.11,0.49 0.14,0.6 1.65,0.6 1.51,0 1.78,0.07 1.78,0.84 0,1.08 -0.45,1.36 -2.59,1.61 -2.14,0.25 -2.55,0.91 -0.38,0.77 2.52,-0.21 3.39,0.14 3.25,1.22 -0.1,0.91 -0.24,1 -2.76,1.37 -1.47,0.21 -2.94,0.49 -3.33,0.59 a 2.65,2.65 0 0 1 -1.52,-0.09 m -58.53,-0.59 c -1.33,-2.52 1.05,-8.09 4.21,-9.7 1.89,-1 4.51,-0.49 4.51,0.87 0,0.88 -1.15,1.47 -2.24,1.19 -1.29,-0.31 -2.27,0.42 -3.22,2.42 -1.4,3 -1.12,3.22 2.38,1.93 2.42,-0.88 3.16,-0.6 2.45,0.94 -0.52,1.12 -3.74,2.7 -6.05,2.91 -1.41,0.14 -1.7,0.03 -2.04,-0.56"
             id="path4-2-6" /></g><g
           fill="#6a5439"
           data-name="layer102"
           id="g11-7"
           style="display:inline;fill:#5d91a6;fill-opacity:1"><path
             d="m 49.61,108 c -0.7,-0.24 -2.42,-0.73 -3.82,-1.08 -1.61,-0.39 -2.59,-0.81 -2.7,-1.16 a 12,12 0 0 0 -0.66,-1.65 3.63,3.63 0 0 1 -0.32,-2.27 l 0.21,-1.23 -4.48,-3.33 c -2.45,-1.85 -5.78,-4.27 -7.35,-5.35 -2.88,-2 -4.31,-3.51 -4.31,-4.52 a 7.4,7.4 0 0 1 0.52,-1.79 c 0.67,-1.54 0.07,-1.75 -1.22,-0.38 -0.77,0.8 -0.84,0.8 -1.86,0.31 -1.02,-0.49 -1.09,-0.59 -0.49,-5.74 0,-0.28 -0.07,-3 -0.21,-6 -0.14,-3 -0.35,-7.07 -0.46,-9.07 a 13,13 0 0 0 -0.7,-4.59 c -0.77,-1.29 -0.24,-4 0.74,-4 1.47,0.07 11.59,1.65 12.26,1.89 0.67,0.24 0.8,0.81 1.19,3.23 0.24,1.57 0.63,3.57 0.8,4.37 a 2.4,2.4 0 0 1 -0.49,2.63 c -2.1,2.87 -5.18,11.45 -5.14,14.29 v 1.93 l 0.53,-1.23 c 0.73,-1.75 3.71,-6.65 4.06,-6.65 0.14,0 0.17,0.52 0.07,1.15 -0.35,1.72 0.7,7.43 1.54,8.62 1,1.36 2.77,2.83 3.43,2.83 0.49,0 0.49,-0.07 0,-0.63 a 2.26,2.26 0 0 1 -0.59,-1.4 c 0,-0.73 0,-0.73 0.84,0.11 A 12.3,12.3 0 0 0 43.59,89 c 1.65,0.84 1.79,1 2,2.53 a 28.2,28.2 0 0 1 -0.42,7.49 c -0.24,0.88 -0.24,0.88 0.88,-0.17 a 20.6,20.6 0 0 0 2.34,-2.7 l 1.23,-1.65 1,0.63 c 1.19,0.74 3.82,3.12 3.82,3.47 a 6,6 0 0 1 -0.74,1.44 c -0.59,1 -0.66,1.5 -0.45,3.53 0.21,2.21 0.17,2.42 -0.53,2.81 a 2.6,2.6 0 0 0 -1.09,1.26 c -0.38,0.94 -0.42,0.94 -2.13,0.31 z"
             id="path5-1-7"
             style="display:inline;fill:#5d91a6;fill-opacity:1" /><path
             d="m 63,105.17 a 8.5,8.5 0 0 1 -4.2,-3.68 32.7,32.7 0 0 0 -7.53,-7.81 c -2,-1.37 -3.85,-3.26 -4.2,-4.38 a 1.64,1.64 0 0 0 -1.16,-1 13,13 0 0 1 -1.65,-0.45 c -0.87,-0.35 -3.25,-4.31 -3.53,-5.89 -0.25,-1.36 0.1,-1.92 2.17,-3.11 2.7,-1.61 5,-2.17 10.47,-2.59 6.34,-0.49 8.58,-1 11.94,-2.77 a 8.4,8.4 0 0 1 2.6,-1.09 8.5,8.5 0 0 1 -1.79,1.89 c -1.93,1.76 -1.79,1.9 1.05,1 a 9.63,9.63 0 0 0 5.32,-4.62 l 0.51,-1.02 1.16,1.79 c 2,3.08 8.72,7.56 12.57,8.4 a 5.2,5.2 0 0 1 2.32,1 c 0.52,0.59 0.56,0.84 0.17,1.75 a 2.6,2.6 0 0 0 -0.28,1.26 c 0.25,0.25 1.37,-1.54 1.65,-2.59 0.28,-1.05 0.7,-1.26 1.4,-0.81 0.42,0.28 0.42,0.56 -0.14,2 -0.84,2.18 -2.59,4 -3.93,4 -0.8,0 -1.15,0.32 -1.92,1.75 a 10.3,10.3 0 0 1 -5,4.28 c -1.22,0.42 -1.61,1 -0.7,1 a 6.3,6.3 0 0 0 1.44,-0.35 c 0.91,-0.35 1,-0.32 0.74,0.59 a 20.7,20.7 0 0 1 -3.89,7 c -1.86,2.1 -5.22,3.74 -9.11,4.48 -3.36,0.67 -4.9,0.63 -6.48,0 z m -0.7,-4.21 c 0,-1.4 1,-2.52 3.12,-3.29 1.86,-0.7 2.35,-0.74 3.68,-0.39 2.1,0.53 2.27,0.5 1.29,-0.31 -0.98,-0.81 -4,-0.91 -6.51,-0.07 -1.54,0.52 -1.82,0.77 -2.21,2 -0.49,1.43 -0.28,3.15 0.28,2.8 a 0.9,0.9 0 0 0 0.3,-0.7 z m -0.63,-6.34 c 1.58,-0.56 1.72,-0.56 3.08,0.07 1.36,0.63 1.47,0.63 3.68,-0.14 A 7.1,7.1 0 0 1 71.5,94 c 0.91,0.21 1.57,-0.32 1,-0.88 -0.28,-0.28 -4.44,0.35 -5.81,0.91 a 1.9,1.9 0 0 1 -1.51,-0.35 c -0.94,-0.63 -2.17,-0.59 -4.79,0.11 -1.65,0.45 -2,0.7 -1.3,1.12 0.7,0.42 0.64,0.41 2.53,-0.29 z m 6.94,-4.13 a 7.5,7.5 0 0 1 1.75,-1.93 0.33,0.33 0 0 0 0.35,-0.35 c 0,-0.8 -1.3,-0.24 -2.66,1.09 -1.16,1.12 -1.65,1.4 -2.25,1.19 a 1.94,1.94 0 0 1 -1,-2.56 c 0.42,-1.08 0,-3.46 -0.81,-4.93 -0.66,-1.16 -0.66,-1.2 0,-1.93 A 4.82,4.82 0 0 0 65.4,78 c 0,-0.74 -0.14,-0.67 -1.4,0.73 -1.26,1.4 -1.47,1.51 -2.87,1.3 -2.59,-0.39 -7.42,-0.91 -8.4,-0.91 a 3.8,3.8 0 0 0 -2.11,1 l -1.12,1 2.63,-0.12 c 3.08,-0.21 9.32,0.74 10.16,1.51 0.63,0.56 1.36,3 1.36,4.48 a 3.6,3.6 0 0 1 -0.87,1.89 c -0.84,1 -0.84,1.09 -0.25,1.27 a 6.8,6.8 0 0 1 1.65,1.26 c 1.57,1.59 2.66,1.39 4.38,-0.92 z m -24,-6.06 A 10.3,10.3 0 0 1 43.52,82.5 C 42.89,80.96 42.3,80.82 42.3,82.19 a 3.33,3.33 0 0 0 1.29,2.17 c 1.29,1.23 2.1,1.26 1.01,0.07 z m 36.7,-0.28 a 13.4,13.4 0 0 0 2,-1.75 6.6,6.6 0 0 0 -1.65,0.7 12.3,12.3 0 0 1 -3.78,1.09 c -1.75,0.17 -2.28,0.1 -3.22,-0.49 -0.64,-0.42 -1.16,-0.88 -1.16,-1.06 0,-0.18 1,-0.31 2.21,-0.31 1.92,0 5.56,-0.81 6.27,-1.44 0.17,-0.14 -1.2,-0.17 -3,-0.1 -3.47,0.14 -8.13,-0.39 -8.93,-1.05 a 6.7,6.7 0 0 1 -1,-1.65 c -0.59,-1.43 -1,-0.94 -0.66,0.81 a 4,4 0 0 0 2.87,3 c 0.66,0.18 1,0.53 1.12,1 0.14,0.81 1.68,1.82 2.8,1.82 a 1.7,1.7 0 0 1 1,0.32 5.5,5.5 0 0 0 2.66,0.7 7.5,7.5 0 0 0 2.52,-1.58 z m -23.6,0.56 a 6.9,6.9 0 0 1 2.45,-0.7 c 1.16,0 1.44,-0.52 0.42,-0.77 a 8.7,8.7 0 0 0 -2.45,0.07 20,20 0 0 1 -3.61,0 c -2,-0.24 -3.36,-0.1 -3.68,0.39 -0.1,0.17 0.35,0.31 1,0.31 a 4.7,4.7 0 0 1 2.21,0.7 c 1.3,0.88 1.95,0.88 3.65,0 z"
             id="path6-1-1"
             style="display:inline;fill:#5d91a6;fill-opacity:1" /><path
             d="m 83.86,104.43 a 36,36 0 0 1 -1.29,-3.36 L 81.8,98.72 83.06,95.6 c 0.7,-1.71 1.26,-3.22 1.26,-3.32 a 8.3,8.3 0 0 1 1.36,-1.58 l 1.32,-1.33 0.39,2.52 c 0.35,2.63 2.56,7.88 3.26,7.88 0.21,0 0.31,-0.21 0.21,-0.45 a 29,29 0 0 1 -0.63,-3.09 13.1,13.1 0 0 1 0,-5.21 l 0.49,-2.63 0.28,1.89 c 0.31,2.38 1.19,4.66 2.1,5.5 0.73,0.66 0.73,0.66 0.52,-0.91 A 34.8,34.8 0 0 1 94,82.68 c 0.21,-0.81 0.21,-0.81 1.26,-0.18 a 13.45,13.45 0 0 1 3.92,5.15 c 0.35,0.74 0.7,1.26 0.81,1.19 0.28,-0.31 -0.81,-5 -1.47,-6.3 a 20,20 0 0 0 -2.91,-3.4 l -2.36,-2.24 2.9,0.28 a 20.6,20.6 0 0 1 4.35,0.74 4.1,4.1 0 0 0 1.61,0.35 c 0.24,-0.25 -1.54,-2.28 -3,-3.4 a 10,10 0 0 0 -2.48,-1.4 c -1.76,-0.56 -2.18,-1 -2.18,-2 A 18,18 0 0 0 93.72,68.18 L 93,65.8 93.8,63.31 94.61,60.83 93.6,59 l -1,-1.85 0.91,-1.23 a 3.76,3.76 0 0 0 0.87,-2 c -0.1,-0.71 0.35,-1 4.1,-2.35 2.31,-0.84 4.94,-1.86 5.85,-2.24 a 9.4,9.4 0 0 1 2.07,-0.7 6,6 0 0 1 1.75,1.43 c 1.22,1.3 1.33,1.58 1.15,2.77 -0.14,0.81 -0.07,1.4 0.18,1.54 0.42,0.28 0.52,2.31 0.14,2.31 a 11,11 0 0 1 -1.61,-0.38 4.3,4.3 0 0 0 -1.93,-0.14 c -0.45,0.17 0,0.52 1.51,1.29 a 10.4,10.4 0 0 1 2.5,1.55 c 0.53,0.63 -0.17,3.72 -1.36,6.24 -2.91,6 -4.2,10.4 -5.43,18.63 a 22.2,22.2 0 0 1 -1.79,6.76 11.8,11.8 0 0 0 -1.36,5.18 c -0.25,3 -0.25,3 -1.3,3.33 -0.56,0.18 -1.82,0.7 -2.8,1.16 -1.47,0.66 -4.1,1.82 -10.58,4.59 -1.08,0.49 -1.15,0.45 -1.61,-0.46 m -37.37,-9.7 c 0,-2.07 0.46,-2.7 1.33,-1.86 0.49,0.53 0.49,0.7 -0.1,2 -0.95,2.06 -1.23,2.03 -1.23,-0.14"
             id="path7-9-9"
             style="display:inline;fill:#5d91a6;fill-opacity:1" /><path
             d="m 88.38,92 c -0.67,-3.29 -0.42,-4.52 0.91,-4.52 0.74,0 0.74,-0.07 0.14,2.74 -0.56,2.55 -0.81,2.97 -1.05,1.78 M 38.76,79.35 c 0,-1.71 1.44,-3.53 3.58,-4.59 a 49.4,49.4 0 0 1 7.46,-2.1 C 60.44,70.35 66.43,67.41 66.43,64.5 v -0.87 l -1.64,1.22 a 33,33 0 0 1 -3.16,2 c -2.06,1 -7.91,2.39 -12.32,2.88 -6.06,0.59 -10.13,1.92 -12.61,4 l -1.19,1 0.24,-1 c 0.42,-1.75 4.59,-7.67 6.73,-9.63 6.93,-6.37 12.32,-8.61 20.1,-8.37 3.85,0.11 4.13,0.18 6.3,1.37 5.47,3 6,7.11 1.58,11.59 a 27.3,27.3 0 0 1 -8.93,5.57 c -1.89,0.59 -3.15,0.77 -13.55,1.86 -5.36,0.59 -6.83,1.15 -7.92,3 -0.95,1.67 -1.3,1.74 -1.3,0.23 m 47.13,-0.91 a 7.3,7.3 0 0 1 -2.62,-1.19 c 0,0 1.61,-0.1 3.57,-0.14 2.56,0 3.92,0.11 4.8,0.49 1.12,0.46 1.19,0.56 0.56,0.81 a 18.9,18.9 0 0 1 -6.31,0.03"
             id="path8-7-1"
             style="display:inline;fill:#5d91a6;fill-opacity:1" /><path
             d="m 83.65,75.4 c -4.9,-1.34 -9.49,-4.59 -10.23,-7.22 -0.38,-1.47 0.14,-4.83 0.74,-4.83 0.18,0 0.63,0.45 1,1 a 60.2,60.2 0 0 0 8.93,7.81 34,34 0 0 0 8.63,1.84 c 2,0.21 4.21,0.94 4.21,1.4 a 37,37 0 0 1 -4.63,0.11 c -2.55,0 -5.11,0.07 -5.71,0.17 A 8.6,8.6 0 0 1 83.65,75.4 M 38.16,74.66 c 0.07,-0.84 0.49,-1.16 2.52,-2.14 2.03,-0.98 3.22,-1.26 7.88,-1.85 3,-0.35 6.23,-0.81 7.14,-1 0.91,-0.19 1.58,-0.18 1.4,0 -0.66,0.56 -2.69,1.12 -8.4,2.24 -5,1 -6.45,1.4 -8.34,2.45 l -2.31,1.27 z"
             id="path9-6"
             style="display:inline;fill:#5d91a6;fill-opacity:1" /><path
             d="m 89.4,72.66 c -4.24,-1.08 -7.81,-3.18 -11.88,-6.9 -2.41,-2.2 -2.83,-3.22 -2.45,-5.81 l 0.32,-2 2.27,-0.11 c 3.26,-0.14 4.84,0.35 8,2.59 5.36,3.82 6.48,5.75 2,3.44 l -2.45,-1.26 1.58,1.36 c 0.87,0.74 1.92,1.72 2.38,2.21 1.23,1.29 4,5.57 4.06,6.23 0.06,0.66 -1.49,0.85 -3.83,0.25 M 39.84,63.7 c 0,-0.77 2.13,-4.52 4.23,-7.46 4.73,-6.66 11.14,-10.48 17.66,-10.55 a 8.6,8.6 0 0 1 4.83,1.09 c 3.5,1.68 5,2.94 6.23,5.57 A 9,9 0 0 1 74,57 c 0,3.57 -0.35,3.68 -3.08,1.12 A 10.1,10.1 0 0 0 66.26,55.25 C 60.69,53.54 52.36,54.9 46.75,58.47 a 39,39 0 0 0 -4.13,3.33 c -2.47,2.28 -2.78,2.53 -2.78,1.9"
             id="path10-2"
             style="display:inline;fill:#5d91a6;fill-opacity:1" /><path
             d="M 85.65,58.9 C 82.74,57.32 82.5,57.29 78.96,57.11 l -3.64,-0.17 -0.25,-2.31 c -0.17,-1.93 -0.1,-2.39 0.39,-2.74 1.68,-1.26 5.56,0.32 9.38,3.82 2.31,2.14 4.66,4.83 4.14,4.8 A 34,34 0 0 1 85.65,58.9 M 28.14,55.26 c -5.39,-0.74 -9.91,-1.47 -10,-1.61 a 16.8,16.8 0 0 1 0.17,-4.14 c 0.28,-2.9 0.53,-3.85 0.91,-3.92 0.67,-0.14 20.32,5 20.7,5.39 0.38,0.39 -1.19,5.47 -1.64,5.57 C 38.05,56.59 33.5,56 28.14,55.26 M 22.85,52 a 2.55,2.55 0 0 0 0.15,-3.15 1.58,1.58 0 0 0 -2.46,0.1 2.74,2.74 0 0 0 0.21,3 c 0.7,0.68 1.25,0.68 2.1,0.05 M 90,50.14 c -2,-3.5 -2.56,-4.59 -2.24,-4.76 0.8,-0.49 22.31,-6.55 22.69,-6.41 a 0.54,0.54 0 0 1 0.35,0.63 30,30 0 0 0 -0.38,3.26 11.7,11.7 0 0 1 -0.46,3 c -0.14,0.15 -4.16,1.62 -9,3.3 -4.84,1.68 -8.96,3.15 -9.18,3.22 -0.22,0.07 -1.02,-0.91 -1.78,-2.24 m 19.54,-7.42 c 0.53,-1 0.07,-1.79 -1,-1.79 -1.07,0 -1.54,0.74 -1.22,1.79 0.22,0.87 1.68,0.87 2.21,0 z M 28.35,46.43 24,45.31 24.21,44.08 a 12.7,12.7 0 0 1 0.91,-2.69 L 25.82,39.95 24.43,37 c -1.23,-2.38 -1.37,-2.94 -1,-3.32 1.08,-1.09 14,-8.83 15.09,-9 a 4.1,4.1 0 0 0 2,-1.12 16.5,16.5 0 0 1 3.71,-2.24 30,30 0 0 0 4,-2.1 c 1.4,-1 2.59,-0.81 2.73,0.38 0.07,0.7 -0.38,1.51 -2,3.33 -1.93,2.21 -3.82,5 -6.8,10.3 a 9.45,9.45 0 0 1 -3.46,3.5 c -1.9,1.26 -2.39,1.75 -2.39,2.45 a 3.9,3.9 0 0 1 -0.59,1.75 17.5,17.5 0 0 0 -1.51,3.64 10.1,10.1 0 0 1 -1.21,2.88 44,44 0 0 1 -4.65,-1.02 m 64.76,-5.57 c -1.51,-4.2 -1.93,-5.18 -2.35,-5.18 -0.42,0 -0.87,-0.6 -1.33,-1.33 -0.77,-1.23 -1.09,-1.4 -3.08,-1.82 -2.73,-0.56 -2.91,-0.67 -6.48,-3.09 A 13.75,13.75 0 0 0 73.6,26.78 13.6,13.6 0 0 1 70.06,25.7 c -0.38,-1.33 1.75,-1.93 7.53,-2.11 4.17,-0.1 4.38,-0.17 6.13,-1.29 1.47,-0.95 1.68,-1.19 1,-1.26 a 5.1,5.1 0 0 0 -2,0.42 c -2.07,0.87 -2.77,0.73 -3.85,-0.88 A 43,43 0 0 0 74,15.85 c -4.34,-3.74 -5,-4.55 -4.52,-5.07 0.48,-0.52 2.38,0.49 5.36,2.48 2.07,1.4 8,4.91 8.23,4.91 1,0 -5,-7.18 -9.32,-11.25 -1.64,-1.54 -2.17,-2.8 -1.36,-3.29 0.56,-0.35 2.35,0.77 8.12,5.11 5.43,4.1 7.36,5.22 5.33,3.09 A 76.6,76.6 0 0 0 76,4.09 C 74.25,3.09 73.58,2.3 74,1.67 a 0.87,0.87 0 0 1 0.7,-0.32 c 0.88,0 6.51,3 9.88,5.22 3.37,2.22 4.8,3.79 4.23,4.63 -0.57,0.84 -0.35,1.05 0.5,0.84 a 2.13,2.13 0 0 1 1.82,0.56 l 1,0.8 -0.21,-1.78 A 28,28 0 0 0 90.1,6.05 C 88.48,2.3 88.45,1.49 89.78,1.77 c 1.61,0.29 7,10.44 8.41,15.7 1.12,4.2 1.4,8.05 0.77,10.15 -0.49,1.54 -0.46,1.65 0.77,4.56 1.68,3.88 2.62,6.58 2.41,6.83 -0.21,0.25 -8.14,2.62 -8.51,2.62 -0.14,0 -0.35,-0.35 -0.52,-0.77 M 21.87,31.58 C 21.59,31.09 19.21,23.58 18.12,19.71 17,15.64 16.83,14 17.53,14 c 0.52,0 1.61,1.75 4.44,7 1.2,2.2 2.32,4.17 2.49,4.38 0.53,0.52 0.39,-0.39 -0.28,-1.72 l -0.56,-1.23 1.51,-2.55 c 2.73,-4.63 4.2,-6.59 4.9,-6.59 0.39,0 1.3,0.81 2.21,2 a 57,57 0 0 0 3.88,4.21 c 2.39,2.24 2.7,3 1.55,3.71 -0.81,0.49 -3.09,-0.6 -5.36,-2.59 l -1.68,-1.47 -0.46,0.84 c -0.56,1 -0.63,2.24 -0.14,2.55 0.18,0.11 0.42,-0.17 0.56,-0.66 L 30.8,21 l 2.42,1.61 a 14.8,14.8 0 0 1 2.34,1.72 c -0.21,0.18 -13.27,7.5 -13.41,7.5 a 0.46,0.46 0 0 1 -0.28,-0.25 m 16.01,-11.52 -1.69,-2 1.05,-0.84 c 2.32,-1.89 2.53,-1.82 3.65,1.51 l 0.7,2.06 -0.77,0.6 a 3.9,3.9 0 0 1 -1,0.63 12,12 0 0 1 -1.94,-1.96 m -3.64,-4.38 c -0.63,-0.81 -1,-1.54 -0.8,-1.72 a 19,19 0 0 1 2.94,-1.33 c 1.43,-0.59 3.85,-1.71 5.36,-2.52 l 2.69,-1.47 v 0.91 c 0,0.67 -0.7,1.47 -2.87,3.36 A 30,30 0 0 1 37,16.27 l -1.65,0.85 z"
             id="path11-7"
             style="display:inline;fill:#5d91a6;fill-opacity:1" /></g><g
           fill="#55514c"
           data-name="layer103"
           id="g13-2"
           style="display:inline;fill:#5d91a6;fill-opacity:1"><path
             d="m 54.34,113.36 a 4.3,4.3 0 0 1 -0.56,-2.17 18,18 0 0 0 -0.42,-2.49 c -0.18,-0.38 0.1,-1 0.8,-1.78 a 2.52,2.52 0 0 0 0.88,-2.45 c -0.21,-1.23 0.52,-4.14 1.08,-4.24 0.18,0 0.91,0.8 1.65,1.89 a 9.86,9.86 0 0 0 3.43,3.15 7.5,7.5 0 0 1 2.1,1.47 c 0,0.14 -0.42,0.25 -0.94,0.28 a 15.6,15.6 0 0 0 -2.73,0.49 L 57.87,108 h 3 c 1.65,0 3.47,0 4,0.07 h 1.05 l -0.88,0.39 c -4.13,1.72 -6.69,3 -7.95,4 -1.46,1.18 -2.09,1.39 -2.75,0.9 m 24.37,-2.73 A 22.4,22.4 0 0 0 75,109.19 c -2.67,-0.8 -3.82,-1.54 -3,-1.89 0.46,-0.17 6,1.09 7.78,1.75 0.42,0.18 0.59,0.07 0.59,-0.31 0,-0.77 -2.06,-1.61 -4.44,-1.86 a 5.3,5.3 0 0 1 -2.07,-0.49 c -0.07,-0.17 0.6,-0.66 1.54,-1.15 a 14.7,14.7 0 0 0 3.36,-2.7 c 0.91,-1 1.75,-1.68 1.93,-1.51 a 20,20 0 0 1 1.09,2.35 c 0.66,1.68 0.73,2.17 0.38,2.91 a 5.1,5.1 0 0 0 -0.17,2.27 2.17,2.17 0 0 1 -0.39,2.07 c -0.68,0.87 -1.31,0.87 -2.89,0 m -10.57,-2.7 c -0.56,-0.1 -1,-0.38 -1,-0.66 0,-0.28 0.49,-0.49 1.92,-0.49 1.43,0 1.93,0.1 1.93,0.52 a 0.51,0.51 0 0 1 -0.49,0.53 c -0.28,0 -0.7,0.07 -1,0.1 a 4.6,4.6 0 0 1 -1.36,0"
             id="path12-7"
             style="fill:#5d91a6;fill-opacity:1" /><path
             d="m 63,105.17 a 9.07,9.07 0 0 1 -4.48,-4.07 26,26 0 0 0 -7.15,-7.39 c -2.06,-1.33 -3.92,-3.25 -4.3,-4.41 a 1.57,1.57 0 0 0 -1.16,-1 c -0.52,-0.1 -1.19,-0.28 -1.47,-0.35 -1.23,-0.31 -4.2,-6.09 -3.75,-7.28 0.32,-0.84 3.19,-2.52 5.64,-3.33 a 35.6,35.6 0 0 1 7.22,-1.08 c 6,-0.46 8.23,-1 11.59,-2.63 A 10.8,10.8 0 0 1 67.8,72.51 7.8,7.8 0 0 1 66,74.34 c -2,1.72 -1.78,1.93 1,1.09 a 9.08,9.08 0 0 0 5.07,-4 5.8,5.8 0 0 1 1,-1.4 7,7 0 0 1 1.16,1.58 c 1.68,2.8 8.72,7.46 12.5,8.26 2.21,0.46 3.12,1.37 2.56,2.63 -0.56,1.26 -0.53,1.79 0.14,1.16 a 7.5,7.5 0 0 0 1,-1.93 c 0.49,-1.47 0.8,-1.68 1.54,-1.23 0.42,0.28 0.38,0.56 -0.11,1.86 -1,2.49 -2.17,3.75 -3.71,4 -1,0.18 -1.44,0.46 -1.75,1.23 a 14.6,14.6 0 0 1 -5.36,4.9 c -1.75,0.63 -1.65,1.12 0.14,0.84 1.4,-0.24 1.44,-0.21 1.19,0.56 a 23.4,23.4 0 0 1 -3.75,6.8 c -1.71,2 -5.46,3.81 -9.1,4.55 -3.37,0.67 -5,0.67 -6.59,0 z m -0.52,-4.66 c 0.56,-2.66 5.11,-4.24 8,-2.77 0.88,0.46 0.74,-0.28 -0.17,-0.91 -0.91,-0.63 -4.56,-0.7 -6.59,0.07 a 2.88,2.88 0 0 0 -2,1.89 c -0.49,1.3 -0.31,3.29 0.28,2.91 a 3,3 0 0 0 0.43,-1.19 z m -0.74,-5.85 c 1.54,-0.53 1.75,-0.53 3,0.07 1.25,0.6 1.43,0.59 3.61,-0.18 A 6.7,6.7 0 0 1 71.43,94 c 0.94,0.25 1.64,-0.35 1.08,-0.91 -0.28,-0.28 -4.44,0.35 -5.81,0.91 a 1.76,1.76 0 0 1 -1.51,-0.35 3.55,3.55 0 0 0 -3.53,-0.21 4.4,4.4 0 0 1 -1.61,0.39 1.76,1.76 0 0 0 -1.27,0.49 c -0.42,0.49 -0.24,0.59 1.06,0.87 a 14,14 0 0 0 1.85,-0.53 z m 6.69,-3.82 a 7,7 0 0 1 1.61,-2 c 0.88,-0.53 0.84,-1 0,-1 a 4.3,4.3 0 0 0 -2,1.4 c -1.47,1.58 -1.86,1.69 -2.63,0.81 -0.38,-0.46 -0.56,-1.37 -0.52,-3.15 A 6.7,6.7 0 0 0 64,83.1 c -0.77,-1.26 -0.77,-1.3 -0.11,-2 A 4.82,4.82 0 0 0 65.4,78 c 0,-0.74 -0.14,-0.67 -1.4,0.7 -1.26,1.37 -1.47,1.5 -2.69,1.33 -2.07,-0.32 -7.53,-0.91 -8.58,-0.91 a 3.8,3.8 0 0 0 -2.11,1 l -1.12,1 2.63,-0.12 c 3.08,-0.21 9.32,0.74 10.16,1.51 0.63,0.56 1.36,3 1.36,4.48 a 3.6,3.6 0 0 1 -0.87,1.89 c -0.84,1 -0.84,1.09 -0.25,1.26 a 7.2,7.2 0 0 1 1.65,1.27 2.81,2.81 0 0 0 2.13,1 c 0.99,0.01 1.27,-0.2 2.07,-1.57 z m -23.8,-6.41 a 8.2,8.2 0 0 1 -1.05,-1.89 c -0.66,-1.61 -1.29,-1.72 -1.29,-0.28 a 2.12,2.12 0 0 0 0.77,1.68 c 0.38,0.32 1,0.84 1.29,1.12 0.74,0.7 0.99,0.14 0.28,-0.63 m 36,0.32 A 13.6,13.6 0 0 0 82.74,83 c 0.7,-0.77 0.67,-0.77 -1,0.11 -2.42,1.22 -5.22,1.5 -6.79,0.7 -2,-1 -1.76,-1.44 0.73,-1.41 2,0 5.57,-0.8 6.31,-1.47 0.17,-0.14 -1.2,-0.17 -3,-0.1 -3.75,0.17 -8.2,-0.42 -9,-1.19 a 3.56,3.56 0 0 1 -0.8,-1.58 c -0.32,-1.61 -1.05,-1.26 -0.81,0.42 a 3.93,3.93 0 0 0 2.84,3.4 c 0.73,0.21 1.12,0.52 1.19,1 0.14,1 0.8,1.5 2.42,1.92 0.73,0.18 1.82,0.46 2.38,0.63 1.64,0.44 2.03,0.37 3.46,-0.68 z m -23.25,0.1 a 10.8,10.8 0 0 1 2.7,-0.8 c 1.4,-0.21 1.54,-0.28 0.91,-0.63 a 5.86,5.86 0 0 0 -2.81,-0.14 22,22 0 0 1 -4,0 6.9,6.9 0 0 0 -2.8,0.14 c -0.91,0.39 -0.91,0.39 0.49,0.63 a 6,6 0 0 1 2.28,0.81 c 1.1,0.69 1.85,0.69 3.27,-0.01 z M 28.1,55.22 c -5.39,-0.77 -9.91,-1.47 -10,-1.61 -0.39,-0.39 0.52,-7.88 0.94,-8 0.42,-0.12 20.46,5 20.81,5.39 0.35,0.39 -1.3,5.75 -1.68,5.68 C 38,56.62 33.5,56 28.1,55.22 m -5,-3.47 a 2.25,2.25 0 0 0 -0.1,-3 1.81,1.81 0 0 0 -2.32,0 3,3 0 0 0 0.14,3.22 c 0.7,0.73 1.36,0.66 2.24,-0.22 z M 90,50.14 c -2,-3.5 -2.56,-4.59 -2.24,-4.76 0.32,-0.17 22.1,-6.55 22.55,-6.55 0.45,0 0.11,6.62 -0.35,7.07 -0.14,0.15 -4.09,1.58 -8.82,3.23 -4.73,1.65 -8.83,3 -9.18,3.18 C 91.61,52.49 91.08,52 90,50.14 m 19.72,-7.81 a 1.36,1.36 0 0 0 -1.09,-1.75 2.09,2.09 0 0 0 -1.54,1.58 1.8,1.8 0 0 0 0.56,1 c 0.66,0.68 1.71,0.26 2.06,-0.83 z M 28.35,46.43 24,45.31 24.21,44.12 a 17.5,17.5 0 0 1 0.91,-2.7 l 0.7,-1.47 -1.22,-2.49 a 12.4,12.4 0 0 1 -1.26,-3.15 c 0,-0.52 1.71,-1.75 6.86,-4.94 a 77,77 0 0 1 8.13,-4.62 5.8,5.8 0 0 0 2.17,-1.19 c 1.22,-1.16 9.35,-5.15 10,-4.9 1,0.38 0.56,1.92 -1.26,3.92 a 54.2,54.2 0 0 0 -6.36,9.42 16,16 0 0 1 -5.39,5.53 2.09,2.09 0 0 0 -1.26,1.83 4.5,4.5 0 0 1 -0.67,1.82 16.5,16.5 0 0 0 -1.33,3.36 10.7,10.7 0 0 1 -1.23,2.91 44,44 0 0 1 -4.65,-1.02 m 64.72,-5.67 c -0.17,-0.49 -0.35,-1 -0.35,-1 0,-0.81 -1.57,-4 -2,-4 -0.43,0 -0.87,-0.6 -1.33,-1.33 -0.74,-1.19 -1.05,-1.37 -3.5,-2 A 15,15 0 0 1 80,29.58 c -2.9,-2 -3.6,-2.27 -6.48,-2.83 A 10.2,10.2 0 0 1 70.13,25.7 c -0.49,-1.33 1.57,-1.93 7.42,-2.11 4.17,-0.1 4.38,-0.17 6.13,-1.29 1.47,-0.95 1.68,-1.19 1,-1.26 a 5.1,5.1 0 0 0 -2,0.42 c -2,0.87 -2.7,0.7 -3.92,-1 a 51,51 0 0 0 -5.08,-4.94 c -3.82,-3.29 -4.8,-4.44 -4.13,-4.86 0.42,-0.25 2.73,0.91 5.36,2.69 2,1.37 7.88,4.84 8.16,4.84 1,0 -2.77,-4.59 -8.51,-10.48 -2.42,-2.45 -3,-3.57 -2.21,-4.06 A 2.54,2.54 0 0 1 73.88,4 131,131 0 0 1 85,12.32 a 1.65,1.65 0 0 0 1.19,0.59 c 0.67,0 0.63,-0.07 -0.31,-1.08 A 72,72 0 0 0 76.11,4.12 C 74.27,3.11 73.6,2.3 74,1.67 c 0.4,-0.63 1.16,-0.35 4.1,1.12 3.64,1.82 8.3,4.9 9.87,6.52 1,1 1.13,1.36 0.88,1.89 -0.53,0.94 -0.42,1.12 0.49,0.87 a 2,2 0 0 1 1.79,0.56 l 1,0.77 -0.21,-1.78 A 26.2,26.2 0 0 0 90.13,6.08 17,17 0 0 1 88.73,2 c 0.32,-0.53 1.4,-0.35 2,0.32 a 62,62 0 0 1 5.18,8.93 c 2.74,5.81 4.14,13.24 3,16.28 l -0.52,1.51 1.89,4.59 a 47,47 0 0 1 1.89,5 c 0,0.35 -2.42,1.23 -8.13,2.87 -0.44,0.13 -0.72,-0.11 -0.97,-0.74 M 21.87,31.58 C 21.55,31.05 18.4,20.76 17.74,18.2 c -0.77,-3 -0.84,-4.24 -0.21,-4.24 0.63,0 2.83,3.79 4.9,7.88 1.93,3.82 3.15,5 1.79,1.75 l -0.53,-1.29 1.82,-3.05 c 4.24,-6.93 4.41,-7 6.59,-4.13 a 50,50 0 0 0 3.9,4.27 13.7,13.7 0 0 1 2.49,2.87 c 0,0.28 -0.39,0.63 -0.84,0.84 -1,0.49 -3.12,-0.52 -5.33,-2.55 -0.84,-0.77 -1.68,-1.3 -1.85,-1.19 -0.57,0.35 -0.88,2.66 -0.46,3.08 0.42,0.42 0.46,0.1 0.6,-0.53 L 30.8,21 l 2.42,1.61 a 12.7,12.7 0 0 1 2.31,1.68 c -0.18,0.18 -13.24,7.5 -13.38,7.5 A 0.46,0.46 0 0 1 21.87,31.58 M 38.16,20.3 a 11.4,11.4 0 0 1 -1.55,-2.06 c -0.07,-0.18 0.53,-0.84 1.27,-1.44 1.64,-1.33 1.85,-1.19 3,1.86 l 0.77,2.1 -0.8,0.63 a 3.9,3.9 0 0 1 -1,0.63 11,11 0 0 1 -1.69,-1.72 M 34.1,15.5 c -0.52,-0.7 -0.8,-1.36 -0.66,-1.54 a 19,19 0 0 1 2.94,-1.33 c 1.43,-0.59 3.85,-1.71 5.36,-2.52 l 2.69,-1.47 v 0.91 c 0,1.4 -7,7.15 -8.79,7.22 -0.31,0 -1.01,-0.57 -1.54,-1.27"
             id="path13-6"
             style="fill:#5d91a6;fill-opacity:1" /></g><g
           fill="#895730"
           data-name="layer104"
           id="g16-5"
           style="display:none;fill:#5d91a6;fill-opacity:1"><path
             d="m 46.7,94.62 c 0.28,-2 0.32,-2.06 1,-1.5 0.49,0.35 0.46,0.59 -0.14,1.78 a 4.3,4.3 0 0 1 -0.91,1.37 3.8,3.8 0 0 1 0.05,-1.65 M 88.41,91.4 c -0.28,-1.29 -0.31,-3.54 -0.1,-3.54 a 3.4,3.4 0 0 0 0.74,-0.24 c 0.56,-0.18 0.59,0 0.35,1.68 a 15.5,15.5 0 0 1 -0.53,2.56 c -0.21,0.56 -0.28,0.49 -0.46,-0.46 M 38.43,79 c 0,-1.5 1.26,-3.11 3.12,-4.1 a 55,55 0 0 1 6.9,-1.9 c 7,-1.57 8.65,-2.06 12,-3.57 3.61,-1.65 4.87,-2.66 5.36,-4.34 A 3.2,3.2 0 0 0 66,63.49 c -0.11,-0.14 -0.91,0.35 -1.75,1.05 a 22,22 0 0 1 -3.47,2.13 c -2.45,1.12 -8.41,2.46 -13.21,3 -4.3,0.46 -8.4,1.68 -10.57,3.15 -0.84,0.56 -1.58,0.88 -1.65,0.7 A 13.7,13.7 0 0 1 37.07,70.3 C 41,64 47.43,58.79 53.63,56.83 a 21.7,21.7 0 0 1 7.18,-0.94 c 4.1,-0.07 4.56,0 6.34,0.84 3.19,1.5 5.61,4 5.61,5.81 a 8.82,8.82 0 0 1 -2.11,5 27.5,27.5 0 0 1 -8.19,6 c -1.89,0.84 -6.34,1.65 -11.94,2.11 -8.58,0.7 -9.64,1 -11.28,3.5 l -0.81,1.15 z m 48.51,-0.59 a 9.1,9.1 0 0 1 -2.45,-0.6 c -0.59,-0.38 -0.31,-0.45 1.75,-0.52 3.44,-0.11 4.63,0 5.47,0.45 0.38,0.21 0.66,0.42 0.59,0.46 -0.3,0.28 -3.82,0.42 -5.36,0.21 m -4.41,-3.54 c -4.9,-1.72 -8.48,-4.45 -8.93,-6.79 -0.21,-1.2 0.07,-4.38 0.42,-4.38 a 18,18 0 0 1 2,1.85 c 3,3 6.93,6.27 8.47,6.94 1.3,0.59 4.77,1.29 9.32,1.89 A 5.5,5.5 0 0 1 96,75 c 0.46,0.35 -0.66,0.42 -5.49,0.46 -5.18,0.08 -6.37,-0.03 -7.98,-0.59"
             id="path14-1"
             style="fill:#5d91a6;fill-opacity:1" /><path
             d="m 38.09,74.8 c 0,-1.58 4.13,-3.19 10.15,-3.89 2.59,-0.31 5.36,-0.66 6.13,-0.77 3.05,-0.35 -0.28,0.56 -5.81,1.61 -4.24,0.81 -6.24,1.37 -7.81,2.21 -1.19,0.63 -2.24,1.15 -2.38,1.22 -0.14,0.07 -0.28,-0.1 -0.28,-0.38 m 52.53,-2.03 c -3.68,-0.7 -6.51,-2.07 -10.37,-5 -4.65,-3.53 -5.46,-4.72 -5.14,-7.67 0.17,-1.92 0.21,-2 1.4,-2.1 2.31,-0.28 6.13,0.35 7.25,1.19 0.59,0.42 2,1.37 3,2.11 1.89,1.22 3.65,3 3.33,3.32 a 6,6 0 0 1 -2,-0.77 28,28 0 0 0 -2.73,-1.22 c -0.84,-0.32 -0.81,-0.25 0.28,0.59 3.47,2.66 7.35,7.57 7.35,9.32 0.08,0.68 -0.06,0.68 -2.37,0.23 M 39.84,63.52 c 0,-0.66 2.17,-4.31 4.09,-6.93 a 33.6,33.6 0 0 1 8.62,-8.2 20.1,20.1 0 0 1 10.05,-2.49 13.16,13.16 0 0 1 10.09,6.38 c 0.77,1.51 0.91,2.24 0.94,4.66 a 11.6,11.6 0 0 1 -0.24,3.11 c -0.14,0.14 -1,-0.56 -1.86,-1.54 -2,-2.27 -4.48,-3.46 -8.16,-4 -7,-1 -16.21,2.24 -21.43,7.57 -1.4,1.47 -2.1,1.92 -2.1,1.43 z"
             id="path15-3"
             style="fill:#5d91a6;fill-opacity:1" /><path
             d="M 86.77,59.28 A 13.1,13.1 0 0 0 78.71,57 11.8,11.8 0 0 1 75.46,56.76 10.2,10.2 0 0 1 75.18,54.2 L 75,52 76.82,51.9 c 3,-0.18 6.58,2 10.26,6.23 1.92,2.13 1.79,2.66 -0.31,1.15"
             id="path16-9"
             style="fill:#5d91a6;fill-opacity:1" /></g><g
           fill="#7b7870"
           data-name="layer105"
           id="g18-9"
           style="display:inline"><path
             d="m 54.27,113 a 3.37,3.37 0 0 1 -0.42,-1.89 7.4,7.4 0 0 0 -0.35,-2.38 c -0.28,-0.77 -0.18,-1.09 0.7,-2.07 a 2.5,2.5 0 0 0 0.8,-2.56 5.9,5.9 0 0 1 0.49,-2.9 l 0.67,-1.54 1.57,2.2 a 9.13,9.13 0 0 0 3.54,3.3 c 2.21,1.19 2.52,1.61 1.19,1.61 -1.33,0 -4.41,0.77 -4.2,1.08 a 15,15 0 0 0 3.92,0.11 l 3.75,-0.18 -2.8,1.22 c -3.29,1.36 -6,2.87 -6.76,3.82 a 1.35,1.35 0 0 1 -2.1,0.18 m 24.9,-2.23 a 19.3,19.3 0 0 0 -3.85,-1.54 c -2,-0.63 -3.12,-1.19 -3.19,-1.54 -0.07,-0.35 0,-0.56 0.17,-0.56 0.17,0 5.82,1.47 7.39,1.92 0.56,0.21 0.77,0.11 0.77,-0.31 0,-0.77 -1.61,-1.51 -4.2,-1.93 -1.19,-0.21 -2.24,-0.42 -2.31,-0.45 a 7.3,7.3 0 0 1 1.86,-1.16 9.1,9.1 0 0 0 3.19,-2.7 7.8,7.8 0 0 1 1.51,-1.68 8.8,8.8 0 0 1 1.19,2.42 c 0.81,2 0.88,2.52 0.53,3.15 a 3.8,3.8 0 0 0 -0.18,2.17 c 0.38,2.31 -1.05,3.44 -2.88,2.21 m -10.93,-2.94 a 1.5,1.5 0 0 1 -1,-0.63 c -0.07,-0.28 0.45,-0.42 1.82,-0.42 1.37,0 2,0.14 2,0.49 -0.06,0.56 -1.59,0.87 -2.82,0.56"
             id="path17-5" /><path
             d="m 64,105.45 a 12.2,12.2 0 0 1 -4.23,-2.39 20,20 0 0 1 -1.34,-2 25.2,25.2 0 0 0 -6.9,-7.21 A 13.2,13.2 0 0 1 47,89.09 2,2 0 0 0 45.6,88.28 c -1.44,-0.17 -2.45,-1.26 -3.89,-4.06 -1.44,-2.8 -1.36,-3.71 0.84,-5.11 2.6,-1.65 5.4,-2.35 11.14,-2.77 6.1,-0.45 7.95,-0.87 11.35,-2.63 a 18.5,18.5 0 0 1 2.77,-1.26 c 0.14,0 -0.63,0.84 -1.69,1.79 L 64.18,76 65.68,75.79 A 9.13,9.13 0 0 0 72.3,71.13 L 73,70 l 1.44,1.89 c 2.48,3.18 9.28,7.53 12.64,8.09 a 4,4 0 0 1 2,0.87 c 0.56,0.63 0.56,0.77 0,1.9 -0.32,0.66 -0.43,1.22 -0.25,1.22 0.49,0 1.75,-2.14 1.75,-2.91 0,-0.45 0.21,-0.63 0.81,-0.52 0.91,0.14 0.87,0.8 -0.18,3 -0.77,1.61 -2.38,2.87 -3.71,2.87 a 1.13,1.13 0 0 0 -1.12,0.88 12.45,12.45 0 0 1 -5.12,4.94 c -1.92,0.73 -2,1.36 -0.17,1 1.37,-0.21 1.4,-0.21 1.12,0.73 a 24.3,24.3 0 0 1 -3.71,6.73 c -2.21,2.41 -6.9,4.31 -11.74,4.73 A 10.1,10.1 0 0 1 64,105.45 m -1.61,-4.77 c 0.28,-1.43 1,-2.17 3.19,-3 a 7.3,7.3 0 0 1 5.25,0.14 c 0.56,0.21 0.53,0.07 -0.24,-0.74 -0.77,-0.81 -1.23,-1 -2.8,-1 -2,0 -5.26,0.94 -5.89,1.72 a 4.2,4.2 0 0 0 -0.59,1.71 c -0.31,2.29 0.69,3.38 1.08,1.17 m -0.49,-6 a 2.54,2.54 0 0 1 2.8,0 c 1.33,0.6 1.44,0.6 3.75,-0.1 a 12.8,12.8 0 0 1 3.26,-0.67 c 0.56,0 0.91,-0.14 1,-0.56 0.09,-0.42 -0.07,-0.59 -1.75,-0.38 a 23,23 0 0 0 -3.26,0.7 c -1.26,0.42 -1.54,0.38 -2.91,-0.28 -1.37,-0.66 -1.61,-0.7 -2.73,-0.14 a 6,6 0 0 1 -2,0.56 c -1,0 -1.89,0.87 -1.19,1.15 0.7,0.28 1.6,0.26 3.03,-0.3 z m 5.33,-2.31 a 14,14 0 0 0 1.64,-2.1 5.4,5.4 0 0 1 1.44,-1.69 0.33,0.33 0 0 0 0.35,-0.35 c 0,-0.84 -1.58,-0.24 -2.77,1.05 a 5.4,5.4 0 0 1 -1.65,1.41 c -0.91,0 -1.36,-1.23 -1.36,-3.65 A 8.1,8.1 0 0 0 64.11,83.12 L 63.34,81.65 64,81 a 4.46,4.46 0 0 0 1.5,-2.66 c 0.32,-1.33 -0.45,-1.3 -1.36,0.1 -0.91,1.4 -1.68,1.68 -5.43,1.16 a 50,50 0 0 0 -5.29,-0.46 c -1.68,0 -2.07,0.11 -2.87,1 l -0.91,0.94 3.75,0.07 a 48,48 0 0 1 6.2,0.53 c 2.1,0.38 2.48,0.59 3,1.51 a 8.9,8.9 0 0 1 0.84,2.62 3.15,3.15 0 0 1 -0.67,2.91 C 62,89.86 62,90 62.53,90.21 a 9.2,9.2 0 0 1 1.93,1.4 c 1.4,1.26 1.92,1.39 2.77,0.74 z m -22.14,-7.1 a 1.7,1.7 0 0 0 -0.49,-1 6.8,6.8 0 0 1 -1.05,-1.79 c -0.53,-1.3 -1.09,-1.61 -1.37,-0.81 -0.28,0.8 0.46,2.11 1.61,3.12 1.34,1.11 1.3,1.11 1.3,0.48 M 80.67,84.75 A 13.6,13.6 0 0 0 82.74,83 c 0.67,-0.77 0.67,-0.77 -1.12,0.14 -2.42,1.19 -6.2,1.3 -7.39,0.21 -1.19,-1.09 -1,-1.16 0.77,-0.91 1.77,0.25 5.67,-0.56 6.76,-1.4 0.53,-0.39 0.18,-0.42 -2.35,-0.25 C 76.05,81 71.25,80.44 70.1,79.67 a 2.5,2.5 0 0 1 -0.95,-1.54 c -0.31,-1.47 -0.94,-1.36 -0.94,0.11 a 4.37,4.37 0 0 0 3,3.71 c 0.77,0.24 1.23,0.63 1.3,1.16 0.1,0.77 0.8,1.22 3.43,2.1 2.28,0.79 3.19,0.66 4.73,-0.46 M 57.35,84.89 A 9.5,9.5 0 0 1 60,84.12 c 1.54,-0.21 2.17,-0.77 1,-0.84 -3.12,-0.18 -8.9,-0.11 -9.67,0.17 -1.23,0.39 -0.6,1 0.8,0.7 a 2.76,2.76 0 0 1 1.93,0.56 2.69,2.69 0 0 0 3.29,0.18 M 27.05,55.05 a 76,76 0 0 1 -8.93,-1.54 40.3,40.3 0 0 1 0.77,-7.89 c 0.21,-0.21 20.56,5 20.91,5.33 0.18,0.14 -0.52,3.19 -1,4.62 -0.43,1.02 -0.89,0.98 -11.75,-0.52 m -3.67,-3.68 a 1.55,1.55 0 0 0 0,-1.93 c -1.06,-1.85 -3.16,-1.33 -3.16,0.81 0,2.14 2.1,2.97 3.16,1.12 m 65.95,-2.45 a 11.6,11.6 0 0 1 -1.58,-3.47 c 0.42,-0.39 22.55,-6.69 22.76,-6.48 a 16.7,16.7 0 0 1 -0.14,3.57 l -0.31,3.4 -8.93,3.06 c -4.91,1.72 -9.14,3.12 -9.46,3.12 -0.32,0 -1.29,-1.31 -2.34,-3.2 m 19.92,-5.78 c 1.19,-1.09 0.39,-2.87 -1.08,-2.38 a 1.53,1.53 0 0 0 -0.56,2.52 c 0.84,0.56 0.87,0.56 1.64,-0.14 m -80.62,3.22 -4.38,-1.12 0.11,-1 a 13,13 0 0 1 0.84,-2.66 l 0.7,-1.64 -1.26,-2.53 A 13.7,13.7 0 0 1 23.38,34.3 c 0,-0.74 12.85,-8.86 14.92,-9.42 a 6.6,6.6 0 0 0 2.2,-1.2 c 1.33,-1.22 9.35,-5.28 10,-5 1.08,0.46 0.56,2 -1.4,4.13 a 40.9,40.9 0 0 0 -6.06,8.9 15.23,15.23 0 0 1 -5.36,5.74 2.65,2.65 0 0 0 -1.54,2.07 4.9,4.9 0 0 1 -0.74,1.86 12,12 0 0 0 -1.22,3.15 15,15 0 0 1 -1,2.8 22.5,22.5 0 0 1 -4.55,-0.97 m 64.13,-6.62 c -0.39,-1.05 -0.81,-2.35 -1,-2.84 a 2,2 0 0 0 -1,-1.22 4.4,4.4 0 0 1 -1.51,-1.51 c -0.63,-1.08 -1,-1.29 -3.29,-1.78 a 15.9,15.9 0 0 1 -5.92,-2.84 c -3,-2 -3.75,-2.31 -6.45,-2.84 -3,-0.59 -3.78,-1.08 -3,-2 0.49,-0.59 7.57,-1.44 9.53,-1.12 1.33,0.21 1.68,0.1 3.43,-1.09 1.75,-1.19 1.89,-1.33 1,-1.43 a 4.3,4.3 0 0 0 -2,0.42 c -1.68,0.87 -2.35,0.7 -3.75,-1.05 -0.94,-1.12 -8.51,-8.06 -9.14,-8.34 0,0 -0.1,-0.35 -0.17,-0.7 -0.18,-1.12 0.52,-1 2.87,0.49 5.67,3.5 10.47,6.31 10.86,6.31 0.39,0 0.21,-0.35 -0.25,-1 C 82.29,16 75.18,8 73.32,6.33 71.25,4.4 71.88,2.83 74.16,4.19 c 1.65,1 9.46,6.9 10.75,8.13 1.58,1.47 2.24,0.87 0.74,-0.7 A 67,67 0 0 0 76,4 C 74.07,3 73.48,1.9 74.57,1.55 c 1.09,-0.35 10.78,5.11 13.27,7.6 1.12,1.12 1.33,2 0.63,2.7 -0.39,0.38 -0.25,0.45 0.67,0.28 a 2,2 0 0 1 2,0.49 c 0.49,0.35 1,0.52 1.08,0.35 0.32,-0.49 -0.7,-3.89 -2.2,-7.36 A 14,14 0 0 1 88.73,2 c 0.32,-0.53 1.4,-0.35 1.93,0.32 A 74,74 0 0 1 96.22,12 c 2.39,5.29 3.51,11.94 2.63,15.41 -0.45,1.68 -0.42,1.78 1,5.25 1.61,3.78 2.45,6.1 2.24,6.31 0,0 -1.82,0.63 -4,1.22 l -4.27,1.3 c -0.21,0.1 -0.7,-0.67 -1.12,-1.79 z M 20.43,27 c -3,-9.18 -3.88,-13.07 -3,-13.07 0.59,0 0.73,0.25 4.06,6.31 2.63,4.8 3.57,6.2 3.08,4.55 -0.8,-2.66 -0.66,-3.15 2,-7.35 1.75,-2.7 2.84,-4.07 3.33,-4.14 0.49,-0.07 1.09,0.39 2.1,1.75 a 51,51 0 0 0 4,4.34 13.7,13.7 0 0 1 2.49,2.87 c 0,0.25 -0.32,0.6 -0.74,0.81 -0.91,0.52 -3.12,-0.53 -5.36,-2.49 -0.87,-0.77 -1.75,-1.33 -1.92,-1.19 -0.57,0.32 -0.88,2.63 -0.43,3.08 0.22,0.21 0.39,0.25 0.39,0.07 a 1.9,1.9 0 0 1 0.32,-0.84 c 0.24,-0.35 0.77,-0.14 2.48,1 1.19,0.8 2,1.61 1.86,1.75 -0.14,0.14 -12.72,7.36 -12.93,7.36 0,0 -0.8,-2.18 -1.68,-4.8 z M 38.16,20.27 A 7.9,7.9 0 0 1 36.68,18.1 c 0,-0.56 2.28,-2.14 2.84,-2 0.56,0.14 2,4.31 1.75,4.77 a 2.8,2.8 0 0 1 -0.94,0.7 c -0.63,0.34 -0.88,0.17 -2.17,-1.3 m -4.03,-4.8 c -0.53,-0.74 -0.81,-1.4 -0.67,-1.54 a 23,23 0 0 1 2.35,-1 C 37,12.46 39.28,11.37 41,10.5 c 3,-1.62 3.67,-1.72 3.29,-0.46 -0.25,0.74 -4.87,4.76 -6.87,6 -1.72,1.01 -2.24,0.96 -3.29,-0.57"
             id="path18-9" /></g><g
           fill="#96918a"
           data-name="layer106"
           id="g20-2"
           style="display:inline"><path
             d="m 54.27,113 a 3.37,3.37 0 0 1 -0.42,-1.89 8.3,8.3 0 0 0 -0.32,-2.35 c -0.24,-0.66 -0.14,-1 0.6,-2 a 4,4 0 0 0 0.94,-3 10.7,10.7 0 0 1 0.56,-3 l 0.56,-1.22 1.3,2 c 1.19,1.89 4.34,4.45 5.46,4.45 a 0.37,0.37 0 0 1 0.35,0.35 c 0,0.21 -0.38,0.35 -0.87,0.35 -1.44,0 -4.38,0.73 -4.21,1 a 13.5,13.5 0 0 0 4,0.14 l 3.75,-0.14 -1.82,0.66 a 33.6,33.6 0 0 0 -7.64,4.1 c -1,1 -1.57,1 -2.2,0.42 z m 25,-2.2 a 22.5,22.5 0 0 0 -3.92,-1.57 c -2.21,-0.74 -3.29,-1.3 -3.29,-1.65 0,-0.59 0.63,-0.49 5.22,0.84 a 14.6,14.6 0 0 0 3.11,0.67 c 0.35,-0.39 -0.31,-1.3 -1.15,-1.61 a 21.5,21.5 0 0 0 -3.19,-0.74 l -2.35,-0.42 2,-1 a 11.1,11.1 0 0 0 3.3,-2.78 8.3,8.3 0 0 1 1.54,-1.72 10.5,10.5 0 0 1 1.16,2.42 c 0.81,2 0.88,2.52 0.53,3.15 a 3.74,3.74 0 0 0 -0.18,2.14 c 0.18,1.08 0.11,1.47 -0.49,2.06 -0.85,0.84 -1.38,0.91 -2.29,0.21"
             id="path19-6" /><path
             d="m 63.55,105.24 a 8.44,8.44 0 0 1 -4.77,-3.79 c -1.12,-2.27 -4.62,-6 -7.42,-7.81 A 11.5,11.5 0 0 1 47.68,90.1 c -0.91,-1.4 -1.43,-1.89 -2,-1.89 -1.33,0 -2.56,-1.26 -3.92,-4.06 -1.19,-2.35 -1.26,-2.7 -0.84,-3.47 0.59,-1.12 5.39,-3.57 7.42,-3.81 0.84,-0.11 3.68,-0.35 6.34,-0.56 5.4,-0.46 7.46,-1 10.58,-2.6 3.12,-1.6 3,-1.5 0.87,0.46 -1.74,1.58 -1.85,1.75 -1.13,1.83 2.52,0 6.06,-2.28 7.35,-4.8 l 0.65,-1.3 0.74,1.19 c 2.21,3.57 10.65,9.07 13.9,9.07 a 1.85,1.85 0 0 1 1.44,0.87 c 0.49,0.77 0.49,0.91 0,1.65 A 2.76,2.76 0 0 0 88.52,84 c 0,0.91 2.1,-1.68 2.1,-2.63 0,-0.63 0.18,-0.87 0.7,-0.87 1,0 0.88,1.22 -0.35,3.43 -0.94,1.61 -1.26,1.89 -2.66,2.24 a 2.78,2.78 0 0 0 -2.24,1.72 12.1,12.1 0 0 1 -5.19,4.55 c -1.19,0.53 -1.5,0.77 -1.12,1 a 1.83,1.83 0 0 0 1.3,0 c 1.16,-0.42 1.16,-0.42 1.16,0.42 0,1.19 -2.53,5.64 -4.07,7.22 -1.82,1.78 -3.5,2.69 -6.86,3.57 -3.68,0.97 -6.17,1.18 -7.74,0.59 m -1,-4.73 c 0.49,-1.61 0.81,-1.89 3,-2.73 a 6.26,6.26 0 0 1 5,0 c 1.3,0.42 0.6,-0.7 -0.84,-1.37 -1.29,-0.63 -3,-0.52 -5.78,0.25 a 3.19,3.19 0 0 0 -2.62,2.84 c -0.39,2.5 0.56,3.21 1.22,1.01 z M 62,94.69 c 1.19,-0.49 1.4,-0.49 2.38,0 1.44,0.7 2.17,0.67 4.38,-0.17 a 5.65,5.65 0 0 1 2.94,-0.46 c 1,0.18 1.05,0.14 1,-0.63 -0.07,-0.52 -0.32,-0.8 -0.63,-0.73 -0.31,0.07 -1.47,0.28 -2.63,0.45 a 10,10 0 0 0 -2.48,0.7 C 66.64,94.1 66.08,93.99 65.1,93.5 63.42,92.63 63,92.59 61.7,93.29 a 5.1,5.1 0 0 1 -1.75,0.53 c -0.95,0 -1.79,0.91 -1.12,1.15 A 4.26,4.26 0 0 0 62,94.69 m 5.12,-2.27 a 6.3,6.3 0 0 0 1.54,-1.89 4.24,4.24 0 0 1 1.61,-1.79 c 0.38,-0.14 0.63,-0.39 0.52,-0.56 -0.45,-0.7 -1.68,-0.25 -3,1.08 a 7.8,7.8 0 0 1 -1.68,1.41 c -0.81,0 -1.26,-1.3 -1.26,-3.82 a 9.3,9.3 0 0 0 -0.7,-4 c -0.63,-1.33 -0.63,-1.33 0.1,-2.1 a 6.5,6.5 0 0 0 1.47,-3.12 c 0,-0.66 -0.91,-0.28 -1.57,0.74 -1,1.47 -1.86,1.64 -5.54,1.15 -1.78,-0.21 -4.09,-0.42 -5.18,-0.42 -1.72,0 -2,0.07 -3,1 l -1,1.09 2.1,-0.25 c 2.14,-0.21 9.18,0.6 10.37,1.26 0.63,0.32 1.15,1.69 1.54,3.86 a 2.29,2.29 0 0 1 -0.67,2.31 c -1.05,1.22 -1.15,1.86 -0.35,1.86 a 5,5 0 0 1 1.93,1.22 c 1.51,1.42 1.79,1.49 2.81,0.97 z M 44.49,83.91 a 8,8 0 0 1 -1.08,-1.72 c -0.46,-1.09 -0.95,-1.26 -1.26,-0.46 -0.31,0.8 0.14,1.65 1.5,2.88 1,0.84 1.3,1 1.37,0.56 a 1.78,1.78 0 0 0 -0.53,-1.26 m 37.1,0.1 1.85,-1.75 -1.93,0.88 c -2.55,1.15 -6.12,1.22 -7.28,0.17 a 3.8,3.8 0 0 1 -0.77,-0.91 4.8,4.8 0 0 1 1.72,0.07 9.7,9.7 0 0 0 4.37,-0.56 12.8,12.8 0 0 0 2.88,-1.12 c 0.1,-0.18 -1.13,-0.21 -2.91,-0.07 a 31.5,31.5 0 0 1 -9,-0.77 4.2,4.2 0 0 1 -1.4,-1.82 l -0.73,-1.65 -0.14,1.37 c -0.14,1.71 0.66,2.94 2.66,3.88 0.8,0.39 1.43,1 1.47,1.27 0,0.8 0.59,1.22 2.8,2 3.36,1.15 4.27,1 6.41,-1 z m -23.51,0.7 a 7.9,7.9 0 0 1 2.53,-0.7 c 0.91,0 1.36,-0.66 0.52,-0.73 a 76,76 0 0 0 -10,0.1 c -1.08,0.39 -0.59,1.09 0.56,0.84 a 2.7,2.7 0 0 1 2,0.46 c 1.31,0.87 2.54,0.91 4.39,0.03 M 27.47,55 l -9,-1.26 v -1 a 46.6,46.6 0 0 1 0.84,-7.11 37,37 0 0 1 5.36,1.23 c 2.84,0.77 7.5,2 10.37,2.69 4,1.05 5.15,1.47 5.15,1.93 a 14.3,14.3 0 0 1 -0.74,2.73 C 38.54,56.8 39.73,56.69 27.47,55 M 23.2,51.79 c 0.53,-0.6 0.6,-0.95 0.32,-2 -0.28,-1.05 -0.46,-1.3 -1.41,-1.4 -1.29,-0.14 -2,0.59 -2,2 0.01,1.99 1.83,2.8 3.09,1.4 M 89.33,48.88 C 88.1,46.71 87.64,45.59 87.92,45.45 88.76,45 110.3,38.8 110.48,39 a 18.3,18.3 0 0 1 -0.14,3.57 l -0.28,3.36 -8.93,3.07 c -4.91,1.7 -9.13,3.1 -9.46,3.1 -0.33,0 -1.29,-1.36 -2.34,-3.22 m 19.92,-5.74 c 1.33,-1.19 0.32,-3 -1.29,-2.28 a 1.54,1.54 0 0 0 -0.46,2.45 c 0.56,0.56 0.98,0.53 1.75,-0.17 m -81.32,3.08 c -3.68,-0.95 -3.68,-1 -3.57,-2 a 13,13 0 0 1 0.84,-2.69 l 0.73,-1.72 -1.33,-2.7 A 11.5,11.5 0 0 1 23.41,34 c 0.25,-0.63 13.34,-8.65 15,-9.11 a 4.7,4.7 0 0 0 2.1,-1.19 17,17 0 0 1 3.74,-2.21 c 1.76,-0.84 3.72,-1.89 4.45,-2.31 a 3.1,3.1 0 0 1 1.82,-0.56 c 1.09,0.42 0.63,1.89 -1.33,4 a 55,55 0 0 0 -6.62,9.74 11.83,11.83 0 0 1 -4.69,4.83 3.11,3.11 0 0 0 -1.68,2.07 8.6,8.6 0 0 1 -0.88,2.21 17,17 0 0 0 -1.32,3.42 c -0.75,2.8 -0.57,2.77 -6.07,1.33 m 65.53,-5.08 a 22,22 0 0 1 -1.12,-2.8 c -0.53,-1.58 -1,-2.49 -1.47,-2.59 -0.47,-0.1 -1,-0.77 -1.3,-1.51 -0.63,-1.19 -0.88,-1.36 -2.7,-1.71 a 17.4,17.4 0 0 1 -7.39,-3.44 11.8,11.8 0 0 0 -5.74,-2.38 c -3.22,-0.66 -4.06,-1.26 -2.94,-2.06 0.77,-0.56 7.81,-1.34 9.45,-1.06 1.12,0.21 1.55,0.07 3.3,-1.08 1.75,-1.15 1.89,-1.37 1.19,-1.47 a 7.6,7.6 0 0 0 -2.56,0.49 l -1.75,0.63 -1.89,-2.1 a 72,72 0 0 0 -5.4,-5.19 c -2.24,-1.92 -3.53,-3.29 -3.53,-3.74 0,-0.63 0.07,-0.63 1.19,-0.18 a 30,30 0 0 1 3.43,2 c 3.19,2.17 8.41,5.22 8.93,5.22 a 0.44,0.44 0 0 0 0.46,-0.35 c 0,-0.42 -4.66,-5.71 -8.83,-10 A 14.7,14.7 0 0 1 72.06,4.39 c 0,-0.74 1.15,-0.74 2.38,0 1.75,1.12 10.4,7.71 10.89,8.27 0.49,0.56 1.44,0.8 1.44,0.31 C 86.77,12.1 79.31,5.83 76.3,4.15 74.44,3.1 73.81,2.26 74.41,1.66 c 0.6,-0.6 9.77,4.31 13,7.21 1.33,1.2 1.93,2.63 1.09,2.63 a 0.38,0.38 0 0 0 -0.35,0.35 c 0,0.21 0.59,0.35 1.37,0.35 a 2.48,2.48 0 0 1 1.78,0.53 c 0.81,0.94 1.12,0 0.67,-1.79 A 40,40 0 0 0 90.2,6.12 C 88.8,2.83 88.59,1.7 89.33,1.7 c 0.74,0 1.57,0.85 3.57,4.21 a 45.6,45.6 0 0 1 5.36,12.33 c 0.84,3.39 1,8 0.45,9.84 A 2.68,2.68 0 0 0 99,30.67 c 1,2 3.36,8.13 3.18,8.27 -0.18,0.14 -2,0.7 -4.27,1.36 -2.91,0.84 -4.24,1.12 -4.45,0.84 M 20.22,26.33 c -4.41,-13.84 -3.88,-16.11 1.33,-5.89 1.9,3.68 3,5.5 3.3,5.22 0.14,-0.1 0,-0.91 -0.35,-1.79 -0.6,-1.57 -0.6,-1.57 0.42,-3.36 2.31,-4.17 4.48,-7.25 5.11,-7.25 a 2.56,2.56 0 0 1 1.44,1.16 57,57 0 0 0 3.92,4.34 c 1.71,1.79 3,3.43 3,3.64 a 1.42,1.42 0 0 1 -0.88,0.7 c -0.91,0.32 -2.77,-0.59 -5.08,-2.52 a 11.8,11.8 0 0 0 -1.85,-1.36 c -0.39,0 -1.23,2.41 -1,2.94 0.31,0.77 0.88,0.7 1.09,-0.14 0.1,-0.39 0.24,-0.7 0.35,-0.7 0.52,0 4.3,2.91 4.06,3.12 -0.24,0.21 -9.28,5.35 -12.79,7.28 a 29.5,29.5 0 0 1 -2.07,-5.39 m 17.97,-6.06 a 8.3,8.3 0 0 1 -1.51,-2 c 0,-0.49 2,-2.18 2.63,-2.18 0.63,0 2,3.65 1.86,4.49 a 1.94,1.94 0 0 1 -0.81,0.94 c -0.63,0.39 -0.84,0.29 -2.17,-1.25 m -3.96,-4.7 A 5,5 0 0 1 33.43,14.14 9,9 0 0 1 35.88,13 c 1.29,-0.53 3.68,-1.65 5.25,-2.49 4.52,-2.38 4.45,-1.19 -0.14,2.77 -2.87,2.45 -4.55,3.54 -5.43,3.54 -0.24,-0.05 -0.84,-0.58 -1.33,-1.25"
             id="path20-5" /></g><g
           fill="#bfbebe"
           data-name="layer107"
           id="g22-6-3"
           style="display:inline"><path
             d="m 54.48,113.05 c -0.46,-0.25 -0.63,-0.81 -0.67,-2 a 9.1,9.1 0 0 0 -0.28,-2.35 c -0.21,-0.49 0,-1 0.63,-1.82 a 4.34,4.34 0 0 0 1,-3 9.4,9.4 0 0 1 0.52,-3 l 0.53,-1.19 1.29,2 a 9.45,9.45 0 0 0 4.49,4 c 1.61,0.74 1.75,1.16 0.35,1.16 -1.58,0 -4.59,0.77 -4.38,1.12 a 13.6,13.6 0 0 0 3.92,0.1 c 3,-0.14 3.57,-0.1 2.87,0.21 -5.11,2.35 -7.32,3.5 -8.16,4.31 -1.13,0.95 -1.24,0.98 -2.11,0.46 m 24.93,-2.25 a 38,38 0 0 0 -4.09,-1.57 c -2.07,-0.7 -3.26,-1.3 -3.26,-1.61 0,-0.31 0,-0.49 0.1,-0.49 0.1,0 1.86,0.49 4.07,1.05 a 20,20 0 0 0 4.16,0.87 c 0.35,-0.35 -0.31,-1.26 -1.22,-1.61 a 23,23 0 0 0 -3.22,-0.77 l -2.25,-0.35 2,-1 a 9.1,9.1 0 0 0 3.3,-2.75 7.9,7.9 0 0 1 1.57,-1.71 8.9,8.9 0 0 1 1.16,2.38 c 0.77,2 0.84,2.59 0.53,3.22 a 3.6,3.6 0 0 0 -0.21,2.1 c 0.17,1.09 0.07,1.51 -0.5,2.07 -0.88,0.84 -0.98,0.84 -2.14,0.17 M 67.4,107.58 c -0.6,-0.56 -0.1,-0.8 1.68,-0.8 1.47,0 1.93,0.1 1.93,0.52 0,0.42 -0.42,0.53 -1.68,0.53 a 4.7,4.7 0 0 1 -1.93,-0.25"
             id="path21-2" /><path
             d="M 61.69,104.32 A 6.63,6.63 0 0 1 58.82,101.45 26.2,26.2 0 0 0 51.36,93.61 12.8,12.8 0 0 1 47.58,90 c -0.81,-1.29 -1.3,-1.75 -1.93,-1.75 -1.3,0 -2.52,-1.22 -3.85,-3.92 a 16.5,16.5 0 0 1 -1.26,-2.87 c 0,-0.74 1.85,-2.24 3.85,-3.15 2.45,-1.12 4.27,-1.47 10.16,-2 5.57,-0.42 7.32,-0.84 10.85,-2.6 l 2.6,-1.29 -1.9,1.75 c -1.71,1.54 -1.82,1.75 -1.1,1.83 2.52,0 6.06,-2.28 7.35,-4.84 l 0.65,-1.3 0.56,1 c 1.69,3.26 10.72,9.25 13.91,9.25 a 2.42,2.42 0 0 1 1.4,0.7 c 0.67,0.66 0.67,0.77 0.18,1.75 -0.6,1.16 -0.67,1.75 -0.22,1.75 0.45,0 1.79,-2.24 1.79,-3.12 0,-0.49 0.21,-0.73 0.7,-0.73 0.84,0 0.88,0.63 0.14,2.38 -0.74,1.75 -2.17,3.22 -3.36,3.22 -0.77,0 -1.16,0.32 -1.89,1.51 a 11,11 0 0 1 -4.84,4.52 c -1.43,0.73 -1.92,1.12 -1.61,1.33 a 1.68,1.68 0 0 0 1.3,0 c 1.12,-0.42 1.16,-0.42 1.16,0.35 0,1.16 -2.46,5.57 -4,7.15 -2.63,2.66 -7.5,4.45 -12.33,4.45 a 6.6,6.6 0 0 1 -4.2,-1.05 m 0.91,-3.92 c 0.7,-2 2.8,-3.15 5.61,-3 a 14.7,14.7 0 0 1 2.55,0.43 c 1,0.45 0.67,-0.5 -0.52,-1.23 -1.4,-0.84 -2.91,-0.88 -5.61,-0.14 -2.45,0.7 -3.43,1.75 -3.43,3.64 0,2.26 0.7,2.4 1.4,0.3 M 62,94.69 c 1.19,-0.49 1.4,-0.49 2.38,0 a 4.15,4.15 0 0 0 4,0 8.8,8.8 0 0 1 2.87,-0.56 c 1.36,0 1.5,0 1.4,-0.74 -0.07,-0.45 -0.32,-0.73 -0.63,-0.63 -0.31,0.1 -1.16,0.18 -1.93,0.28 A 16.6,16.6 0 0 0 67.4,93.57 2.74,2.74 0 0 1 65,93.33 c -1.51,-0.7 -2.1,-0.7 -3.4,0 a 2.44,2.44 0 0 1 -1.47,0.35 c -0.59,-0.21 -1.82,0.74 -1.51,1.19 0.31,0.45 2,0.46 3.47,-0.14 z m 6.52,-3.81 a 11.8,11.8 0 0 1 2,-2.25 c 0.45,-0.28 0.49,-0.35 0,-0.73 -0.67,-0.56 -1.54,-0.11 -2.77,1.36 -1,1.09 -2.1,1.37 -2.59,0.63 a 11.9,11.9 0 0 1 -0.28,-3.08 9.6,9.6 0 0 0 -0.67,-3.88 c -0.63,-1.27 -0.63,-1.27 0.25,-2.21 0.88,-0.94 1.54,-2.72 1.08,-3.4 -0.14,-0.24 -0.7,0.14 -1.5,1.12 l -1.3,1.47 -4.2,-0.38 c -2.28,-0.25 -4.73,-0.46 -5.43,-0.49 a 4.09,4.09 0 0 0 -3.4,1.85 c -0.31,0.49 -0.14,0.53 1.44,0.25 a 14,14 0 0 1 3.4,-0.07 71,71 0 0 1 7.11,1.08 c 1.57,0.42 2.27,5.4 0.94,6.59 -0.8,0.73 -0.91,1.58 -0.21,1.58 a 5.2,5.2 0 0 1 1.86,1.22 c 1.89,1.72 2.59,1.61 4.31,-0.66 z M 45.2,85.13 a 15,15 0 0 0 -0.81,-1.47 14,14 0 0 1 -0.91,-1.58 c -0.53,-0.94 -1.33,-0.87 -1.47,0.07 -0.07,0.56 0.35,1.27 1.4,2.32 1.51,1.53 2.17,1.78 1.79,0.66 M 81.41,83.9 c 2.42,-2.11 2.52,-2.77 0.18,-1.3 a 7.7,7.7 0 0 1 -3.72,0.91 c -2.27,0.14 -2.62,0.07 -3.5,-0.67 l -1,-0.84 h 2.39 a 16.4,16.4 0 0 0 4.41,-0.66 c 3,-1 2.94,-1.4 -0.18,-1.12 -2.73,0.24 -8.72,-0.32 -9.84,-0.91 A 2.22,2.22 0 0 1 69.36,78 3.07,3.07 0 0 0 68.7,76.56 c -0.42,-0.31 -0.49,-0.14 -0.49,1.16 0,1.85 0.94,3.08 2.94,3.92 0.8,0.35 1.26,0.77 1.26,1.19 0,0.67 0.52,1 3.15,1.93 2.63,0.93 3.96,0.75 5.85,-0.86 m -23.78,1 a 11.6,11.6 0 0 1 2.45,-0.73 c 0.81,-0.14 1.47,-0.39 1.47,-0.56 0,-0.42 0.18,-0.39 -5.08,-0.46 -4.55,-0.07 -6.37,0.18 -5.95,0.84 a 2.5,2.5 0 0 0 1.54,0.35 4.1,4.1 0 0 1 2,0.53 3.58,3.58 0 0 0 3.57,0.05 z M 34,55.85 c -1.54,-0.24 -5.68,-0.8 -9.18,-1.26 l -6.41,-0.84 v -0.88 a 73,73 0 0 1 0.88,-7.32 c 0,0 2.41,0.53 5.29,1.3 L 35,49.55 c 3,0.77 5.15,1.5 5.15,1.75 a 21,21 0 0 1 -0.7,2.73 c -0.84,2.63 -0.56,2.56 -5.45,1.82 m -10.92,-4 c 1.29,-1.19 0.56,-3.6 -1.13,-3.6 -1.69,0 -2.59,2.17 -1.33,3.78 a 1.82,1.82 0 0 0 2.48,-0.14 z m 67.75,-0.48 c -0.24,-0.46 -1.12,-1.89 -1.89,-3.26 -1.26,-2.13 -1.33,-2.49 -0.84,-2.73 1.12,-0.49 22.24,-6.55 22.38,-6.41 a 18.7,18.7 0 0 1 -0.11,3.47 c -0.17,2.62 -0.35,3.39 -0.8,3.57 -1.51,0.63 -17.69,6.13 -17.93,6.13 -0.24,0 -0.53,-0.35 -0.81,-0.77 m 18.53,-8.2 a 1.54,1.54 0 0 0 -0.25,-2.38 c -1.29,-0.8 -2.66,1.23 -1.68,2.45 0.57,0.63 1.23,0.63 1.93,-0.07 M 29.33,46.5 c -1.44,-0.38 -3.19,-0.84 -3.92,-1 L 24.15,45.18 24.6,43.5 c 0.25,-0.91 0.67,-2.13 0.88,-2.69 0.38,-0.95 0.31,-1.3 -0.84,-3.58 a 16.4,16.4 0 0 1 -1.26,-3 c 0,-0.6 12.71,-8.48 15.16,-9.39 a 5,5 0 0 0 2.14,-1.23 c 0.1,-0.31 1.82,-1.29 3.78,-2.24 A 51,51 0 0 0 49,19 c 0.91,-0.59 1,-0.59 1.58,0 0.77,0.74 0.66,0.91 -2.7,5.08 a 49,49 0 0 0 -4,6.06 c -2.06,3.82 -3.81,5.88 -5.91,7 -1.27,0.67 -1.62,1 -1.79,2.07 a 7.3,7.3 0 0 1 -0.81,2.1 20.6,20.6 0 0 0 -1.29,3.33 c -0.9,2.84 -0.93,2.84 -4.75,1.86 m 63.6,-6.69 c -0.31,-0.84 -0.77,-2.14 -1,-2.91 -0.23,-0.77 -0.74,-1.43 -1.19,-1.5 A 2.34,2.34 0 0 1 89.48,34.1 C 88.95,33.02 88.7,32.88 86.25,32.35 a 16.2,16.2 0 0 1 -6.06,-2.84 c -2.8,-1.82 -3.88,-2.31 -6,-2.76 -1.44,-0.32 -2.91,-0.63 -3.22,-0.74 -0.91,-0.28 -0.77,-1.15 0.24,-1.54 a 38,38 0 0 1 9.14,-0.84 c 0.91,0.17 1.55,0 3.09,-0.95 a 7.6,7.6 0 0 0 2,-1.47 c 0,-0.42 -2.35,-0.1 -3.75,0.49 l -1.12,0.46 -2.24,-2.45 A 74,74 0 0 0 72.86,14.52 16.4,16.4 0 0 1 69.68,11.3 c 0,-0.84 1.15,-0.52 3.15,0.81 1,0.7 3.71,2.34 5.92,3.67 5.67,3.37 6.23,3.23 2.8,-0.77 -1.16,-1.36 -3.78,-4.2 -5.78,-6.3 -3.71,-3.89 -4.31,-4.9 -2.84,-4.9 0.74,0 12.09,8.12 12.65,9.07 0.31,0.49 1.26,0.49 1.26,0 0,-0.87 -7.29,-7 -10.61,-8.89 C 74.44,2.99 73.91,2.2 74.51,1.6 75.11,1 85.54,6.82 88,9.38 c 0.88,0.94 1,1.19 0.6,1.78 -0.6,1 -0.56,1.05 0.74,1.05 a 3.8,3.8 0 0 1 1.92,0.56 c 0.46,0.32 0.91,0.49 1,0.39 0.35,-0.39 -0.63,-4 -2,-7.15 C 88.75,2.55 88.58,1.7 89.32,1.7 c 0.74,0 1.5,0.85 3.6,4.38 a 42.8,42.8 0 0 1 5.26,12 c 0.87,3.43 0.91,4.55 0.45,11 a 24,24 0 0 0 1.75,5.22 19.2,19.2 0 0 1 1.54,4.59 52,52 0 0 1 -7.92,2.39 c -0.3,0 -0.75,-0.63 -1.07,-1.47 M 21.87,31.23 C 21.52,30.67 18.12,19.29 17.6,16.98 c -0.67,-2.81 -0.32,-3.65 0.84,-2 0.38,0.56 1.85,3.16 3.22,5.71 1.37,2.55 2.63,4.84 2.8,5 0.6,0.67 0.7,-0.1 0.18,-1.36 a 6.7,6.7 0 0 1 -0.56,-1.9 74,74 0 0 1 5.35,-9 c 0.46,-0.42 1.65,0.38 2.56,1.75 a 34,34 0 0 0 3.75,4.17 c 1.5,1.47 2.7,2.9 2.63,3.15 -0.46,1.36 -3.47,0.35 -6.31,-2.17 -1.68,-1.44 -1.68,-1.44 -2,-0.63 -0.63,1.71 -0.7,2.2 -0.42,2.69 0.28,0.49 1.09,0.21 1.09,-0.52 0,-0.28 0.07,-0.49 0.18,-0.49 a 23.7,23.7 0 0 1 4,2.91 c 0.07,0.31 -12,7.25 -12.58,7.25 A 0.55,0.55 0 0 1 21.87,31.23 M 38.12,20.06 a 9.6,9.6 0 0 1 -1.44,-1.93 7.1,7.1 0 0 1 2.7,-2.07 c 0.6,0 2,4.24 1.61,4.87 -0.63,1.07 -1.4,0.77 -2.87,-0.87 M 34.3,15.57 c -0.45,-0.66 -0.73,-1.36 -0.63,-1.54 a 6.7,6.7 0 0 1 1.86,-0.94 c 0.91,-0.35 3.19,-1.4 5,-2.31 A 36,36 0 0 1 44.1,9.06 c 1.79,0 -5.74,6.93 -8.19,7.53 C 35.28,16.73 35,16.55 34.3,15.57"
             id="path22-4" /></g><path
           fill="#f4e4cc"
           d="m 54.69,113.15 a 3.2,3.2 0 0 1 -0.6,-1.82 22,22 0 0 0 -0.42,-2.52 c -0.21,-0.77 0,-1.19 0.7,-2.1 a 2.28,2.28 0 0 0 0.74,-2.18 6.55,6.55 0 0 1 0.35,-2.8 l 0.59,-1.75 0.74,1 c 2.06,2.69 3.22,3.78 4.8,4.59 l 1.75,0.84 -1.16,0.24 c -5.67,1.09 -5.81,1.72 -0.35,1.44 3.43,-0.21 3.64,-0.18 2.52,0.28 -3.46,1.36 -6.62,3 -7.67,4 -1.22,1.19 -1.4,1.26 -2,0.84 z m 24.37,-2.59 A 39,39 0 0 0 75,109 c -1.62,-0.52 -2.91,-1.15 -2.91,-1.36 0,-0.49 2.91,0.07 6.41,1.26 1.92,0.63 2,0.63 2,0 0,-1 -0.91,-1.5 -3.78,-2.13 l -2.7,-0.6 1.69,-0.8 A 12.7,12.7 0 0 0 79,102.71 l 1.61,-1.85 0.77,1.92 a 8.4,8.4 0 0 1 0.64,4.73 15.6,15.6 0 0 1 -0.32,3.12 c -0.36,0.59 -1.48,0.56 -2.64,-0.07 m -11.31,-2.94 c -0.59,-0.63 -0.14,-0.88 1.44,-0.77 0.91,0.07 1.64,0.28 1.64,0.45 0,0.42 -2.69,0.7 -3.08,0.32 m -5.32,-2.98 a 7.75,7.75 0 0 1 -3.72,-3.57 31.2,31.2 0 0 0 -7.18,-7.46 12.75,12.75 0 0 1 -4.34,-4.49 C 46.98,88.53 46.53,88.25 45.48,88.07 43.93,87.83 43.37,87.23 41.8,84.12 40.54,81.63 40.61,80.75 42.11,79.6 a 20.4,20.4 0 0 1 9,-2.94 c 5.74,0 11.24,-1.12 14.6,-3 l 1.58,-0.88 -1.72,1.58 c -1,0.84 -1.68,1.61 -1.57,1.72 A 6.4,6.4 0 0 0 65.89,75.9 9.5,9.5 0 0 0 71.88,72 L 73,70.42 74.3,72.1 c 2.35,3.05 9.35,7.53 12.47,8 2,0.28 2.63,1.12 2.1,2.74 -0.81,2.48 0.56,1.85 1.65,-0.74 0.59,-1.47 1.5,-2.1 1.5,-1 0,1.86 -2.41,5.11 -3.78,5.11 -1.37,0 -1.51,0.25 -2.63,2.17 a 10.42,10.42 0 0 1 -5,4.17 c -0.63,0.21 -1.16,0.53 -1.16,0.7 0,0.56 0.88,0.7 1.86,0.35 1.26,-0.49 1.23,-0.07 -0.28,3 -2.28,4.73 -5.43,7.14 -10.93,8.3 -3.47,0.74 -6,0.67 -7.63,-0.21 z m 0.17,-4.2 c 0.35,-1.23 0.63,-1.54 2.21,-2.28 a 6.2,6.2 0 0 1 5.11,-0.45 c 1.44,0.52 1.79,0.14 0.81,-0.85 -0.67,-0.63 -1.19,-0.77 -3.15,-0.77 -2.67,0 -5.5,0.91 -6.06,2 a 6.1,6.1 0 0 0 -0.14,3.78 c 0.38,0.6 0.84,0.07 1.22,-1.43 M 68,94.87 a 13,13 0 0 1 3.36,-0.7 c 1.51,0 2,-0.53 1.3,-1.26 -0.35,-0.39 -0.77,-0.42 -1.68,-0.14 a 9.4,9.4 0 0 1 -2.35,0.35 2.08,2.08 0 0 0 -1.33,0.35 c -0.31,0.52 -1.51,0.42 -2.45,-0.21 -0.94,-0.63 -1,-0.56 -4.31,0.14 -1.82,0.38 -2.49,0.94 -1.93,1.5 0.39,0.39 1.62,0.32 4.17,-0.21 a 2.93,2.93 0 0 1 2.1,0.32 11,11 0 0 1 1,0.56 l 2.07,-0.7 z m -0.1,-3.19 c 0.45,-0.59 1.33,-1.65 1.92,-2.31 0.59,-0.66 1.05,-1.37 1,-1.54 -0.39,-0.63 -1.23,-0.28 -2.73,1.08 -1.69,1.55 -2,1.65 -2.77,0.88 -0.39,-0.39 -0.49,-1 -0.35,-2.56 a 6.24,6.24 0 0 0 -0.56,-3.71 l -0.74,-1.68 0.88,-1 c 0.87,-1 1.5,-3.29 1,-3.74 -0.11,-0.14 -0.84,0.45 -1.54,1.29 l -1.33,1.54 -3.82,-0.42 c -2.1,-0.21 -4.52,-0.49 -5.39,-0.59 a 2.91,2.91 0 0 0 -2.88,0.91 6,6 0 0 0 -1.33,1.33 7.2,7.2 0 0 0 2.7,0.14 c 2.84,-0.18 8.58,0.49 9.67,1 0.87,0.46 1.64,2.38 1.64,4.17 a 3.55,3.55 0 0 1 -0.91,2.55 c -0.87,1 -0.91,1.09 -0.28,1.23 a 7.1,7.1 0 0 1 2,1.3 c 1.67,1.53 2.76,1.57 3.85,0.13 z M 45.44,85.62 a 3.3,3.3 0 0 0 -0.7,-1.36 7.4,7.4 0 0 1 -1.12,-2 C 43.2,81 42.18,81 42,82.19 c -0.07,0.56 0.35,1.26 1.4,2.31 1.6,1.65 2.04,1.89 2.04,1.12 M 58.75,84.5 c 0.28,0 1.12,-0.21 1.86,-0.31 1,-0.18 1.26,-0.32 1,-0.67 C 61.13,83 52,82.86 51,83.38 c -1,0.52 -0.7,1 0.7,1 a 7,7 0 0 1 2.67,0.7 c 1.26,0.63 1.43,0.63 2.62,0.14 a 17,17 0 0 1 1.76,-0.72 m 23,-0.38 c 2.13,-1.83 2,-2.32 -0.32,-1.12 -2.07,1 -5.6,1.29 -6.79,0.52 -1.19,-0.77 -1.09,-1.09 0.87,-1 1.72,0.14 7,-1.16 7,-1.68 a 28.4,28.4 0 0 0 -5.5,-0.42 28,28 0 0 1 -6.34,-0.56 4.86,4.86 0 0 1 -1.4,-1.72 c -0.74,-1.57 -1.33,-1.5 -1.23,0.14 a 3.92,3.92 0 0 0 2.59,3.57 2.8,2.8 0 0 1 1.68,1.51 c 0.25,0.7 0.77,1.05 2.39,1.61 a 15.5,15.5 0 0 0 3.57,0.74 c 1.42,0.05 1.81,-0.16 3.53,-1.59 z M 27.68,55 C 22.6,54.26 18.4,53.6 18.26,53.49 a 24,24 0 0 1 0.21,-4.13 c 0.39,-3.29 0.53,-3.86 1,-3.72 0.31,0.11 4.9,1.3 10.19,2.7 5.29,1.4 9.77,2.63 9.91,2.77 0.14,0.14 0,1.36 -0.45,2.77 -0.67,2.1 -0.88,2.48 -1.51,2.45 -0.4,-0.06 -4.88,-0.65 -9.93,-1.33 m -4.3,-3.16 c 0.91,-1.78 -0.28,-4.16 -1.86,-3.71 a 2.22,2.22 0 0 0 -1.09,3.61 c 0.7,0.96 2.42,1.03 2.95,0.08 z M 89.57,49 a 14.2,14.2 0 0 1 -1.65,-3.33 c 0.21,-0.24 22.45,-6.79 22.56,-6.65 a 27.6,27.6 0 0 1 -0.74,6.65 c -0.31,0.39 -17.37,6.52 -18.14,6.52 A 20.6,20.6 0 0 1 89.57,49 m 19.93,-5.71 a 2.22,2.22 0 0 0 0.31,-1.5 c -0.14,-1.3 -1.68,-1.58 -2.48,-0.42 -1.12,1.52 0.98,3.34 2.17,1.87 z m -80.98,2.9 a 38,38 0 0 1 -4,-1.16 c -0.21,-0.25 0.28,-2.24 1,-4 0.42,-1 0.35,-1.33 -0.87,-3.93 a 11,11 0 0 1 -1.09,-3.18 c 0.42,-0.67 13.76,-8.65 15.13,-9.07 a 4,4 0 0 0 1.93,-1.06 22.4,22.4 0 0 1 4.31,-2.62 C 47.05,20.09 49,19 49.36,18.8 a 0.75,0.75 0 0 1 1.12,0 c 0.88,0.74 0.67,1.3 -1.15,3.33 A 48.7,48.7 0 0 0 43,31.48 11.4,11.4 0 0 1 39.11,36.13 c -1.22,0.91 -2.45,1.82 -2.66,2 A 2,2 0 0 0 36,39.5 a 2.12,2.12 0 0 1 -0.52,1.43 11.9,11.9 0 0 0 -1.4,3.36 c -0.49,1.65 -1.09,3 -1.33,2.91 -0.24,-0.09 -2.14,-0.45 -4.21,-1 z M 92.51,38.44 C 91.78,36.38 91.29,35.5 90.73,35.29 A 3.2,3.2 0 0 1 89.4,34 c -0.53,-1.05 -1,-1.29 -4.66,-2.1 a 18.3,18.3 0 0 1 -4.63,-2.45 14,14 0 0 0 -6.37,-2.87 32,32 0 0 1 -3.36,-0.84 c -0.11,-0.07 -0.07,-0.35 0,-0.63 0.28,-0.7 1.54,-0.95 6.9,-1.2 4.59,-0.21 4.77,-0.24 6.55,-1.4 1,-0.66 1.79,-1.36 1.65,-1.54 -0.25,-0.42 -2,-0.1 -3.4,0.63 -1.4,0.73 -2,0.39 -3.22,-1.33 a 53,53 0 0 0 -5.15,-5 C 70,12 69,10.81 70,10.81 c 0.59,0 2.17,0.91 5.88,3.29 5.08,3.3 7.32,4.49 7.6,4.07 0.14,-0.21 0,-0.81 -0.38,-1.33 C 82.22,15.57 76.23,9 74,6.75 72,4.89 71.76,4.26 72.6,3.95 c 0.84,-0.31 1.57,0.24 7.84,5 3.16,2.35 5.89,4.31 6.06,4.31 1.79,0 -4.48,-5.78 -9.84,-9 C 74.19,2.79 73.49,1.7 74.93,1.7 c 1,0 6.8,3.12 10.23,5.5 2.94,2.07 4.06,3.4 3.39,4.07 -0.67,0.67 -0.42,0.94 0.81,0.94 a 2.5,2.5 0 0 1 1.61,0.53 1.54,1.54 0 0 0 1,0.52 c 0.88,0 0.25,-2.83 -1.5,-6.93 A 30,30 0 0 1 88.87,2.2 c 0,-0.74 0.84,-0.6 1.65,0.31 a 61,61 0 0 1 5.56,9.56 c 2.42,5.29 3.58,12.51 2.56,15.87 -0.35,1.15 -0.28,1.57 0.74,3.92 2.2,5.15 2.8,7 2.34,7.15 -1.19,0.45 -7.49,2.27 -7.81,2.27 -0.32,0 -0.91,-1.28 -1.4,-2.84 M 20.26,26 c -4.38,-13.91 -4,-15.38 1.29,-5.36 1.2,2.2 2.39,4.34 2.67,4.73 0.84,1.12 1,0.38 0.35,-1.48 L 24,22.12 l 2.49,-4 c 3.36,-5.4 3.36,-5.4 4.94,-3.44 0.7,0.88 2.55,2.91 4.16,4.52 a 25,25 0 0 1 2.88,3.22 c 0,0.18 -0.42,0.42 -0.91,0.53 -1.2,0.31 -2.77,-0.46 -5,-2.49 -1,-0.87 -2,-1.5 -2.14,-1.4 a 5.1,5.1 0 0 0 -0.91,3.15 c 0.28,0.77 1.19,0.63 1.33,-0.17 0.11,-0.63 0.32,-0.56 2.31,0.77 a 15,15 0 0 1 2.1,1.51 c -0.28,0.24 -12.15,6.82 -12.64,7 C 22.12,31.5 21.73,30.56 20.26,26 m 17.79,-6.12 -1.51,-1.78 1.23,-1 a 4.7,4.7 0 0 1 1.61,-1 c 0.21,0 0.74,1.06 1.19,2.35 0.74,2.24 0.74,2.35 0.11,2.8 -0.91,0.63 -0.98,0.59 -2.63,-1.37 M 34.37,15.54 C 33.85,14.8 33.57,14.17 33.74,14 a 25,25 0 0 1 2.77,-1.23 44,44 0 0 0 4.94,-2.34 c 4.1,-2.25 3.82,-0.95 -0.67,2.76 -2.48,2.1 -4.66,3.58 -5.29,3.58 a 6.4,6.4 0 0 1 -1.12,-1.23"
           data-name="layer108"
           id="path23-4"
           style="display:inline" /><path
           fill="#ffffff"
           d="m 54.83,113.15 c -0.49,-0.1 -0.63,-0.49 -0.63,-1.82 0,-1 -0.14,-1.82 -0.35,-1.93 -0.63,-0.38 -0.35,-1.78 0.52,-2.62 0.7,-0.67 0.84,-1.12 0.81,-2.6 a 9.1,9.1 0 0 1 0.49,-3 l 0.49,-1.23 0.7,1 a 13.8,13.8 0 0 0 4.66,4.59 l 1.61,0.81 -2.1,0.42 c -3,0.59 -3.37,0.7 -3.12,1.12 0.14,0.21 1.5,0.28 3.78,0.14 2.77,-0.18 3.36,-0.14 2.66,0.17 -4.87,2.21 -6.69,3.19 -7.74,4.07 a 3.1,3.1 0 0 1 -1.78,0.87 z m 24.51,-2.45 a 24,24 0 0 0 -4.13,-1.65 c -3.22,-1 -4.24,-1.82 -1.82,-1.43 a 43,43 0 0 1 4.24,1 c 1.57,0.46 2.94,0.74 3,0.56 0.63,-1 -1.75,-2.31 -4.83,-2.66 l -1.76,-0.21 1.58,-0.8 a 15,15 0 0 0 3.2,-2.51 12.8,12.8 0 0 1 1.75,-1.79 7.6,7.6 0 0 1 0.91,1.86 c 0.63,1.57 0.7,2.21 0.46,4.59 -0.21,2.2 -0.39,2.83 -1,3.22 -0.61,0.39 -0.79,0.34 -1.6,-0.18 m -11.62,-3.19 c -0.11,-0.17 0.45,-0.38 1.29,-0.45 1.61,-0.18 2.1,-0.07 1.82,0.45 -0.28,0.52 -2.83,0.42 -3.11,0 M 27.68,55 c -5,-0.74 -9.28,-1.4 -9.42,-1.51 a 24,24 0 0 1 0.21,-4.13 c 0.39,-3.29 0.53,-3.86 1,-3.72 0.31,0.11 4.9,1.34 10.19,2.7 5.29,1.36 9.77,2.63 9.91,2.77 0.14,0.14 0,1.36 -0.45,2.77 -0.67,2.1 -0.88,2.48 -1.51,2.45 -0.4,-0.06 -4.88,-0.65 -9.93,-1.33 m -4.3,-3.16 A 2.71,2.71 0 0 0 23,48.5 c -1.06,-0.74 -1.55,-0.7 -2.39,0.14 a 2.26,2.26 0 0 0 -0.14,3.08 c 0.66,0.98 2.38,1.05 2.91,0.1 z M 89.57,49 a 20,20 0 0 1 -1.65,-3.33 c 0.07,-0.1 4.49,-1.43 9.74,-3 l 11.28,-3.29 1.64,-0.49 -0.21,3 a 20.3,20.3 0 0 1 -0.49,3.54 c -0.21,0.38 -17.37,6.69 -18.24,6.69 A 19.2,19.2 0 0 1 89.57,49 m 19.93,-5.71 a 2.22,2.22 0 0 0 0.31,-1.5 c -0.14,-1.33 -1.71,-1.58 -2.52,-0.39 -0.7,1 -0.7,1.16 0,1.82 a 1.48,1.48 0 0 0 2.21,0.02 z"
           data-name="layer109"
           id="path24-4"
           style="display:inline" /></g></g></g></svg>
