<?xml version="1.0" encoding="UTF-8" standalone="no"?>
<!-- Created with Inkscape (http://www.inkscape.org/) -->

<svg
   width="31.580627mm"
   height="33.980747mm"
   viewBox="0 0 31.580628 33.980747"
   version="1.1"
   id="svg1"
   xml:space="preserve"
   xmlns:xlink="http://www.w3.org/1999/xlink"
   xmlns="http://www.w3.org/2000/svg"
   xmlns:svg="http://www.w3.org/2000/svg"><defs
     id="defs1"><linearGradient
       id="linearGradient7"><stop
         style="stop-color:#5d91a6;stop-opacity:1;"
         offset="0"
         id="stop7" /><stop
         style="stop-color:#5d91a6;stop-opacity:0;"
         offset="1"
         id="stop12" /></linearGradient><linearGradient
       id="linearGradient31"><stop
         style="stop-color:#5d91a6;stop-opacity:1;"
         offset="0"
         id="stop31" /><stop
         style="stop-color:#5d91a6;stop-opacity:0;"
         offset="1"
         id="stop32" /></linearGradient><filter
       id="b-1-0"
       width="144.744"
       height="113.408"
       x="-8.4110003"
       y="22.594"
       color-interpolation-filters="sRGB"
       filterUnits="userSpaceOnUse"><feFlood
         flood-opacity="0"
         result="BackgroundImageFix"
         id="feFlood5-9-8" /><feColorMatrix
         in="SourceAlpha"
         result="hardAlpha"
         values="0 0 0 0 0 0 0 0 0 0 0 0 0 0 0 0 0 0 127 0"
         id="feColorMatrix5-69-9" /><feOffset
         id="feOffset5-8-1" /><feGaussianBlur
         stdDeviation="4.167"
         id="feGaussianBlur5-2-3" /><feColorMatrix
         values="0 0 0 0 0 0 0 0 0 0 0 0 0 0 0 0 0 0 0.25 0"
         id="feColorMatrix6-5-4" /><feBlend
         in2="BackgroundImageFix"
         mode="overlay"
         result="effect1_dropShadow_1_36"
         id="feBlend6-5-7" /><feBlend
         in="SourceGraphic"
         in2="effect1_dropShadow_1_36"
         result="shape"
         id="feBlend7-4-4"
         mode="normal" /></filter><filter
       id="c-91-6"
       width="56.667"
       height="144.007"
       x="79.667"
       y="-8.0039997"
       color-interpolation-filters="sRGB"
       filterUnits="userSpaceOnUse"><feFlood
         flood-opacity="0"
         result="BackgroundImageFix"
         id="feFlood7-2-3" /><feColorMatrix
         in="SourceAlpha"
         result="hardAlpha"
         values="0 0 0 0 0 0 0 0 0 0 0 0 0 0 0 0 0 0 127 0"
         id="feColorMatrix7-5-6" /><feOffset
         id="feOffset7-0-5" /><feGaussianBlur
         stdDeviation="4.167"
         id="feGaussianBlur7-8-2" /><feColorMatrix
         values="0 0 0 0 0 0 0 0 0 0 0 0 0 0 0 0 0 0 0.25 0"
         id="feColorMatrix8-3-8" /><feBlend
         in2="BackgroundImageFix"
         mode="overlay"
         result="effect1_dropShadow_1_36"
         id="feBlend8-9-1" /><feBlend
         in="SourceGraphic"
         in2="effect1_dropShadow_1_36"
         result="shape"
         id="feBlend9-3-0"
         mode="normal" /></filter><linearGradient
       xlink:href="#linearGradient31"
       id="linearGradient32"
       x1="-0.5"
       y1="64"
       x2="128.5"
       y2="64"
       gradientUnits="userSpaceOnUse" /><radialGradient
       id="a-5-8-2"
       cx="0"
       cy="0"
       r="1"
       gradientTransform="matrix(84.04136,0,0,84.04136,38.426,42.169)"
       gradientUnits="userSpaceOnUse"><stop
         stop-color="#aeb2d5"
         id="stop8-8-9-4"
         offset="0"
         style="stop-color:#5d91a6;stop-opacity:1;" /><stop
         offset=".3"
         stop-color="#aeb2d5"
         id="stop9-6-3-5" /><stop
         offset="0.75"
         stop-color="#484c89"
         id="stop10-2-0-5"
         style="stop-color:#426676;stop-opacity:1;" /><stop
         offset="1"
         stop-color="#484c89"
         id="stop11-65-7-1"
         style="stop-color:#a3c2cd;stop-opacity:1;" /></radialGradient><linearGradient
       xlink:href="#a-5-8-2"
       id="linearGradient6"
       x1="-0.5"
       y1="64"
       x2="128.5"
       y2="64"
       gradientUnits="userSpaceOnUse" /><linearGradient
       xlink:href="#linearGradient7"
       id="linearGradient12"
       x1="2"
       y1="64"
       x2="126"
       y2="64"
       gradientUnits="userSpaceOnUse" /></defs><g
     id="layer16-3"
     transform="translate(-306.21117,-2.605867)"
     style="display:inline"><g
       id="g46"
       transform="matrix(0.00207402,0,0,0.00207402,306.02229,2.6058644)"><path
         fill="#293138"
         d="M 14321.931,3344.5117 9160.2921,274.17597 A 1954.5372,1958.3998 0 0 0 8164.5003,0 C 7821.1149,0 7476.4521,91.775991 7168.5804,275.45597 L 2005.792,3345.9197 C 1390.1766,3711.8718 1010,4388.9917 1010,5122.3035 v 6140.7995 c 0,733.312 379.0269,1410.432 995.9197,1776.383 l 5161.5111,3070.337 a 1941.7624,1945.5998 0 0 0 995.7921,274.176 1954.5372,1958.3998 0 0 0 995.9196,-274.176 l 5162.7885,-3070.337 c 615.615,-366.079 995.92,-1044.479 995.92,-1776.383 V 5120.8956 c 0,-731.9039 -379.028,-1410.432 -995.92,-1776.3839 m -3997.22,9588.0953 8.048,441.344 c 0,53.504 -34.109,113.792 -75.116,135.68 l -261.3709,150.783 c -41.007,20.481 -76.6486,-4.095 -76.6486,-57.599 l -4.0879,-434.432 c -222.9196,93.184 -450.0547,115.2 -593.6428,57.6 -27.3381,-11.008 -39.6016,-50.816 -28.7432,-97.28 l 94.4055,-398.976 c 8.1759,-31.488 24.6552,-63.104 46.5001,-82.304 a 89.423268,89.599991 0 0 1 24.6552,-17.792 c 14.9464,-8.192 30.0207,-9.6 42.4121,-4.096 155.8522,52.096 354.2441,27.391 545.7375,-68.48 243.615,-123.392 406.237,-372.864 403.682,-619.52 -2.81,-224.896 -123.148,-316.672 -417.351,-319.488 -374.8112,1.28 -724.9671,-72.576 -730.4604,-626.432 -4.0879,-455.04 231.2231,-929.28 606.0345,-1228.1597 l -4.088,-445.4402 c 0,-54.784 32.8312,-115.1998 75.2432,-136.9599 l 252.9397,-161.7919 c 41.135,-20.608 76.649,5.376 76.649,58.88 l 4.216,445.4399 c 186,-73.984 347.473,-94.4639 493.744,-60.16 31.554,8.0639 46.5,51.968 32.831,102.656 l -98.366,394.7516 a 178.84654,179.19999 0 0 1 -45.222,79.6162 102.19803,102.4 0 0 1 -25.933,19.2 c -13.797,6.784 -26.06,8.192 -38.324,6.784 -67.068,-15.104 -225.73,-49.28 -476.115,76.8 -262.6492,132.864 -354.2442,361.856 -352.9667,531.84 2.8104,202.88 105.3918,264.448 463.7237,270.08 477.52,8.064 682.682,216.448 688.176,697.6 6.77,471.552 -244.892,980.096 -630.69,1289.856 z M 13927.958,4639.8715 9044.0419,7662.0792 c -608.7169,356.3521 -1057.4941,756.608 -1058.7715,1492.736 v 6029.6958 c 0,439.936 177.8246,725.12 450.0546,808.703 a 1660.7178,1663.9998 0 0 1 -270.8247,26.113 c -286.0269,0 -567.8378,-78.081 -815.4124,-224.897 L 2187.7044,12724.223 c -504.7304,-300.161 -817.9674,-860.8 -817.9674,-1462.528 V 5120.8956 c 0,-601.6001 313.237,-1162.2401 817.9674,-1462.5278 L 7350.6206,588.03196 a 1604.5089,1607.6798 0 0 1 815.2848,-224.76798 c 285.8991,0 567.71,78.07999 815.2849,224.76798 L 14144.106,3658.3678 c 425.399,253.5679 712.704,690.8158 793.312,1182.9758 -173.736,-366.08 -559.533,-464.6399 -1009.46,-201.4721"
         id="path1-59"
         style="fill:#5d91a6;fill-opacity:1;stroke-width:127.874" /><path
         fill="#4fa847"
         d="m 101.614,92.619 -10.066,6.018 c -0.268,0.16 -0.46,0.332 -0.46,0.653 v 2.635 c 0,0.32 0.214,0.46 0.481,0.3 l 10.216,-6.212 c 0.268,-0.16 0.31,-0.45 0.31,-0.77 v -2.324 c 0,-0.322 -0.213,-0.45 -0.481,-0.3"
         id="path2-10" /></g></g><g
     id="layer15-2"
     transform="translate(-301.74514,-3.113388)"
     style="display:inline"><g
       mask="url(#a-52)"
       id="g5-2"
       transform="matrix(0.26458333,0,0,0.26458333,564.96319,6.4390713)"
       style="fill:#5d91a6;fill-opacity:1"><path
         fill="#0065a9"
         d="M 123.471,13.82 97.097,1.12 A 7.97,7.97 0 0 0 88,2.668 L 1.662,81.387 a 5.333,5.333 0 0 0 0.006,7.887 l 7.052,6.411 a 5.33,5.33 0 0 0 6.811,0.303 L 119.502,17.113 C 122.99,14.467 128,16.955 128,21.333 v -0.306 a 8,8 0 0 0 -4.529,-7.208 z"
         id="path2-6-1"
         style="fill:#5d91a6;fill-opacity:1" /><g
         filter="url(#b)"
         id="g3-7"
         style="fill:#5d91a6;fill-opacity:1;filter:url(#b-1-0)"><path
           fill="#007acc"
           d="M 123.471,114.181 97.097,126.879 A 7.97,7.97 0 0 1 88,125.333 L 1.662,46.613 A 5.333,5.333 0 0 1 1.668,38.726 L 8.72,32.315 a 5.33,5.33 0 0 1 6.811,-0.303 l 103.971,78.874 c 3.488,2.647 8.498,0.159 8.498,-4.219 v 0.306 a 8,8 0 0 1 -4.529,7.208"
           id="path3-77-4"
           style="fill:#5d91a6;fill-opacity:1" /></g><g
         filter="url(#c)"
         id="g4-2-8"
         style="fill:#5d91a6;fill-opacity:1;filter:url(#c-91-6)"><path
           fill="#1f9cf0"
           d="M 97.098,126.882 A 7.98,7.98 0 0 1 88,125.333 c 2.952,2.952 8,0.861 8,-3.314 V 5.98 C 96,1.805 90.952,-0.286 88,2.667 A 7.98,7.98 0 0 1 97.098,1.118 L 123.467,13.8 A 8,8 0 0 1 128,21.01 v 85.982 a 8,8 0 0 1 -4.533,7.21 z"
           id="path4-29-2"
           style="fill:#5d91a6;fill-opacity:1" /></g><path
         fill="url(#d)"
         fill-rule="evenodd"
         d="m 90.69,127.126 a 7.97,7.97 0 0 0 6.349,-0.244 l 26.353,-12.681 a 8,8 0 0 0 4.53,-7.21 V 21.009 a 8,8 0 0 0 -4.53,-7.21 L 97.039,1.12 A 7.97,7.97 0 0 0 87.946,2.668 L 37.496,48.694 15.522,32.014 A 5.33,5.33 0 0 0 8.715,32.316 L 1.667,38.727 A 5.336,5.336 0 0 0 1.661,46.615 L 20.718,64 1.662,81.386 a 5.335,5.335 0 0 0 0.006,7.888 l 7.048,6.411 a 5.33,5.33 0 0 0 6.807,0.303 l 21.975,-16.681 50.45,46.026 a 8,8 0 0 0 2.742,1.793 M 95.942,34.942 57.662,64 95.942,93.057 Z"
         clip-rule="evenodd"
         opacity="0.25"
         style="mix-blend-mode:overlay;fill:#5d91a6;fill-opacity:1"
         id="path5-4-3" /></g><g
       id="g26-8"
       transform="matrix(0.26458333,0,0,0.26458333,213.3979,1.6569412)"><path
         fill="url(#a)"
         d="m 0,64 c 0,18.593 28.654,33.667 64,33.667 14.835842,0 28.492722,-2.655659 39.34663,-7.11253 C 118.35188,84.392965 128,74.788926 128,64 128,45.407 99.345,30.333 64,30.333 28.655,30.333 0,45.407 0,64"
         id="path1-5-3"
         style="fill:url(#linearGradient6);stroke:url(#linearGradient32)" /><path
         fill="#777bb3"
         d="m 64,95.167 c 25.175731,0 46.81872,-7.667094 56.33415,-18.644618 C 123.65614,72.689944 125.5,68.454023 125.5,64 125.5,46.786 97.965,32.833 64,32.833 30.035,32.833 2.5,46.786 2.5,64 2.5,81.212 30.035,95.167 64,95.167"
         id="path2-8-7"
         style="fill:url(#linearGradient12);fill-opacity:1;stroke:#5d91a6;stroke-opacity:1" /><path
         d="m 34.772,67.864 c 2.793,0 4.877,-0.515 6.196,-1.53 1.306,-1.006 2.207,-2.747 2.68,-5.175 0.44,-2.27 0.272,-3.854 -0.5,-4.71 -0.788,-0.874 -2.493,-1.317 -5.067,-1.317 H 33.617 L 31.144,67.864 Z M 20.173,83.547 c -0.436688,-5.92e-4 -0.764318,-0.399529 -0.68,-0.828 L 26.05,48.981 c 0.0639,-0.325221 0.348562,-0.560065 0.68,-0.561 h 14.134 c 4.442,0 7.748,1.206 9.827,3.585 2.088,2.39 2.734,5.734 1.917,9.935 -0.333,1.711 -0.905,3.3 -1.7,4.724 -0.827321,1.464865 -1.883287,2.788197 -3.128,3.92 -1.531,1.432 -3.264,2.472 -5.147,3.083 -1.852,0.604 -4.232,0.91 -7.07,0.91 h -5.724 l -1.634,8.408 c -0.06363,0.326355 -0.3495,0.561926 -0.682,0.562 z"
         id="path3-6-1"
         style="display:inline;fill:#ffffff;fill-opacity:1;stroke:none" /><path
         fill="#ffffff"
         d="m 34.19,55.826 h 3.891 c 3.107,0 4.186,0.682 4.553,1.089 0.607,0.674 0.723,2.097 0.331,4.112 -0.439,2.257 -1.253,3.858 -2.42,4.756 -1.194,0.92 -3.138,1.386 -5.773,1.386 h -2.786 z m 6.674,-8.1 H 26.731 c -0.664691,5.5e-5 -1.236322,0.470687 -1.364,1.123 L 18.81,82.588 c -0.165066,0.856637 0.490605,1.651813 1.363,1.653 h 7.35 c 0.664624,-6.27e-4 1.235813,-0.471659 1.363,-1.124 l 1.525,-7.846 h 5.151 c 2.912,0 5.364,-0.318 7.287,-0.944 1.977,-0.642 3.796,-1.731 5.406,-3.237 1.296601,-1.180507 2.396737,-2.56015 3.259,-4.087 0.831,-1.487 1.429,-3.147 1.775,-4.931 0.86,-4.423 0.161,-7.964 -2.076,-10.524 -2.216,-2.537 -5.698,-3.823 -10.349,-3.823 z M 30.301,68.557 h 4.471 c 2.963333,6.67e-4 5.17,-0.557667 6.62,-1.675 1.45,-1.116 2.429333,-2.979667 2.938,-5.591 0.485333,-2.508 0.263667,-4.277333 -0.665,-5.308 -0.93,-1.030667 -2.791333,-1.546 -5.584,-1.546 h -5.036 l -2.743,14.12 M 40.865,49.112 c 4.252,0 7.353,1.116 9.303,3.348 1.95,2.232 2.536667,5.347333 1.76,9.346 -0.321333,1.648 -0.863,3.154 -1.625,4.518 -0.763333,1.365333 -1.760333,2.614333 -2.991,3.747 -1.466667,1.373333 -3.097333,2.351667 -4.892,2.935 -1.794,0.584 -4.079667,0.875667 -6.857,0.875 h -6.296 l -1.743,8.97 h -7.35 l 6.558,-33.739 z"
         id="path4-1-0"
         style="display:none;fill:#ffffff;fill-opacity:1;stroke:none" /><path
         d="m 69.459,74.577 c -0.437008,5.44e-4 -0.76575,-0.398092 -0.682,-0.827 l 2.9,-14.928 c 0.277,-1.42 0.209,-2.438 -0.19,-2.87 -0.245,-0.263 -0.979,-0.704 -3.15,-0.704 h -5.256 l -3.646,18.768 c -0.06454,0.325929 -0.350743,0.560592 -0.683,0.56 h -7.29 c -0.436562,2.88e-4 -0.765287,-0.397263 -0.683,-0.826 l 6.558,-33.739 c 0.06405,-0.325958 0.349809,-0.561019 0.682,-0.561 h 7.29 c 0.436562,-2.88e-4 0.765287,0.397263 0.683,0.826 L 64.41,48.42 h 5.653 c 4.307,0 7.227,0.758 8.928,2.321 1.733,1.593 2.275,4.14 1.608,7.573 l -3.051,15.702 c -0.06447,0.32556 -0.350119,0.560113 -0.682,0.56 z"
         id="path5-2-0"
         style="display:inline;fill:#ffffff;fill-opacity:1;stroke:none" /><path
         fill="#ffffff"
         d="m 65.31,38.755 h -7.291 c -0.665,1.49e-4 -1.236741,0.47129 -1.364,1.124 l -6.557,33.738 c -0.165787,0.857 0.490112,1.652933 1.363,1.654 h 7.291 c 0.665,-1.49e-4 1.236741,-0.47129 1.364,-1.124 l 3.537,-18.205 h 4.682 c 2.168,0 2.624,0.463 2.641,0.484 0.132,0.14 0.305,0.795 0.019,2.264 l -2.9,14.927 c -0.165863,0.8574 0.490704,1.653561 1.364,1.654 h 7.408 c 0.664624,-6.27e-4 1.235813,-0.471659 1.363,-1.124 l 3.051,-15.7 c 0.715,-3.686 0.103,-6.45 -1.82,-8.217 -1.836,-1.686 -4.91,-2.505 -9.398,-2.505 h -4.81 l 1.421,-7.315 c 0.166586,-0.857763 -0.49021,-1.654682 -1.364,-1.655 m 0,1.39 -1.743,8.968 h 6.496 c 4.087333,0 6.906333,0.713333 8.457,2.14 1.552,1.425333 2.018,3.735333 1.398,6.93 L 76.866,73.882 H 69.459 L 72.36,58.954 c 0.33,-1.698 0.208333,-2.856 -0.365,-3.474 -0.573333,-0.617333 -1.792667,-0.926 -3.658,-0.926 H 62.508 L 58.752,73.881 H 51.46 l 6.558,-33.739 h 7.292 z"
         id="path6-4-8"
         style="display:none;fill:#ffffff;fill-opacity:1;stroke:none" /><path
         d="m 92.136,67.864 c 2.793,0 4.878,-0.515 6.198,-1.53 1.304,-1.006 2.206,-2.747 2.679,-5.175 0.44,-2.27 0.273,-3.854 -0.5,-4.71 -0.788,-0.874 -2.493,-1.317 -5.067,-1.317 H 90.983 L 88.508,67.864 Z M 77.54,83.547 c -0.437503,6.68e-4 -0.766475,-0.398729 -0.682,-0.828 l 6.557,-33.738 c 0.06405,-0.325958 0.349809,-0.561019 0.682,-0.561 H 98.23 c 4.442,0 7.748,1.206 9.826,3.585 2.089,2.39 2.734,5.734 1.917,9.935 -0.3126,1.654702 -0.88608,3.249239 -1.699,4.724 -0.82732,1.464865 -1.88329,2.788197 -3.128,3.92 -1.53,1.432 -3.265,2.472 -5.147,3.083 -1.852,0.604 -4.232,0.91 -7.071,0.91 h -5.723 l -1.633,8.408 c -0.0637,0.326725 -0.350124,0.562404 -0.683,0.562 z"
         id="path7-2-3"
         style="fill:#ffffff;fill-opacity:1;stroke:none" /><path
         fill="#ffffff"
         d="m 91.555,55.826 h 3.891 c 3.107,0 4.186,0.682 4.552,1.089 0.61,0.674 0.724,2.097 0.333,4.112 -0.44,2.257 -1.254,3.858 -2.421,4.756 -1.195,0.92 -3.139,1.386 -5.773,1.386 h -2.786 z m 6.674,-8.1 H 84.096 a 1.39,1.39 0 0 0 -1.363,1.123 l -6.558,33.739 a 1.39,1.39 0 0 0 1.364,1.653 h 7.35 a 1.39,1.39 0 0 0 1.363,-1.124 l 1.525,-7.846 h 5.15 c 2.911,0 5.364,-0.318 7.286,-0.944 1.978,-0.642 3.797,-1.731 5.408,-3.238 a 16.5,16.5 0 0 0 3.258,-4.086 c 0.832,-1.487 1.428,-3.147 1.775,-4.931 0.86,-4.423 0.162,-7.964 -2.076,-10.524 -2.216,-2.537 -5.697,-3.823 -10.35,-3.823 z M 87.666,68.557 h 4.47 q 4.445,0.001 6.622,-1.675 2.175,-1.674 2.936,-5.591 0.731,-3.762 -0.665,-5.308 -1.396,-1.546 -5.583,-1.546 H 90.411 Z M 98.229,49.112 q 6.378,0 9.303,3.348 2.925,3.348 1.759,9.346 -0.48,2.472 -1.624,4.518 -1.144,2.048 -2.992,3.747 -2.2,2.06 -4.892,2.935 -2.69,0.876 -6.856,0.875 h -6.295 l -1.745,8.97 h -7.35 l 6.558,-33.739 h 14.133"
         id="path8-4"
         style="display:none" /></g></g></svg>
