<svg width="314" height="130" viewBox="0 0 314 130" fill="none" xmlns="http://www.w3.org/2000/svg">
<g clip-path="url(#clip0_112_4987)">
<path d="M248.274 0.00907875C245.516 0.0932519 242.759 0.326476 240.046 0.837617C236.189 1.55557 232.39 2.58736 228.705 3.92273C216.611 8.3409 205.771 16.1949 198.057 26.4531C195.044 30.442 192.564 34.8219 190.693 39.4471C188.848 43.9537 187.494 48.6581 186.646 53.4481C186.032 57.304 185.982 61.2208 186.004 65.1162C186.032 69.9645 186.539 74.814 187.607 79.5476C189.453 87.8297 193.006 95.7689 198.201 102.525C199.649 104.428 201.083 106.349 202.686 108.128C204.557 110.097 206.713 111.768 208.82 113.476C214.86 118.237 221.572 122.277 228.921 124.701C233.132 126.089 237.497 126.996 241.899 127.528C251.739 128.689 261.846 127.713 271.233 124.545C277.656 122.376 283.743 119.214 289.175 115.181C299.847 107.212 307.754 95.681 311.311 82.914C313.467 75.3028 314.231 67.3428 313.941 59.455C313.768 55.7508 313.137 52.0774 312.248 48.4795C309.036 35.7669 301.746 24.0862 291.644 15.6244C286.652 11.4753 281.035 8.07515 275.072 5.48081C266.745 1.86853 257.662 -0.131348 248.557 0.00670354C248.463 0.00746843 248.368 0.00831382 248.274 0.00907875ZM249.895 10.0938C250.764 10.0919 251.702 10.1125 252.525 10.148C253.18 10.1807 253.758 10.2128 254.415 10.2659C255.826 10.3792 257.302 10.5583 258.656 10.7731C265.273 11.8269 271.691 14.1193 277.434 17.5489C278.742 18.3123 280.015 19.1347 281.258 19.9975C281.476 20.155 281.799 20.3831 282.057 20.5676C283.493 21.6096 284.879 22.7186 286.213 23.8865C286.44 24.0938 286.762 24.3766 287.024 24.6144C293.434 30.4653 298.507 37.7957 301.472 45.9323C304.713 54.7296 305.659 64.3717 304.023 73.6054C303.871 74.4684 303.676 75.3907 303.472 76.269C303.424 76.4551 303.345 76.782 303.285 77.0221C301.854 82.6708 299.501 88.0799 296.437 93.0442C292.903 98.719 288.299 103.745 282.877 107.7C278.461 110.951 273.53 113.509 268.331 115.287C267.858 115.45 267.289 115.634 266.776 115.794C265.225 116.273 263.59 116.697 262.041 117.028C260.789 117.293 259.528 117.514 258.263 117.705C258.011 117.74 257.63 117.791 257.328 117.833C254.024 118.259 250.683 118.397 247.354 118.253C247.086 118.237 246.689 118.218 246.371 118.2C237.123 117.635 227.97 114.852 220.156 109.88C219.547 109.489 218.874 109.046 218.258 108.609C215.08 106.388 212.184 103.778 209.63 100.872C208.59 99.7171 207.573 98.4949 206.605 97.2469C206.123 96.6206 205.677 96.0209 205.229 95.3934C200.576 88.8933 197.223 81.4213 195.871 73.544C195.18 69.6077 195.011 65.5905 195.277 61.606C195.309 61.1336 195.35 60.5748 195.394 60.0704C195.444 59.5361 195.505 58.9099 195.575 58.3413C195.777 56.6327 196.068 54.8806 196.418 53.2302C196.683 51.9877 196.99 50.746 197.328 49.5487C198.101 46.8255 199.112 44.101 200.292 41.5711C203.022 35.7116 206.858 30.3441 211.642 25.9568C218.468 19.6344 226.693 14.697 235.698 12.1342C236.66 11.8603 237.648 11.6101 238.572 11.4027C242.285 10.5662 246.088 10.1279 249.895 10.0938Z" fill="#5D91A6"/>
<path d="M248.361 33.3523C243.636 33.3839 238.909 33.3192 234.185 33.4047C233.544 33.4397 232.067 33.8552 231.56 34.2393C230.374 34.9471 229.979 35.37 228.874 36.2038C228.092 37.4512 227.368 38.8172 227.331 40.3194C227.085 43.2685 227.167 46.231 227.145 49.187C227.159 60.9006 227.15 72.6145 227.211 84.328C227.234 85.8904 227.278 87.4635 227.572 89.0236C227.846 90.4661 228.299 91.9876 229.438 92.9997C230.028 93.5426 230.628 94.0959 231.329 94.4938C231.993 94.7922 232.712 94.821 233.402 94.9178C234.477 95.0356 235.515 95.0342 236.583 95.0631C241.833 95.1256 247.083 95.0294 252.33 94.8689C253.657 94.7762 254.979 94.611 256.289 94.3814C256.907 94.2745 257.61 94.1344 258.255 93.9877C262.191 93.1093 266.074 91.6859 269.336 89.2863C270.656 88.3271 271.814 87.1664 272.839 85.9038C273.524 85.0938 274.226 84.1806 274.802 83.3606C276.149 81.4418 277.254 79.3503 277.983 77.1237C278.963 74.3178 279.615 71.3996 279.927 68.4462C279.964 68.0971 280.005 67.6336 280.035 67.2397C280.083 66.5537 280.12 65.887 280.133 65.2459C280.165 63.9918 280.142 62.7704 280.06 61.5325C279.829 58.0984 279.182 54.6793 278.021 51.4322C276.865 48.3685 275.204 45.4832 273.086 42.9729C271.551 41.1688 269.744 39.592 267.738 38.3212C267.613 38.2494 267.332 38.0716 267.145 37.962C264.226 36.2308 261.497 35.1747 258.274 34.1268C257.228 33.7904 256.195 33.6037 255.096 33.5902C254.714 33.5724 253.726 33.3836 253.327 33.3752C251.672 33.334 250.016 33.3508 248.361 33.3523ZM247.216 44.6075C250.759 44.7749 254.383 44.7816 257.783 45.9087C260.536 46.7889 263.099 48.3517 264.967 50.5604C267.833 53.8033 269.437 58.058 269.623 62.3511C269.77 65.0724 269.593 67.8266 268.949 70.4803C268.082 73.9707 266.189 77.2646 263.352 79.5428C260.218 82.1146 256.161 83.4663 252.113 83.5451C249.379 83.6389 246.645 83.4716 243.911 83.4625C242.097 83.4267 240.283 83.3912 238.469 83.3552C238.406 73.045 238.312 62.734 238.303 52.424C238.454 51.1495 238.588 49.8631 238.907 48.6184C239.289 47.5146 240.593 46.1564 241.642 45.7436C243.462 44.828 245.128 44.5832 247.216 44.6075Z" fill="#5D91A6"/>
</g>
<path d="M152.818 90.2273V45.2273H160.455V90.2273H152.818ZM134.136 71.5455V63.9091H179.136V71.5455H134.136Z" fill="#5D91A6"/>
<path fill-rule="evenodd" clip-rule="evenodd" d="M64.0938 128.223C98.3688 128.171 126.115 100.29 126.115 65.8976C126.115 32.0646 98.4968 4.20056 65.5018 3.61156C30.8498 2.99356 1.89377 31.1116 1.88477 65.2086C1.87477 100.288 29.4968 128.273 64.0938 128.223ZM63.9928 6.62856C96.8998 6.61756 123.119 33.3536 123.109 66.9086C123.098 98.5876 96.1838 125.089 64.0168 125.096C31.2458 125.103 4.89177 98.5326 4.89277 65.4876C4.89477 33.2946 31.6588 6.63956 63.9928 6.62856ZM39.1568 37.8946C39.6948 39.6876 38.1888 40.3116 36.5878 40.4366C34.9028 40.5666 33.2188 40.6936 31.2628 40.8426C37.7188 60.0766 44.0778 79.0256 50.5878 98.4156C51.0518 97.6566 51.2428 97.4426 51.3268 97.1926C54.9008 86.5106 58.4948 75.8356 61.9778 65.1236C62.2958 64.1466 62.1378 62.8526 61.7898 61.8486C59.9468 56.5286 57.7388 51.3246 56.1228 45.9406C55.0178 42.2546 53.5518 39.8696 49.1948 40.2966C48.4528 40.3696 47.5468 38.7726 46.7158 37.9476C47.7208 37.3476 48.7188 36.2436 49.7328 36.2286C58.6049 36.0922 67.4787 36.0949 76.3508 36.2366C77.3688 36.2536 78.3668 37.3866 79.3718 38.0016C78.4918 38.8056 77.7328 40.0116 76.7038 40.3226C75.0528 40.8206 73.2218 40.7266 71.2458 40.9026L90.5948 98.4626C93.5258 88.7266 96.2528 79.7866 98.9048 70.8236C101.271 62.8226 99.8608 55.3506 95.5828 48.3036C94.2968 46.1846 92.7168 44.1286 91.9878 41.8176C91.1598 39.1886 90.4718 36.1956 90.9108 33.5586C91.6558 29.0896 95.0848 26.8706 99.7248 26.4456C74.3328 2.87956 34.4308 11.3156 19.7278 36.9206C25.3878 36.6596 30.7918 36.3166 36.1998 36.2426C37.2218 36.2296 38.9168 37.0936 39.1568 37.8946ZM49.2738 115.866C49.1558 116.211 49.1488 116.595 49.0558 117.168C59.9988 120.202 70.7308 119.983 81.7148 116.282L64.9348 70.3216C59.5648 85.9326 54.4148 100.897 49.2738 115.866ZM40.8178 113.788L15.5368 44.4376C4.13177 66.7156 12.8078 100.706 40.8178 113.788ZM117.246 69.2256C118.048 58.6916 114.414 44.1066 111.276 42.1006C110.926 45.9756 111.17 50.2866 110.058 54.2146C107.441 63.4696 104.241 72.5636 101.159 81.6826C97.8088 91.5946 94.3268 101.462 90.9018 111.349C106.994 101.81 115.837 87.7306 117.246 69.2256Z" fill="#5D91A6"/>
<defs>
<clipPath id="clip0_112_4987">
<rect width="128" height="128" fill="white" transform="translate(186)"/>
</clipPath>
</defs>
</svg>
