<?xml version="1.0" encoding="UTF-8" standalone="no"?>
<svg
   width="317"
   height="134"
   viewBox="0 0 317 134"
   fill="none"
   version="1.1"
   id="svg4"
   xmlns="http://www.w3.org/2000/svg"
   xmlns:svg="http://www.w3.org/2000/svg">
  <defs
     id="defs4" />
  <path
     d="m 152.818,94.2273 v -45 h 7.637 v 45 z M 134.136,75.5455 v -7.6364 h 45 v 7.6364 z"
     fill="#5d91a6"
     id="path1" />
  <path
     fill-rule="evenodd"
     clip-rule="evenodd"
     d="M 67.888377,134.223 C 104.25406,134.16782 133.6927,104.58616 133.6927,68.095921 133.6927,32.199202 104.38986,2.6355337 69.382261,2.0106063 32.616586,1.35491 1.8943191,31.188072 1.8847702,67.364894 1.8741602,104.58404 31.181057,134.27605 67.888377,134.223 Z M 67.781216,5.2116773 C 102.69545,5.2000064 130.51395,33.566828 130.50334,69.168589 130.49167,102.78034 101.93578,130.89783 67.80668,130.90526 33.036741,130.91268 5.0751888,102.72199 5.0762498,67.660912 5.0783718,33.504229 33.474933,5.2233483 67.781216,5.2116773 Z M 41.43029,38.384816 c 0.570816,1.902368 -1.027045,2.56443 -2.725702,2.697055 -1.78778,0.137929 -3.5745,0.272676 -5.64981,0.430765 6.849798,20.40722 13.596679,40.512056 20.503771,61.085214 0.492303,-0.8053 0.694953,-1.03235 0.784077,-1.2976 3.792004,-11.333994 7.605228,-22.660139 11.300681,-34.025541 0.337397,-1.036594 0.16976,-2.409525 -0.199467,-3.474766 -1.955418,-5.644505 -4.2981,-11.165935 -6.012672,-16.878344 -1.172401,-3.910835 -2.727823,-6.441314 -7.350588,-5.988268 -0.78726,0.07745 -1.748524,-1.61696 -2.630212,-2.492282 1.066302,-0.636599 2.125177,-1.807939 3.201028,-1.823854 9.413274,-0.14472 18.828351,-0.141856 28.241624,0.0085 1.080095,0.01804 2.13897,1.220146 3.205272,1.87266 -0.933677,0.853041 -1.738974,2.132604 -2.83074,2.462574 -1.751706,0.528377 -3.694392,0.428643 -5.790923,0.615379 l 20.529235,61.071422 c 3.109783,-10.330292 6.003126,-19.815607 8.816886,-29.325325 2.51053,-8.489039 1.01431,-16.41681 -3.52463,-23.893657 -1.364444,-2.248253 -3.04082,-4.429663 -3.814287,-6.881628 -0.878505,-2.789362 -1.608472,-5.964926 -1.142694,-8.762776 0.790443,-4.741596 4.428601,-7.095949 9.351631,-7.546873 -26.940842,-25.0035146 -69.276753,-16.0529 -84.876595,11.113934 6.005244,-0.276921 11.738873,-0.640843 17.476746,-0.719356 1.084339,-0.01379 2.88273,0.902908 3.137369,1.752767 z m 10.734109,82.727434 c -0.125198,0.36605 -0.132625,0.77347 -0.231298,1.38142 11.610493,3.21907 22.997115,2.98671 34.651108,-0.94004 L 68.780676,72.789772 C 63.083121,89.353 57.618985,105.23019 52.164399,121.11225 Z M 43.192606,118.9075 16.369536,45.326921 C 4.2688309,68.963816 13.474074,105.02754 43.192606,118.9075 Z M 124.28271,71.626919 c 0.85092,-11.176544 -3.00474,-26.651188 -6.33415,-28.779549 -0.37135,4.111364 -0.11247,8.685323 -1.2923,12.85292 -2.77662,9.819529 -6.17182,19.468238 -9.44181,29.143472 -3.55455,10.516604 -7.248944,20.985888 -10.88286,31.475968 17.07378,-10.12085 26.45618,-25.059057 27.95112,-44.692811 z"
     fill="#5d91a6"
     id="path2"
     style="stroke-width:1.061" />
  <path
     d="m 249.19767,2.0093618 c -2.81934,0.086806 -5.63868,0.3273171 -8.41247,0.8544306 -3.94273,0.7403956 -7.82644,1.8044255 -11.59523,3.1815234 -12.36555,4.5562352 -23.44723,12.6556882 -31.33476,23.2344852 -3.08026,4.113464 -5.61591,8.630313 -7.52826,13.400002 -1.88646,4.647411 -3.27077,9.498895 -4.13842,14.43849 -0.62847,3.976484 -0.67921,8.015608 -0.65643,12.032782 0.028,4.999751 0.54668,10.000847 1.63901,14.882357 1.8875,8.540961 5.51962,16.728238 10.83112,23.695518 1.48059,1.96308 2.94669,3.94377 4.5857,5.77743 1.91338,2.03038 4.11771,3.75429 6.2713,5.51651 6.17501,4.90977 13.03855,9.07511 20.55128,11.57452 4.30511,1.43193 8.76864,2.36791 13.26944,2.91563 10.05976,1.19794 20.3939,0.19051 29.99188,-3.07612 6.56742,-2.23642 12.79006,-5.49787 18.34384,-9.65699 10.91084,-8.21782 18.99613,-20.10886 22.63239,-33.274866 2.20432,-7.849015 2.985,-16.057825 2.68888,-24.192087 -0.17705,-3.819935 -0.82209,-7.608186 -1.73115,-11.318473 C 311.32156,38.884615 303.86785,26.83889 293.53993,18.1127 288.4355,13.833886 282.69328,10.327496 276.59592,7.6520923 268.08302,3.9269266 258.79669,1.8645473 249.48758,2.006913 c -0.0973,7.88e-4 -0.19362,0.00163 -0.28991,0.00245 z m 1.65765,10.3999432 c 0.88835,-0.002 1.84712,0.01926 2.68888,0.05581 0.66989,0.03375 1.26006,0.06689 1.93202,0.121554 1.44229,0.116894 2.95187,0.301503 4.33618,0.523074 6.76517,1.086736 13.32742,3.450821 19.19906,6.987578 1.33771,0.787304 2.63919,1.635385 3.91064,2.525191 0.22157,0.162348 0.55185,0.397483 0.81588,0.587889 1.46817,1.074518 2.8856,2.218096 4.2492,3.422555 0.23296,0.213806 0.56118,0.505369 0.82934,0.750651 6.55396,6.033786 11.74018,13.593205 14.77178,21.984035 3.31322,9.072318 4.2813,19.015701 2.60812,28.537995 -0.1553,0.88991 -0.3541,1.841115 -0.56324,2.746762 -0.0497,0.19196 -0.13046,0.52908 -0.19155,0.776639 -1.46196,5.82526 -3.86818,11.403375 -7.00125,16.522815 -3.61244,5.852177 -8.32032,11.035087 -13.86374,15.114487 -4.5153,3.35256 -9.55657,5.98968 -14.87222,7.82334 -0.48352,0.16773 -1.0654,0.35824 -1.58931,0.52286 -1.5862,0.49388 -3.25834,0.93185 -4.84247,1.27249 -1.27973,0.27334 -2.56775,0.50216 -3.86197,0.69784 -0.25781,0.0373 -0.64712,0.0901 -0.95566,0.13253 -3.37845,0.439 -6.79417,0.58085 -10.19746,0.43383 -0.27438,-0.0166 -0.68025,-0.0373 -1.00536,-0.0549 -9.4551,-0.58292 -18.81287,-3.45299 -26.8029,-8.5802 -0.62227,-0.40276 -1.3108,-0.8604 -1.94031,-1.31079 -3.24902,-2.29026 -6.21021,-4.98225 -8.82144,-7.97865 -1.06334,-1.19141 -2.1039,-2.45178 -3.09268,-3.73886 -0.49285,-0.64577 -0.94841,-1.2643 -1.40709,-1.91142 -4.75654,-6.703152 -8.18572,-14.408767 -9.56692,-22.532158 -0.70716,-4.059314 -0.88007,-8.201977 -0.60777,-12.310989 0.0331,-0.48725 0.0745,-1.06344 0.12011,-1.583615 0.0507,-0.55103 0.11286,-1.196797 0.1843,-1.783133 0.20707,-1.762115 0.50423,-3.568854 0.86247,-5.270917 0.27023,-1.281284 0.58499,-2.561843 0.93081,-3.796431 0.78896,-2.808367 1.8233,-5.61808 3.02952,-8.226929 2.79139,-6.04269 6.71237,-11.577836 11.60455,-16.102347 6.9795,-6.519896 15.38783,-11.611589 24.59547,-14.254502 0.98361,-0.282452 1.99311,-0.540469 2.93841,-0.754379 3.79571,-0.862575 7.6846,-1.314623 11.5766,-1.349722 z"
     fill="#5d91a6"
     id="path3"
     style="stroke-width:1.03538" />
  <path
     d="m 249.28878,36.394834 c -4.83108,0.03261 -9.66424,-0.03406 -14.49429,0.05405 -0.65436,0.03603 -2.16602,0.464576 -2.68371,0.860609 -1.21243,0.730047 -1.61623,1.166149 -2.74583,2.026033 -0.79931,1.286254 -1.54065,2.694993 -1.57792,4.24413 -0.2516,3.041327 -0.16773,6.096426 -0.19051,9.144691 0.0145,12.079684 0.006,24.15968 0.0673,36.239158 0.0238,1.61126 0.0694,3.233598 0.36963,4.842373 0.28059,1.487635 0.7434,3.056651 1.90821,4.100418 0.60259,0.559831 1.21657,1.130326 1.93305,1.540751 0.67818,0.307715 1.4133,0.337327 2.11943,0.437241 1.09957,0.121452 2.16084,0.120102 3.25213,0.149812 5.36741,0.0645 10.73586,-0.03478 16.10017,-0.200339 1.35739,-0.09557 2.70856,-0.265885 4.04731,-0.502677 0.63261,-0.110268 1.35117,-0.2546 2.01071,-0.405973 4.02349,-0.905855 7.99417,-2.373714 11.32913,-4.848378 1.35014,-0.989099 2.53358,-2.186103 3.58139,-3.488094 0.69991,-0.835346 1.41847,-1.777128 2.0076,-2.622724 1.37706,-1.978819 2.50666,-4.135621 3.25213,-6.431785 1.00225,-2.893579 1.66903,-5.903017 1.98793,-8.948694 0.0373,-0.360002 0.0797,-0.838037 0.10975,-1.244217 0.0497,-0.707476 0.087,-1.394968 0.10043,-2.056163 0.0321,-1.293294 0.009,-2.552835 -0.0745,-3.829356 -0.23711,-3.541416 -0.89768,-7.067406 -2.08526,-10.415931 -1.18137,-3.159465 -2.88043,-6.134942 -5.04541,-8.723705 -1.56964,-1.860476 -3.41676,-3.486542 -5.46785,-4.797023 -0.12735,-0.07403 -0.41519,-0.257396 -0.6057,-0.370459 -2.985,-1.785308 -5.77535,-2.874321 -9.06993,-3.955052 -1.06955,-0.346852 -2.12564,-0.539433 -3.25006,-0.553411 -0.39034,-0.01833 -1.40087,-0.212978 -1.80881,-0.221675 -1.69182,-0.04255 -3.38466,-0.02526 -5.07648,-0.02361 z m -1.17101,11.607034 c 3.62176,0.172598 7.32739,0.179431 10.8042,1.34175 2.8152,0.907718 5.43471,2.519289 7.34499,4.797127 2.93013,3.344176 4.57017,7.731913 4.76068,12.159098 0.1491,2.806296 -0.0311,5.646657 -0.68956,8.383272 -0.88629,3.599501 -2.82245,6.996379 -5.72359,9.345658 -3.20347,2.652232 -7.3512,4.046165 -11.49065,4.127442 -2.79553,0.09671 -5.59003,-0.07579 -8.38555,-0.08511 -1.85437,-0.03686 -3.70977,-0.07341 -5.56414,-0.110682 -0.0642,-10.63243 -0.16048,-21.265688 -0.1698,-31.897806 0.15427,-1.314313 0.29197,-2.640946 0.61812,-3.924508 0.39034,-1.138298 1.72391,-2.538961 2.79656,-2.96471 1.86058,-0.944163 3.56378,-1.196693 5.69874,-1.171533 z"
     fill="#5d91a6"
     id="path4"
     style="stroke-width:1.03538" />
</svg>
