<?xml version="1.0" encoding="UTF-8" standalone="no"?>
<!-- Created with Inkscape (http://www.inkscape.org/) -->

<svg
   width="77.733368mm"
   height="33.866665mm"
   viewBox="0 0 77.733362 33.866664"
   version="1.1"
   id="svg1"
   xml:space="preserve"
   xmlns="http://www.w3.org/2000/svg"
   xmlns:svg="http://www.w3.org/2000/svg"><defs
     id="defs1" /><g
     id="layer21"
     transform="translate(-340.94774,-44.446412)"><path
       fill-rule="evenodd"
       clip-rule="evenodd"
       fill="#494949"
       d="m -103.05593,295.85737 c 35.204296,-0.0534 63.702496,-28.69037 63.702496,-64.01486 0,-34.75034 -28.3667,-63.36983 -62.256396,-63.9748 -35.59152,-0.63476 -65.33266,28.24562 -65.34188,63.26711 -0.0113,36.03013 28.36067,64.7739 63.89578,64.72255 z m -0.1036,-124.89086 c 33.799296,-0.0113 60.729196,27.44961 60.718896,61.91441 -0.011,32.53793 -27.6551,59.75747 -60.694196,59.76466 -33.65958,0.008 -60.72814,-27.28322 -60.72708,-61.22419 0.002,-33.06587 27.49172,-60.44358 60.70238,-60.45488 z m -25.5095,32.11373 c 0.55261,1.84162 -0.9942,2.48254 -2.63864,2.61093 -1.73064,0.13353 -3.46031,0.26396 -5.46939,0.41701 6.63107,19.7555 13.16251,39.21828 19.84898,59.13401 0.4766,-0.77958 0.6728,-0.99938 0.75905,-1.25616 3.6709,-10.97163 7.3624,-21.93606 10.9398,-32.93851 0.3266,-1.00349 0.164,-2.33257 -0.1931,-3.3638 -1.893,-5.46424 -4.1609,-10.80934 -5.82069,-16.33932 -1.13496,-3.78594 -2.64072,-6.23561 -7.11583,-5.79703 -0.76215,0.075 -1.6927,-1.56532 -2.54623,-2.41269 1.03222,-0.61627 2.05731,-1.7502 3.09879,-1.76561 a 872.6286,872.6286 0 0 1 27.339756,0.008 c 1.0456,0.0175 2.0706,1.18118 3.1029,1.81285 -0.9039,0.8258 -1.6835,2.0645 -2.7404,2.38393 -1.6957,0.5115 -3.5764,0.41496 -5.6059,0.59573 l 19.8736,59.12066 c 3.0104,-9.99998 5.8114,-19.18238 8.5353,-28.38839 2.4301,-8.21794 0.9819,-15.89254 -3.4121,-23.1306 -1.3208,-2.17647 -2.9437,-4.28821 -3.6925,-6.66187 -0.8504,-2.70029 -1.5571,-5.77444 -1.1062,-8.48293 0.7652,-4.59018 4.2872,-6.86934 9.053,-7.30587 -26.0804,-24.20496 -67.064356,-15.54023 -82.166026,10.75902 5.81348,-0.26809 11.36402,-0.62038 16.91864,-0.69638 1.04969,-0.0132 2.79065,0.87407 3.03715,1.69679 z m 10.39132,80.08508 c -0.12094,0.35437 -0.1285,0.74877 -0.22412,1.33731 11.2397,3.11626 22.262696,2.89132 33.544496,-0.91003 l -17.234996,-47.20614 c -5.5156,16.03427 -10.80519,31.404 -16.0856,46.77886 z m -8.68535,-2.13434 -25.96649,-71.23033 c -11.71423,22.88204 -2.80297,57.79363 25.96649,71.23033 z m 78.500226,-45.77023 c 0.8237,-10.81962 -2.9088,-25.80008 -6.1319,-27.86046 -0.3594,3.98006 -0.1092,8.40795 -1.251,12.44245 -2.688,9.50594 -5.9748,18.84651 -9.1403,28.21276 -3.4408,10.18075 -7.0172,20.31528 -10.5351,30.47035 16.5283,-9.79764 25.6111,-24.25837 27.0583,-43.2651 z"
       id="path1-42-0"
       style="fill:#5d91a6;fill-opacity:1;stroke-width:1.02711"
       transform="matrix(0.26458333,0,0,0.26458333,385.12036,0.03413008)" /><g
       id="layer1-7-3"
       transform="matrix(0.26458333,0,0,0.26458333,261.21022,25.902162)"
       style="fill:#5d91a6;fill-opacity:1"><path
         id="path1-9-4"
         style="display:inline;fill:#5d91a6;fill-opacity:1;stroke-width:0.394507"
         d="m 530.26247,70.608191 c -2.72327,0.08384 -5.44585,0.316132 -8.12486,0.825233 -3.80834,0.715092 -7.55971,1.742767 -11.1992,3.072806 -11.94283,4.400541 -22.64654,12.22321 -30.26434,22.4405 -2.97462,3.97294 -5.42407,8.33539 -7.27101,12.94214 -1.82198,4.48862 -3.15895,9.17427 -3.99648,13.94513 -0.60677,3.84052 -0.65581,7.74167 -0.63434,11.62154 0.0274,4.82895 0.52852,9.65912 1.58288,14.37385 1.82348,8.24903 5.33141,16.15656 10.46148,22.88594 1.42998,1.89544 2.84551,3.80855 4.42894,5.58012 1.84772,1.96112 3.97644,3.62555 6.0571,5.32744 5.96388,4.74205 12.59235,8.76554 19.84923,11.17962 4.15789,1.38262 8.46855,2.28649 12.81554,2.81582 9.71628,1.15664 19.69723,0.1841 28.96704,-2.97151 6.34253,-2.1599 12.35314,-5.30934 17.71719,-9.32653 10.53774,-7.93729 18.34647,-19.42182 21.85897,-32.1379 2.12868,-7.58084 2.88292,-15.50913 2.59659,-23.36539 -0.171,-3.68944 -0.79432,-7.34825 -1.67185,-10.93179 -3.17163,-12.66182 -10.37062,-24.295967 -20.34552,-32.723964 -4.93039,-4.132608 -10.47666,-7.519167 -16.36507,-10.10315 -8.22248,-3.59787 -17.19177,-5.589771 -26.18271,-5.45227 -0.0933,7.61e-4 -0.18639,0.0015 -0.27958,0.0023 z m 1.60114,10.044513 c 0.8573,-0.0019 1.78366,0.0186 2.59666,0.05393 0.64716,0.03264 1.21711,0.0646 1.86621,0.117414 1.39312,0.112878 2.85079,0.291227 4.18777,0.505166 6.53392,1.049638 12.87231,3.332928 18.54353,6.748858 1.29165,0.760329 2.54826,1.579469 3.77616,2.438838 0.2145,0.156812 0.53388,0.383981 0.78862,0.567795 1.41788,1.03787 2.78659,2.142357 4.10341,3.305614 0.22507,0.206516 0.54243,0.488161 0.80165,0.725052 6.32953,5.827559 11.33869,13.128679 14.26691,21.232829 3.19972,8.76224 4.13446,18.36587 2.51859,27.56274 -0.14963,0.85955 -0.34213,1.77817 -0.54399,2.6529 -0.0476,0.18543 -0.12563,0.511 -0.18488,0.75013 -1.41223,5.62615 -3.73634,11.01364 -6.76224,15.95817 -3.48896,5.65217 -8.03608,10.65826 -13.38933,14.59759 -4.3615,3.23803 -9.23012,5.78542 -14.36396,7.55688 -0.46721,0.1615 -1.02912,0.34524 -1.53566,0.5047 -1.53193,0.47701 -3.14655,0.89969 -4.67628,1.22899 -1.23588,0.26403 -2.48073,0.48452 -3.73009,0.67418 -0.24919,0.0355 -0.62542,0.0862 -0.92335,0.12755 -3.26287,0.42447 -6.56217,0.56129 -9.84931,0.41877 -0.26475,-0.016 -0.65666,-0.0355 -0.97023,-0.0527 -9.13277,-0.56325 -18.17064,-3.33483 -25.88705,-8.28741 -0.6011,-0.38904 -1.26594,-0.83087 -1.87463,-1.26579 -3.13823,-2.21174 -5.99794,-4.8122 -8.5198,-7.70576 -1.02689,-1.15068 -2.03147,-2.36798 -2.98721,-3.61106 -0.47537,-0.62376 -0.91622,-1.22108 -1.35877,-1.84608 -4.5941,-6.47415 -7.90583,-13.9164 -9.24017,-21.76227 -0.68259,-3.92057 -0.85011,-7.92172 -0.58672,-11.89031 0.0318,-0.47056 0.072,-1.02709 0.11557,-1.5295 0.0491,-0.53219 0.10958,-1.1559 0.17878,-1.72221 0.1994,-1.70183 0.48681,-3.4469 0.83216,-5.09074 0.26126,-1.23755 0.56523,-2.47428 0.89899,-3.66675 0.7628,-2.71235 1.76097,-5.42603 2.92664,-7.94578 2.69564,-5.83615 6.48312,-11.1822 11.20739,-15.552075 6.7409,-6.297142 14.86233,-11.214831 23.75548,-13.767374 0.9497,-0.272828 1.92528,-0.522022 2.83796,-0.728624 3.66609,-0.833153 7.42186,-1.269687 11.18119,-1.303656 z" /><path
         id="path2-31-9"
         d="m 530.34954,103.81919 c -4.66617,0.0315 -9.33358,-0.0329 -13.99894,0.0522 -0.63243,0.0348 -2.09176,0.4487 -2.5923,0.83121 -1.17059,0.70504 -1.5607,1.12624 -2.65175,1.95671 -0.77224,1.24236 -1.48762,2.60295 -1.52426,4.09919 -0.24275,2.93735 -0.16169,5.88802 -0.1838,8.83216 0.0143,11.66693 0.006,23.33408 0.0654,35.00084 0.0225,1.55617 0.0669,3.12303 0.35675,4.67682 0.27058,1.43681 0.71817,2.95224 1.843,3.96032 0.58189,0.54068 1.17519,1.09175 1.86665,1.4881 0.65569,0.29719 1.36566,0.32586 2.04774,0.42235 1.0615,0.11732 2.08638,0.11593 3.14111,0.14468 5.18358,0.0623 10.36827,-0.0336 15.54933,-0.19348 1.31065,-0.0923 2.61581,-0.25684 3.90958,-0.48549 0.61059,-0.1065 1.30424,-0.24599 1.94139,-0.39214 3.88616,-0.87491 7.72125,-2.29264 10.9418,-4.68267 1.30431,-0.95537 2.4475,-2.11146 3.45922,-3.36895 0.67627,-0.80683 1.36994,-1.7164 1.93896,-2.53309 1.32989,-1.91115 2.42078,-3.9943 3.14073,-6.21201 0.96835,-2.79473 1.61217,-5.70124 1.92007,-8.64286 0.0362,-0.34776 0.0771,-0.80943 0.10606,-1.20171 0.0482,-0.68328 0.0846,-1.3473 0.0972,-1.98588 0.0314,-1.24911 0.009,-2.46563 -0.0721,-3.69857 -0.22824,-3.4204 -0.8667,-6.82587 -2.01382,-10.05996 -1.14092,-3.05147 -2.78166,-5.92529 -4.87322,-8.42561 -1.51537,-1.7969 -3.30004,-3.36738 -5.28115,-4.63314 -0.12272,-0.0715 -0.40072,-0.2486 -0.58487,-0.35771 -2.88226,-1.72433 -5.5773,-2.77618 -8.76003,-3.81996 -1.03262,-0.33499 -2.05258,-0.52094 -3.1387,-0.53443 -0.37692,-0.0177 -1.35288,-0.20577 -1.74661,-0.21411 -1.63408,-0.0411 -3.26892,-0.0244 -4.90336,-0.0228 z m -1.13111,11.21032 c 3.49835,0.16671 7.07714,0.17335 10.43515,1.296 2.71868,0.87661 5.24905,2.43319 7.09392,4.63311 2.83039,3.22996 4.41422,7.46772 4.59769,11.74366 0.14462,2.71042 -0.0297,5.45364 -0.66587,8.09677 -0.85582,3.4765 -2.72555,6.75729 -5.52726,9.02633 -3.09414,2.56161 -7.1005,3.90785 -11.09826,3.98636 -2.69975,0.0934 -5.39931,-0.0732 -8.09919,-0.0822 -1.79125,-0.0356 -3.5825,-0.0709 -5.37373,-0.1069 -0.0623,-10.26909 -0.15517,-20.53896 -0.16413,-30.80775 0.14915,-1.26941 0.28189,-2.55073 0.59689,-3.79047 0.37752,-1.0994 1.66473,-2.45214 2.70098,-2.86335 1.79666,-0.91187 3.44218,-1.15578 5.50381,-1.13151 z"
         style="fill:#5d91a6;fill-opacity:1;stroke-width:0.394507" /></g></g></svg>
