<svg width="317" height="134" viewBox="0 0 317 134" fill="none" xmlns="http://www.w3.org/2000/svg">
<path d="M152.818 94.2273V49.2273H160.455V94.2273H152.818ZM134.136 75.5455V67.9091H179.136V75.5455H134.136Z" fill="#5D91A6"/>
<path fill-rule="evenodd" clip-rule="evenodd" d="M64.0938 132.223C98.3688 132.171 126.115 104.29 126.115 69.8976C126.115 36.0646 98.4968 8.20056 65.5018 7.61156C30.8498 6.99356 1.89377 35.1116 1.88477 69.2086C1.87477 104.288 29.4968 132.273 64.0938 132.223ZM63.9928 10.6286C96.8998 10.6176 123.119 37.3536 123.109 70.9086C123.098 102.588 96.1838 129.089 64.0168 129.096C31.2458 129.103 4.89177 102.533 4.89277 69.4876C4.89477 37.2946 31.6588 10.6396 63.9928 10.6286ZM39.1568 41.8946C39.6948 43.6876 38.1888 44.3116 36.5878 44.4366C34.9028 44.5666 33.2188 44.6936 31.2628 44.8426C37.7188 64.0766 44.0778 83.0256 50.5878 102.416C51.0518 101.657 51.2428 101.443 51.3268 101.193C54.9008 90.5106 58.4948 79.8356 61.9778 69.1236C62.2958 68.1466 62.1378 66.8526 61.7898 65.8486C59.9468 60.5286 57.7388 55.3246 56.1228 49.9406C55.0178 46.2546 53.5518 43.8696 49.1948 44.2966C48.4528 44.3696 47.5468 42.7726 46.7158 41.9476C47.7208 41.3476 48.7188 40.2436 49.7328 40.2286C58.6049 40.0922 67.4787 40.0949 76.3508 40.2366C77.3688 40.2536 78.3668 41.3866 79.3718 42.0016C78.4918 42.8056 77.7328 44.0116 76.7038 44.3226C75.0528 44.8206 73.2218 44.7266 71.2458 44.9026L90.5948 102.463C93.5258 92.7266 96.2528 83.7866 98.9048 74.8236C101.271 66.8226 99.8608 59.3506 95.5828 52.3036C94.2968 50.1846 92.7168 48.1286 91.9878 45.8176C91.1598 43.1886 90.4718 40.1956 90.9108 37.5586C91.6558 33.0896 95.0848 30.8706 99.7248 30.4456C74.3328 6.87956 34.4308 15.3156 19.7278 40.9206C25.3878 40.6596 30.7918 40.3166 36.1998 40.2426C37.2218 40.2296 38.9168 41.0936 39.1568 41.8946ZM49.2738 119.866C49.1558 120.211 49.1488 120.595 49.0558 121.168C59.9988 124.202 70.7308 123.983 81.7148 120.282L64.9348 74.3216C59.5648 89.9326 54.4148 104.897 49.2738 119.866ZM40.8178 117.788L15.5368 48.4376C4.13177 70.7156 12.8078 104.706 40.8178 117.788ZM117.246 73.2256C118.048 62.6916 114.414 48.1066 111.276 46.1006C110.926 49.9756 111.17 54.2866 110.058 58.2146C107.441 67.4696 104.241 76.5636 101.159 85.6826C97.8088 95.5946 94.3268 105.462 90.9018 115.349C106.994 105.81 115.837 91.7306 117.246 73.2256Z" fill="#5D91A6"/>
<path d="M251.494 0.00904193C248.771 0.0928819 246.048 0.325174 243.369 0.834275C239.561 1.54937 235.81 2.57704 232.17 3.90708C220.227 8.30762 209.524 16.1303 201.906 26.3476C198.931 30.3205 196.482 34.683 194.635 39.2897C192.813 43.7783 191.476 48.464 190.638 53.2348C190.031 57.0754 189.982 60.9765 190.004 64.8564C190.031 69.6853 190.532 74.5155 191.587 79.2302C193.41 87.4793 196.918 95.3868 202.048 102.116C203.478 104.012 204.894 105.925 206.477 107.696C208.325 109.657 210.454 111.322 212.534 113.024C218.498 117.766 225.127 121.789 232.383 124.203C236.541 125.586 240.852 126.49 245.199 127.019C254.915 128.176 264.896 127.203 274.166 124.048C280.509 121.888 286.519 118.738 291.883 114.721C302.421 106.784 310.23 95.2993 313.742 82.5832C315.871 75.0024 316.625 67.0741 316.339 59.2178C316.168 55.5284 315.545 51.8696 314.667 48.2861C311.495 35.6242 304.296 23.9901 294.321 15.5621C289.391 11.4295 283.845 8.04293 277.956 5.45895C269.734 1.86108 260.765 -0.130824 251.774 0.00667682C251.68 0.00743782 251.587 0.00824193 251.494 0.00904193ZM253.095 10.0536C253.953 10.0517 254.879 10.0722 255.692 10.1075C256.339 10.1401 256.909 10.1721 257.558 10.2249C258.951 10.3378 260.409 10.5161 261.746 10.7301C268.28 11.7797 274.618 14.063 280.289 17.4789C281.581 18.2393 282.838 19.0584 284.066 19.9178C284.28 20.0746 284.599 20.3017 284.854 20.4856C286.272 21.5234 287.641 22.6279 288.958 23.7912C289.183 23.9977 289.5 24.2793 289.759 24.5162C296.089 30.3438 301.098 37.6449 304.026 45.749C307.226 54.5113 308.161 64.1149 306.545 73.3118C306.395 74.1713 306.203 75.09 306.001 75.9647C305.953 76.1501 305.875 76.4757 305.816 76.7148C304.404 82.341 302.08 87.7285 299.054 92.673C295.565 98.3252 291.018 103.331 285.664 107.271C281.303 110.509 276.434 113.056 271.3 114.827C270.833 114.989 270.271 115.173 269.765 115.332C268.233 115.809 266.618 116.232 265.088 116.561C263.852 116.825 262.608 117.046 261.358 117.235C261.109 117.271 260.733 117.322 260.435 117.363C257.172 117.787 253.873 117.924 250.586 117.782C250.321 117.766 249.929 117.746 249.615 117.729C240.483 117.166 231.445 114.394 223.728 109.442C223.127 109.053 222.462 108.611 221.854 108.176C218.716 105.964 215.856 103.364 213.334 100.47C212.307 99.3193 211.302 98.102 210.347 96.8589C209.871 96.2352 209.431 95.6378 208.988 95.0128C204.394 88.5387 201.082 81.0964 199.748 73.2506C199.065 69.33 198.898 65.3289 199.161 61.3603C199.193 60.8897 199.233 60.3332 199.277 59.8308C199.326 59.2986 199.386 58.6749 199.455 58.1086C199.655 56.4067 199.942 54.6617 200.288 53.0178C200.549 51.7803 200.853 50.5435 201.187 49.3511C201.949 46.6387 202.948 43.925 204.113 41.4053C206.809 35.5691 210.596 30.2231 215.321 25.8532C222.062 19.5561 230.183 14.6384 239.076 12.0858C240.026 11.813 241.001 11.5638 241.914 11.3572C245.58 10.5241 249.336 10.0875 253.095 10.0536Z" fill="#5D91A6"/>
<path d="M251.582 33.2195C246.916 33.251 242.248 33.1866 237.583 33.2717C236.951 33.3065 235.491 33.7204 234.991 34.1029C233.82 34.808 233.43 35.2292 232.339 36.0597C231.567 37.302 230.851 38.6626 230.815 40.1588C230.572 43.0962 230.653 46.0469 230.631 48.991C230.645 60.6579 230.637 72.3251 230.696 83.9918C230.719 85.548 230.763 87.1149 231.053 88.6687C231.324 90.1055 231.771 91.6209 232.896 92.629C233.478 93.1697 234.071 93.7207 234.763 94.1171C235.418 94.4143 236.128 94.4429 236.81 94.5394C237.872 94.6567 238.897 94.6554 239.951 94.6841C245.135 94.7464 250.32 94.6505 255.501 94.4906C256.812 94.3983 258.117 94.2338 259.41 94.0051C260.021 93.8986 260.715 93.7592 261.352 93.613C265.238 92.7381 269.073 91.3204 272.294 88.9303C273.598 87.975 274.741 86.8189 275.753 85.5614C276.429 84.7546 277.123 83.845 277.692 83.0283C279.022 81.1171 280.113 79.034 280.833 76.8163C281.801 74.0216 282.445 71.115 282.753 68.1734C282.789 67.8257 282.83 67.364 282.859 66.9717C282.907 66.2884 282.943 65.6244 282.956 64.9858C282.987 63.7367 282.965 62.5202 282.884 61.2873C282.655 57.8669 282.017 54.4614 280.87 51.2273C279.729 48.1758 278.088 45.302 275.997 42.8017C274.481 41.0048 272.697 39.4343 270.716 38.1686C270.593 38.0971 270.315 37.92 270.131 37.8108C267.248 36.0865 264.553 35.0347 261.371 33.9909C260.338 33.6559 259.318 33.4699 258.232 33.4564C257.855 33.4387 256.879 33.2507 256.485 33.2423C254.851 33.2012 253.216 33.2179 251.582 33.2195ZM250.451 44.4299C253.949 44.5966 257.528 44.6032 260.886 45.7258C263.605 46.6025 266.135 48.159 267.98 50.359C270.81 53.5889 272.394 57.8267 272.578 62.1026C272.722 64.813 272.548 67.5563 271.912 70.1994C271.056 73.6759 269.186 76.9567 266.384 79.2257C263.29 81.7873 259.284 83.1336 255.286 83.2121C252.586 83.3055 249.887 83.1389 247.187 83.1299C245.396 83.0943 243.604 83.059 241.813 83.023C241.751 72.7539 241.658 62.484 241.649 52.2152C241.798 50.9458 241.931 49.6645 242.246 48.4248C242.623 47.3254 243.911 45.9726 244.947 45.5614C246.744 44.6495 248.389 44.4056 250.451 44.4299Z" fill="#5D91A6"/>
</svg>
