<?xml version="1.0" encoding="UTF-8" standalone="no"?>
<!-- Created with Inkscape (http://www.inkscape.org/) -->

<svg
   width="33.866669mm"
   height="33.866665mm"
   viewBox="0 0 33.866669 33.866664"
   version="1.1"
   id="svg1"
   xml:space="preserve"
   xmlns="http://www.w3.org/2000/svg"
   xmlns:svg="http://www.w3.org/2000/svg"><defs
     id="defs1" /><g
     id="layer4-4"
     transform="translate(-34.971659,-0.15152535)"
     style="display:inline"><g
       id="g23-5"
       transform="matrix(0.26458333,0,0,0.26782471,35.15054,-0.21057584)"><path
         fill="#1572b6"
         d="M 18.814,114.123 8.76,1.352 h 110.48 l -10.064,112.754 -45.243,12.543 z"
         id="path1-3-7"
         style="fill:#5d91a6;fill-opacity:1" /><path
         fill="#33a9dc"
         d="m 64.001,117.062 36.559,-10.136 8.601,-96.354 h -45.16 z"
         id="path2-3-9"
         style="fill:#90b4c0;fill-opacity:1" /><path
         fill="#ffffff"
         d="M 64.001,51.429 H 82.303 L 83.567,37.266 H 64.001 V 23.435 h 34.682 l -0.332,3.711 -3.4,38.114 h -30.95 z"
         id="path3-7-8" /><path
         fill="#ebebeb"
         d="M 64.083,87.349 64.022,87.367 48.619,83.208 47.634,72.177 H 33.752 l 1.937,21.717 28.331,7.863 0.063,-0.018 z"
         id="path4-4-3" /><path
         fill="#ffffff"
         d="m 81.127,64.675 -1.666,18.522 -15.426,4.164 v 14.39 l 28.354,-7.858 0.208,-2.337 2.406,-26.881 z"
         id="path5-0" /><path
         fill="#ebebeb"
         d="M 64.048,23.435 V 37.266 H 30.64 l -0.277,-3.108 -0.63,-7.012 -0.331,-3.711 z M 64.001,51.431 V 65.262 H 48.792 l -0.277,-3.108 -0.631,-7.012 -0.33,-3.711 z"
         id="path6-2" /></g></g></svg>
