<?xml version="1.0" encoding="UTF-8" standalone="no"?>
<!-- Created with Inkscape (http://www.inkscape.org/) -->

<svg
   width="33.866669mm"
   height="33.866665mm"
   viewBox="0 0 33.866669 33.866665"
   version="1.1"
   id="svg1"
   xml:space="preserve"
   xmlns="http://www.w3.org/2000/svg"
   xmlns:svg="http://www.w3.org/2000/svg"><defs
     id="defs1" /><g
     id="layer22"
     transform="translate(-560.47298,-50.305592)"><g
       id="layer16-3"
       transform="translate(-8.8934561,44.637176)"><g
         id="g29-5"
         transform="matrix(0.26458333,0,0,0.26458333,568.57267,5.5361283)"
         style="fill:#5d91a6;fill-opacity:1"><path
           fill="#0acf83"
           d="M 45.5,129 C 57.4,129 67,119.4 67,107.5 V 86 H 45.5 C 33.6,86 24,95.6 24,107.5 24,119.4 33.6,129 45.5,129 m 0,0"
           id="path1-7-2"
           style="fill:#88afbd;fill-opacity:1" /><path
           fill="#a259ff"
           d="M 24,64.5 C 24,52.6 33.6,43 45.5,43 H 67 V 86 H 45.5 C 33.6,86 24,76.4 24,64.5 m 0,0"
           id="path2-69-8"
           style="fill:#5d91a6;fill-opacity:1" /><path
           fill="#f24e1e"
           d="M 24,21.5 C 24,9.6 33.6,0 45.5,0 H 67 V 43 H 45.5 C 33.6,43 24,33.4 24,21.5 m 0,0"
           id="path3-3-0"
           style="fill:#78a2b4;fill-opacity:1" /><path
           fill="#ff7262"
           d="M 67,0 H 88.5 C 100.4,0 110,9.6 110,21.5 110,33.4 100.4,43 88.5,43 H 67 Z m 0,0"
           id="path4-5-7"
           style="fill:#5d91a6;fill-opacity:1" /><path
           fill="#1abcfe"
           d="M 110,64.5 C 110,76.4 100.4,86 88.5,86 76.6,86 67,76.4 67,64.5 67,52.6 76.6,43 88.5,43 100.4,43 110,52.6 110,64.5 m 0,0"
           id="path5-7-2"
           style="fill:#93b6c3;fill-opacity:1" /></g></g></g></svg>
