<svg width="557" height="129" viewBox="0 0 557 129" fill="none" xmlns="http://www.w3.org/2000/svg">
<path d="M161.814 114.123L151.76 1.35156H262.24L252.176 114.106L206.933 126.649L161.814 114.123Z" fill="#2792BE"/>
<path d="M207.002 117.06L243.561 106.924L252.162 10.5703H207.002V117.06Z" fill="#8DB7C8"/>
<path d="M207.002 51.4276H225.304L226.568 37.2646H207.002V23.4336H241.684L241.352 27.1446L237.952 65.2586H207.002V51.4276Z" fill="white"/>
<path d="M207.083 87.3478L207.022 87.3658L191.619 83.2068L190.634 72.1758H176.752L178.689 93.8928L207.02 101.756L207.083 101.738V87.3478Z" fill="#EBEBEB"/>
<path d="M224.127 64.6758L222.461 83.1978L207.035 87.3618V101.752L235.389 93.8938L235.597 91.5568L238.003 64.6758H224.127Z" fill="white"/>
<path d="M207.048 23.4336V37.2646H173.64L173.363 34.1566L172.733 27.1446L172.402 23.4336H207.048ZM207.001 51.4296V65.2606H191.792L191.515 62.1526L190.884 55.1406L190.554 51.4296H207.001Z" fill="#EBEBEB"/>
<path d="M19.0363 114.875L9.03125 2.66016H118.967L108.951 114.858L63.9323 127.338L19.0363 114.875Z" fill="#2792BE"/>
<path d="M64 117.8L100.378 107.714L108.937 11.8359H64V117.8Z" fill="#8DB7C8"/>
<path d="M63.9993 53.4537H45.7873L44.5293 39.3597H63.9993V25.5977H29.4883L29.8183 29.2897L33.2003 67.2167H63.9993V53.4537ZM63.9993 89.1967L63.9383 89.2137L48.6113 85.0737L47.6323 74.0987H33.8153L35.7433 95.7077L63.9363 103.534L63.9993 103.517V89.1967Z" fill="#EBEBEB"/>
<path d="M63.9512 53.4537V67.2167H80.8982L79.3012 85.0657L63.9512 89.2087V103.528L92.1662 95.7077L92.3732 93.3827L95.6072 57.1497L95.9422 53.4537H92.2342H63.9512ZM63.9512 25.5977V39.3597H97.1952L97.4712 36.2677L98.0992 29.2897L98.4282 25.5977H63.9512Z" fill="white"/>
<path d="M287.408 2.40625H412.592V127.591H287.408V2.40625Z" fill="#5D91A6"/>
<path d="M402.348 97.7369C401.431 92.0259 397.707 87.2288 386.676 82.7558C382.844 80.9948 378.572 79.7339 377.299 76.8299C376.847 75.1399 376.787 74.1879 377.073 73.1649C377.894 69.8449 381.857 68.8099 384.998 69.7619C387.021 70.4399 388.936 71.9989 390.091 74.4859C395.493 70.9879 395.482 71.0109 399.254 68.6069C397.873 66.4659 397.136 65.4779 396.232 64.5619C392.983 60.9329 388.556 59.0639 381.476 59.2069L377.788 59.6839C374.254 60.5769 370.886 62.4319 368.911 64.9189C362.985 71.6429 364.675 83.4108 371.886 88.2538C378.99 93.5858 389.426 94.7988 390.759 99.7848C392.056 105.889 386.273 107.865 380.525 107.163C376.289 106.282 373.933 104.129 371.386 100.214C366.698 102.927 366.698 102.927 361.878 105.699C363.021 108.198 364.222 109.329 366.138 111.494C375.206 120.692 397.898 120.24 401.968 106.318C402.133 105.84 403.229 102.652 402.348 97.7369ZM355.463 59.9439H343.754L343.706 90.2158C343.706 96.6538 344.039 102.556 342.992 104.365C341.279 107.923 336.84 107.482 334.817 106.792C332.758 105.78 331.711 104.341 330.498 102.307C330.165 101.723 329.915 101.271 329.831 101.236L320.311 107.066C321.894 110.315 324.226 113.135 327.213 114.967C331.675 117.645 337.672 118.466 343.944 117.026C348.026 115.837 351.548 113.374 353.392 109.625C356.058 104.71 355.486 98.7608 355.462 92.1809C355.522 81.4459 355.463 70.7129 355.463 59.9439Z" fill="white"/>
<path d="M443.985 27.7123C443.748 20.8973 449.057 14.6133 456.234 14.6133H529.774C536.951 14.6133 542.26 20.8973 542.023 27.7123C541.795 34.2583 542.091 42.7383 544.225 49.6523C546.366 56.5883 549.976 60.9713 555.889 61.5353V67.9223C549.976 68.4863 546.366 72.8693 544.225 79.8053C542.091 86.7193 541.795 95.1993 542.023 101.745C542.26 108.56 536.951 114.843 529.774 114.843H456.234C449.057 114.843 443.748 108.559 443.985 101.745C444.213 95.1993 443.917 86.7193 441.782 79.8053C439.642 72.8703 436.022 68.4863 430.109 67.9223V61.5353C436.022 60.9723 439.642 56.5883 441.782 49.6523C443.917 42.7383 444.212 34.2583 443.985 27.7123Z" fill="url(#paint0_linear_109_5157)"/>
<g filter="url(#filter0_d_109_5157)">
<path d="M496.111 91.7379C507.73 91.7379 514.731 86.0489 514.731 76.6654C514.731 69.5725 509.735 64.4375 502.317 63.6246V63.329C507.767 62.4425 512.044 57.3814 512.044 51.7292C512.044 43.6758 505.686 38.4297 495.997 38.4297H474.197V91.7379H496.111ZM482.675 45.1902H493.953C500.085 45.1902 503.566 47.924 503.566 52.8742C503.566 58.1572 499.517 61.1125 492.175 61.1125H482.675V45.1902ZM482.675 84.9773V67.4296H493.878C501.901 67.4296 506.064 70.3849 506.064 76.1481C506.064 81.911 502.015 84.9773 494.37 84.9773H482.675Z" fill="url(#paint1_linear_109_5157)"/>
</g>
<defs>
<filter id="filter0_d_109_5157" x="470.267" y="35.4818" width="48.3943" height="61.1697" filterUnits="userSpaceOnUse" color-interpolation-filters="sRGB">
<feFlood flood-opacity="0" result="BackgroundImageFix"/>
<feColorMatrix in="SourceAlpha" type="matrix" values="0 0 0 0 0 0 0 0 0 0 0 0 0 0 0 0 0 0 127 0" result="hardAlpha"/>
<feOffset dy="0.98264"/>
<feGaussianBlur stdDeviation="1.96528"/>
<feColorMatrix type="matrix" values="0 0 0 0 0 0 0 0 0 0 0 0 0 0 0 0 0 0 0.15 0"/>
<feBlend mode="normal" in2="BackgroundImageFix" result="effect1_dropShadow_109_5157"/>
<feBlend mode="normal" in="SourceGraphic" in2="effect1_dropShadow_109_5157" result="shape"/>
</filter>
<linearGradient id="paint0_linear_109_5157" x1="492.999" y1="14.6133" x2="492.999" y2="114.843" gradientUnits="userSpaceOnUse">
<stop stop-color="#5D91A6"/>
<stop offset="1" stop-color="#243840"/>
</linearGradient>
<linearGradient id="paint1_linear_109_5157" x1="478.033" y1="41.9377" x2="502.599" y2="83.4862" gradientUnits="userSpaceOnUse">
<stop stop-color="white"/>
<stop offset="1" stop-color="#F1E5FC"/>
</linearGradient>
</defs>
</svg>
