<?xml version="1.0" encoding="UTF-8" standalone="no"?>
<!-- Created with Inkscape (http://www.inkscape.org/) -->

<svg
   width="33.866669mm"
   height="33.866665mm"
   viewBox="0 0 33.866669 33.866665"
   version="1.1"
   id="svg1"
   xml:space="preserve"
   xmlns="http://www.w3.org/2000/svg"
   xmlns:svg="http://www.w3.org/2000/svg"><defs
     id="defs1" /><g
     id="layer22"
     transform="translate(-428.95113,-48.79036)"><g
       id="layer13-1"
       transform="translate(-0.26684343,44.756403)"><path
         fill="#f34f29"
         d="M 462.05752,19.30452 447.47474,4.722273 c -0.83926,-0.839787 -2.20133,-0.839787 -3.04191,0 l -3.0279,3.028421 3.84123,3.841221 c 0.89296,-0.30136 1.91637,-0.09922 2.62784,0.612246 0.71517,0.715963 0.91572,1.748103 0.60695,2.643982 l 3.70205,3.702314 c 0.89562,-0.308768 1.92934,-0.109273 2.64425,0.607219 1.00012,0.999331 1.00012,2.619375 0,3.619235 a 2.5593146,2.5593146 0 0 1 -3.6203,0 2.5611667,2.5611667 0 0 1 -0.55694,-2.783681 l -3.45229,-3.452283 -5.3e-4,9.086056 a 2.5664583,2.5664583 0 0 1 0.67707,0.483658 c 0.9996,0.999332 0.9996,2.618846 0,3.620294 -0.99986,0.999331 -2.62043,0.999331 -3.61923,0 -0.9996,-1.001183 -0.9996,-2.620698 0,-3.620294 a 2.5664583,2.5664583 0 0 1 0.83793,-0.55827 v -9.170194 a 2.54,2.54 0 0 1 -0.83793,-0.558536 c -0.75724,-0.756708 -0.93954,-1.867958 -0.55113,-2.798233 l -3.78698,-3.786982 -9.99914,9.998605 a 2.1518562,2.1518562 0 0 0 0,3.042708 l 14.58304,14.582246 c 0.83979,0.839788 2.20134,0.839788 3.04245,0 l 14.51451,-14.514512 a 2.1523854,2.1523854 0 0 0 -2.6e-4,-3.042973"
         id="path1-9-1"
         style="fill:#5d91a6;fill-opacity:1;stroke-width:0.264583" /></g></g></svg>
