<?xml version="1.0" encoding="UTF-8" standalone="no"?>
<!-- Created with Inkscape (http://www.inkscape.org/) -->

<svg
   width="33.866669mm"
   height="33.866665mm"
   viewBox="0 0 33.866669 33.866665"
   version="1.1"
   id="svg1"
   xml:space="preserve"
   xmlns="http://www.w3.org/2000/svg"
   xmlns:svg="http://www.w3.org/2000/svg"><defs
     id="defs1" /><g
     id="layer9-4"
     transform="translate(-251.14145,-0.84907013)"
     style="display:inline"><path
       fill="#00618a"
       d="m 282.27994,26.52286 c -1.84494,-0.05054 -3.25358,0.121973 -4.45876,0.629444 -0.3421,0.144727 -0.88767,0.147902 -0.9435,0.576791 0.18812,0.197379 0.21696,0.491861 0.36698,0.734748 0.28733,0.464079 0.77311,1.088231 1.20623,1.41605 0.47334,0.356658 0.96123,0.738981 1.4687,1.048015 0.90329,0.550862 1.91109,0.865187 2.77919,1.41605 0.51276,0.325437 1.02102,0.734748 1.52135,1.101725 0.24712,0.180975 0.41355,0.463021 0.73369,0.576791 v -0.05159 c -0.16854,-0.214845 -0.21193,-0.510649 -0.36698,-0.734751 l -0.68209,-0.682096 c -0.66675,-0.884767 -1.51315,-1.661848 -2.41221,-2.306902 -0.71728,-0.515673 -2.3233,-1.211263 -2.62202,-2.045229 l -0.0526,-0.05265 c 0.50853,-0.05794 1.10384,-0.24183 1.57401,-0.368036 0.78846,-0.210873 1.49357,-0.156104 2.3069,-0.366977 l 1.10172,-0.31406 v -0.209817 c -0.41142,-0.421746 -0.70485,-0.98081 -1.15332,-1.363133 -1.17501,-1.00039 -2.45665,-1.998927 -3.77639,-2.831836 -0.73184,-0.461962 -1.63619,-0.762793 -2.41221,-1.154377 -0.26141,-0.131233 -0.7194,-0.200554 -0.89191,-0.419629 -0.40719,-0.518848 -0.62944,-1.177131 -0.94351,-1.782762 -0.65828,-1.268148 -1.30439,-2.651919 -1.88833,-3.986213 -0.39793,-0.909373 -0.65722,-1.806575 -1.15332,-2.622021 -2.38125,-3.9150387 -4.94426,-6.2785607 -8.91513,-8.6010737 -0.84534,-0.493977 -1.8624,-0.68924 -2.9374,-0.944562 l -1.73117,-0.104511 c -0.35243,-0.146844 -0.71835,-0.57785 -1.04908,-0.787664 -1.31524,-0.831586 -4.68974,-2.63921996 -5.66446,-0.262203 -0.61489,1.499659 0.91996,2.963069 1.4687,3.723746 0.3855,0.532342 0.87842,1.130565 1.15332,1.730111 0.18203,0.394758 0.21299,0.789516 0.36804,1.206235 0.38047,1.027377 0.71305,2.1455047 1.20623,3.0943007 0.24897,0.480484 0.52388,0.986102 0.83926,1.41605 0.19235,0.263525 0.52387,0.380471 0.57679,0.786607 -0.32464,0.45376 -0.34316,1.157552 -0.52493,1.731168 -0.81968,2.58498 -0.50959,5.797021 0.68209,7.709165 0.36592,0.588169 1.22793,1.846792 2.41221,1.364192 1.03664,-0.422805 0.80513,-1.730111 1.10172,-2.884488 0.0672,-0.261408 0.0259,-0.45376 0.15717,-0.629444 v 0.05265 l 0.94456,1.887273 c 0.69876,1.125538 1.93781,2.301611 2.989,3.095361 0.54477,0.411427 0.97366,1.122362 1.67851,1.363133 v -0.05265 h -0.0526 c -0.13652,-0.21299 -0.3503,-0.300831 -0.52387,-0.471223 -0.41037,-0.40296 -0.86704,-0.903287 -1.20624,-1.364192 -0.95594,-1.296987 -1.80049,-2.71727 -2.56937,-4.194968 -0.36803,-0.705909 -0.68738,-1.484048 -0.99747,-2.202392 -0.11986,-0.277019 -0.11774,-0.696648 -0.36698,-0.839258 -0.33893,0.525991 -0.83926,0.951971 -1.10173,1.572948 -0.41857,0.993245 -0.47334,2.205566 -0.62838,3.461279 -0.0921,0.03307 -0.0516,0.01032 -0.10531,0.05265 -0.73078,-0.17674 -0.98689,-0.928156 -1.25889,-1.574004 -0.68632,-1.630892 -0.81438,-4.257146 -0.20981,-6.135952 0.1561,-0.485775 0.86307,-2.015332 0.57679,-2.464859 -0.13652,-0.44741 -0.58711,-0.706966 -0.83926,-1.049073 -0.31221,-0.422804 -0.62309,-0.979752 -0.83926,-1.468702 -0.56223,-1.2713217 -0.82364,-2.6995427 -1.41605,-3.9851527 -0.2831,-0.614892 -0.76067,-1.237192 -1.15331,-1.782763 -0.43524,-0.605631 -0.92181,-1.052248 -1.25889,-1.783821 -0.11986,-0.26035 -0.28205,-0.677068 -0.10531,-0.943504 0.0569,-0.180975 0.13653,-0.256381 0.31512,-0.315118 0.30374,-0.234686 1.15147,0.07858 1.46765,0.209814 0.84137,0.34925 1.54305,0.682096 2.2561,1.154377 0.34105,0.226219 0.68739,0.664634 1.10067,0.786606 h 0.47228 c 0.73792,0.169598 1.56474,0.05159 2.25504,0.261409 1.21947,0.370946 2.31193,0.947737 3.30412,1.574006 3.02207,1.908969 5.49433,4.6249147 7.18502,7.8671197 0.27173,0.522023 0.38973,1.019175 0.62945,1.572948 0.4826,1.116277 1.0914,2.264569 1.57189,3.357033 0.48048,1.088232 0.94773,2.188105 1.62665,3.094302 0.35666,0.476515 1.73329,0.731838 2.35956,0.996421 0.43921,0.184944 1.15861,0.378354 1.574,0.629444 0.79375,0.478631 1.56263,1.049073 2.30796,1.572948 0.37095,0.262467 1.51607,0.8382 1.57295,1.31154 z M 258.83654,6.5415283 c -0.38444,-0.0071 -0.65617,0.04128 -0.94351,0.10451 v 0.05265 h 0.0516 c 0.18388,0.376238 0.50747,0.619125 0.73474,0.943504 l 0.52388,1.101725 0.0526,-0.05159 c 0.32464,-0.229394 0.47334,-0.595312 0.47122,-1.154377 -0.13017,-0.137583 -0.14869,-0.307975 -0.26246,-0.472281 -0.1487,-0.218017 -0.43921,-0.341048 -0.62839,-0.523875 z m 0,0"
       id="path1-4-5"
       style="fill:#5d91a6;fill-opacity:1;stroke-width:0.264583" /></g></svg>
