<?xml version="1.0" encoding="UTF-8" standalone="no"?>
<!-- Created with Inkscape (http://www.inkscape.org/) -->

<svg
   width="33.866669mm"
   height="33.866665mm"
   viewBox="0 0 33.866669 33.866665"
   version="1.1"
   id="svg1"
   xml:space="preserve"
   xmlns="http://www.w3.org/2000/svg"
   xmlns:svg="http://www.w3.org/2000/svg"><defs
     id="defs1" /><g
     id="layer7-5"
     transform="translate(-167.34361,-1.5220951)"
     style="display:inline"><path
       fill="#38bdf8"
       d="m 184.21272,8.3224662 c -4.51564,0 -7.33689,2.2568948 -8.46666,6.7725388 1.6928,-2.25716 3.66897,-3.103562 5.92613,-2.539206 1.28879,0.321204 2.2098,1.255712 3.22977,2.291291 1.66,1.684603 3.5814,3.634846 7.77743,3.634846 4.51538,0 7.3369,-2.25716 8.46667,-6.773862 q -2.54,3.38746 -5.92641,2.540529 c -1.28852,-0.321469 -2.20847,-1.255713 -3.22976,-2.291292 -1.65894,-1.684602 -3.57982,-3.6348448 -7.77717,-3.6348448 m -8.46666,10.1594698 c -4.51538,0 -7.3369,2.257161 -8.46667,6.773863 q 2.53974,-3.387461 5.92614,-2.540529 c 1.28878,0.321468 2.2098,1.255712 3.22977,2.291291 1.65999,1.684602 3.5814,3.634846 7.77742,3.634846 4.51538,0 7.3369,-2.256896 8.46667,-6.772539 q -2.54,3.385872 -5.9264,2.539206 c -1.28852,-0.321204 -2.20848,-1.255713 -3.22977,-2.291292 -1.65894,-1.684602 -3.57981,-3.634846 -7.77716,-3.634846 m 0,0"
       id="path1-1-7"
       style="fill:#5d91a6;fill-opacity:1;stroke-width:0.264583" /></g></svg>
