<?xml version="1.0" encoding="UTF-8" standalone="no"?>
<!-- Created with Inkscape (http://www.inkscape.org/) -->

<svg
   width="198.18376mm"
   height="26.796986mm"
   viewBox="0 0 198.18377 26.796986"
   version="1.1"
   id="svg1"
   xmlns="http://www.w3.org/2000/svg"
   xmlns:svg="http://www.w3.org/2000/svg">
  <defs
     id="defs1" />
  <g
     id="layer1"
     transform="translate(35.294967,-30.374099)">
    <text
       xml:space="preserve"
       style="font-size:35.2778px;line-height:1.2;font-family:Inter;-inkscape-font-specification:Inter;text-align:start;letter-spacing:1.05833px;writing-mode:lr-tb;direction:ltr;text-anchor:start;fill:#ffffff;stroke:#5d8aa8;stroke-width:0.264583"
       x="1.0583333"
       y="57"
       id="text1"><tspan
         id="tspan1"
         style="font-style:normal;font-variant:normal;font-weight:600;font-stretch:normal;font-size:35.2778px;font-family:Sora;-inkscape-font-specification:'Sora, Semi-Bold';font-variant-ligatures:normal;font-variant-caps:normal;font-variant-numeric:normal;font-variant-east-asian:normal;fill:#5d8aa8;fill-opacity:1;stroke-width:0.264583"
         x="1.0583333"
         y="57">PICT'</tspan></text>
    <text
       xml:space="preserve"
       style="font-style:normal;font-variant:normal;font-weight:normal;font-stretch:normal;font-size:45.5315px;line-height:1.2;font-family:Sora;-inkscape-font-specification:Sora;text-align:start;letter-spacing:1.05072px;writing-mode:lr-tb;direction:ltr;text-anchor:start;fill:#ffffff;stroke:#5d8aa8;stroke-width:0.262682"
       x="95.388893"
       y="57.126968"
       id="text2"
       transform="scale(1.0072396,0.99281244)"><tspan
         id="tspan2"
         style="font-style:italic;font-variant:normal;font-weight:800;font-stretch:semi-expanded;font-size:40.5694px;font-family:'Playfair 144pt SemiExpanded';-inkscape-font-specification:'Playfair 144pt SemiExpanded, Ultra-Bold Italic Semi-Expanded';font-variant-ligatures:normal;font-variant-caps:normal;font-variant-numeric:normal;font-variant-east-asian:normal;fill:#ffffff;stroke:none;stroke-width:0.262682"
         x="95.388893"
         y="57.126968">elle</tspan></text>
  </g>
  <g
     id="layer5"
     transform="matrix(0.25121174,0,0,0.25121174,-129.01157,-13.072823)"
     style="display:inline;fill:#4a6278;fill-opacity:1">
    <rect
       style="display:none;fill:#4a6278;fill-opacity:1;stroke-width:0.264583"
       id="rect7"
       width="397.30441"
       height="396.30539"
       x="406.97754"
       y="0.59052879" />
    <path
       style="opacity:1;fill:#4a6278;fill-opacity:1;stroke-width:0.264583"
       d="m 547.21095,52.039059 h 15.49322 a 2.6233223,2.6233223 29.871772 0 1 2.26597,1.301505 l 11.7142,20.081467 a 4.9705711,4.9705711 91.107355 0 1 -0.1,5.173104 l -17.7468,27.887845 a 4.9022289,4.9022289 90.753709 0 0 -0.0678,5.15406 l 28.4412,47.40202 h -40.08132 a 5.1716306,5.1716306 29.438761 0 1 -4.42725,-2.49857 L 513.7195,108.53763 a 4.8049063,4.8049063 90.153544 0 1 0.0134,-4.98902 l 30.43515,-49.802976 a 3.5661365,3.5661365 150.71478 0 1 3.04292,-1.706575 z"
       id="path19"
       transform="translate(0.52916667)" />
    <path
       style="opacity:1;fill:#5d91a6;fill-opacity:1;stroke-width:0.264583"
       d="m 547.21095,52.039059 h 15.49322 a 2.6233223,2.6233223 29.871772 0 1 2.26597,1.301505 l 11.7142,20.081467 a 4.9705711,4.9705711 91.107355 0 1 -0.1,5.173104 l -17.7468,27.887845 a 4.9022289,4.9022289 90.753709 0 0 -0.0678,5.15406 l 28.4412,47.40202 h -40.08132 a 5.1716306,5.1716306 29.438761 0 1 -4.42725,-2.49857 L 513.7195,108.53763 a 4.8049063,4.8049063 90.153544 0 1 0.0134,-4.98902 l 30.43515,-49.802976 a 3.5661365,3.5661365 150.71478 0 1 3.04292,-1.706575 z"
       id="path19-4"
       transform="rotate(180,579.18179,105.64112)" />
  </g>
</svg>
