<?xml version="1.0" encoding="UTF-8" standalone="no"?>
<!-- Created with Inkscape (http://www.inkscape.org/) -->

<svg
   width="33.866669mm"
   height="33.866665mm"
   viewBox="0 0 33.866669 33.866665"
   version="1.1"
   id="svg1"
   xml:space="preserve"
   xmlns="http://www.w3.org/2000/svg"
   xmlns:svg="http://www.w3.org/2000/svg"><defs
     id="defs1"><filter
       id="b-1-0"
       width="144.744"
       height="113.408"
       x="-8.4110003"
       y="22.594"
       color-interpolation-filters="sRGB"
       filterUnits="userSpaceOnUse"><feFlood
         flood-opacity="0"
         result="BackgroundImageFix"
         id="feFlood5-9-8" /><feColorMatrix
         in="SourceAlpha"
         result="hardAlpha"
         values="0 0 0 0 0 0 0 0 0 0 0 0 0 0 0 0 0 0 127 0"
         id="feColorMatrix5-69-9" /><feOffset
         id="feOffset5-8-1" /><feGaussianBlur
         stdDeviation="4.167"
         id="feGaussianBlur5-2-3" /><feColorMatrix
         values="0 0 0 0 0 0 0 0 0 0 0 0 0 0 0 0 0 0 0.25 0"
         id="feColorMatrix6-5-4" /><feBlend
         in2="BackgroundImageFix"
         mode="overlay"
         result="effect1_dropShadow_1_36"
         id="feBlend6-5-7" /><feBlend
         in="SourceGraphic"
         in2="effect1_dropShadow_1_36"
         result="shape"
         id="feBlend7-4-4"
         mode="normal" /></filter><filter
       id="c-91-6"
       width="56.667"
       height="144.007"
       x="79.667"
       y="-8.0039997"
       color-interpolation-filters="sRGB"
       filterUnits="userSpaceOnUse"><feFlood
         flood-opacity="0"
         result="BackgroundImageFix"
         id="feFlood7-2-3" /><feColorMatrix
         in="SourceAlpha"
         result="hardAlpha"
         values="0 0 0 0 0 0 0 0 0 0 0 0 0 0 0 0 0 0 127 0"
         id="feColorMatrix7-5-6" /><feOffset
         id="feOffset7-0-5" /><feGaussianBlur
         stdDeviation="4.167"
         id="feGaussianBlur7-8-2" /><feColorMatrix
         values="0 0 0 0 0 0 0 0 0 0 0 0 0 0 0 0 0 0 0.25 0"
         id="feColorMatrix8-3-8" /><feBlend
         in2="BackgroundImageFix"
         mode="overlay"
         result="effect1_dropShadow_1_36"
         id="feBlend8-9-1" /><feBlend
         in="SourceGraphic"
         in2="effect1_dropShadow_1_36"
         result="shape"
         id="feBlend9-3-0"
         mode="normal" /></filter></defs><g
     id="layer22"
     transform="translate(-518.04665,-50.002545)"><g
       id="layer15-2"
       transform="translate(-4.4274233,44.129656)"><g
         mask="url(#a-52)"
         id="g5-2"
         transform="matrix(0.26458333,0,0,0.26458333,522.60193,5.7272395)"
         style="fill:#5d91a6;fill-opacity:1"><path
           fill="#0065a9"
           d="M 123.471,13.82 97.097,1.12 A 7.97,7.97 0 0 0 88,2.668 L 1.662,81.387 a 5.333,5.333 0 0 0 0.006,7.887 l 7.052,6.411 a 5.33,5.33 0 0 0 6.811,0.303 L 119.502,17.113 C 122.99,14.467 128,16.955 128,21.333 v -0.306 a 8,8 0 0 0 -4.529,-7.208 z"
           id="path2-6-1"
           style="fill:#5d91a6;fill-opacity:1" /><g
           filter="url(#b)"
           id="g3-7"
           style="fill:#5d91a6;fill-opacity:1;filter:url(#b-1-0)"><path
             fill="#007acc"
             d="M 123.471,114.181 97.097,126.879 A 7.97,7.97 0 0 1 88,125.333 L 1.662,46.613 A 5.333,5.333 0 0 1 1.668,38.726 L 8.72,32.315 a 5.33,5.33 0 0 1 6.811,-0.303 l 103.971,78.874 c 3.488,2.647 8.498,0.159 8.498,-4.219 v 0.306 a 8,8 0 0 1 -4.529,7.208"
             id="path3-77-4"
             style="fill:#5d91a6;fill-opacity:1" /></g><g
           filter="url(#c)"
           id="g4-2-8"
           style="fill:#5d91a6;fill-opacity:1;filter:url(#c-91-6)"><path
             fill="#1f9cf0"
             d="M 97.098,126.882 A 7.98,7.98 0 0 1 88,125.333 c 2.952,2.952 8,0.861 8,-3.314 V 5.98 C 96,1.805 90.952,-0.286 88,2.667 A 7.98,7.98 0 0 1 97.098,1.118 L 123.467,13.8 A 8,8 0 0 1 128,21.01 v 85.982 a 8,8 0 0 1 -4.533,7.21 z"
             id="path4-29-2"
             style="fill:#5d91a6;fill-opacity:1" /></g><path
           fill="url(#d)"
           fill-rule="evenodd"
           d="m 90.69,127.126 a 7.97,7.97 0 0 0 6.349,-0.244 l 26.353,-12.681 a 8,8 0 0 0 4.53,-7.21 V 21.009 a 8,8 0 0 0 -4.53,-7.21 L 97.039,1.12 A 7.97,7.97 0 0 0 87.946,2.668 L 37.496,48.694 15.522,32.014 A 5.33,5.33 0 0 0 8.715,32.316 L 1.667,38.727 A 5.336,5.336 0 0 0 1.661,46.615 L 20.718,64 1.662,81.386 a 5.335,5.335 0 0 0 0.006,7.888 l 7.048,6.411 a 5.33,5.33 0 0 0 6.807,0.303 l 21.975,-16.681 50.45,46.026 a 8,8 0 0 0 2.742,1.793 M 95.942,34.942 57.662,64 95.942,93.057 Z"
           clip-rule="evenodd"
           opacity="0.25"
           style="mix-blend-mode:overlay;fill:#5d91a6;fill-opacity:1"
           id="path5-4-3" /></g></g></g></svg>
