<?xml version="1.0" encoding="UTF-8" standalone="no"?>
<!-- Created with Inkscape (http://www.inkscape.org/) -->

<svg
   width="33.866669mm"
   height="33.866665mm"
   viewBox="0 0 33.866669 33.866665"
   version="1.1"
   id="svg1"
   xml:space="preserve"
   xmlns="http://www.w3.org/2000/svg"
   xmlns:svg="http://www.w3.org/2000/svg"><defs
     id="defs1" /><g
     id="layer11-2"
     transform="translate(-341.29976,-3.8443868)"><path
       fill="#494949"
       fill-rule="evenodd"
       d="m 358.5397,37.155711 c 9.0686,-0.01376 16.40973,-7.390607 16.40973,-16.490157 0,-8.951648 -7.30726,-16.3239999 -16.03719,-16.4798389 -9.16834,-0.163513 -16.82962,7.2760429 -16.832,16.2975409 -0.003,9.281319 7.30568,16.685684 16.45946,16.672455 M 358.513,4.9839621 c 8.70665,-0.0029 15.64376,7.0709919 15.64111,15.9490859 -0.003,8.381736 -7.12391,15.393458 -15.63476,15.395311 -8.67066,0.0019 -15.64349,-7.028128 -15.64322,-15.771284 5.3e-4,-8.517732 7.08183,-15.5702019 15.63687,-15.5731129 m -6.57119,8.2724649 c 0.14235,0.474398 -0.25612,0.639498 -0.67971,0.672571 -0.44583,0.0344 -0.89139,0.068 -1.40891,0.107421 1.70815,5.088996 3.39063,10.102585 5.11307,15.232856 0.12277,-0.200819 0.1733,-0.257439 0.19553,-0.323585 0.94562,-2.826279 1.89653,-5.650706 2.81808,-8.484923 0.0841,-0.258498 0.0423,-0.600869 -0.0497,-0.866511 -0.48763,-1.407583 -1.07183,-2.784475 -1.4994,-4.208991 -0.29236,-0.975254 -0.68024,-1.606286 -1.83303,-1.493309 -0.19632,0.01931 -0.43603,-0.403225 -0.6559,-0.621506 0.2659,-0.15875 0.52996,-0.45085 0.79825,-0.454819 a 224.89583,224.89583 0 0 1 7.04267,0.0021 c 0.26935,0.0045 0.5334,0.304271 0.79931,0.466989 -0.23283,0.212725 -0.43365,0.531813 -0.70591,0.614099 -0.43682,0.131762 -0.92128,0.106891 -1.44409,0.153458 l 5.11942,15.229417 c 0.77549,-2.575984 1.49701,-4.941359 2.19869,-7.312819 0.626,-2.116931 0.25294,-4.093898 -0.87895,-5.958417 -0.34025,-0.560655 -0.7583,-1.104638 -0.95118,-1.71609 -0.21907,-0.69559 -0.40111,-1.487488 -0.28495,-2.185195 0.19711,-1.182423 1.10437,-1.769534 2.33203,-1.881982 -6.7183,-6.2351709 -17.2757,-4.0031459 -21.16587,2.771512 1.49754,-0.06906 2.92735,-0.159809 4.35822,-0.179388 0.2704,-0.0034 0.71887,0.225161 0.78237,0.437092 m 2.67679,20.629827 c -0.0312,0.09128 -0.0331,0.192882 -0.0577,0.344488 2.89533,0.802746 5.73484,0.744802 8.64103,-0.234421 l -4.43975,-12.16025 c -1.42081,4.13041 -2.78342,8.089635 -4.14364,12.050183 m -2.23732,-0.549804 -6.68893,-18.348854 c -3.01757,5.894388 -0.72205,14.887575 6.68893,18.348854 m 20.22158,-11.790362 c 0.21219,-2.787121 -0.7493,-6.646069 -1.57956,-7.176823 -0.0926,1.02526 -0.0281,2.165879 -0.32227,3.205162 -0.69241,2.448719 -1.53908,4.85484 -2.35452,7.267575 -0.88636,2.62255 -1.80764,5.233194 -2.71384,7.849129 4.25768,-2.52386 6.59739,-6.248929 6.97019,-11.145043"
       clip-rule="evenodd"
       id="path1-2-3"
       style="fill:#5d91a6;fill-opacity:1;stroke-width:0.264583" /></g></svg>
