<svg width="587" height="129" viewBox="0 0 587 129" fill="none" xmlns="http://www.w3.org/2000/svg">
<path fill-rule="evenodd" clip-rule="evenodd" d="M216.999 5.10156C183.652 5.10156 156.611 32.1366 156.611 65.4896C156.611 92.1716 173.914 114.807 197.908 122.793C200.925 123.353 202.033 121.483 202.033 119.888C202.033 118.448 201.977 113.691 201.951 108.645C185.151 112.298 181.606 101.52 181.606 101.52C178.859 94.5396 174.901 92.6836 174.901 92.6836C169.421 88.9356 175.314 89.0136 175.314 89.0136C181.377 89.4386 184.571 95.2366 184.571 95.2366C189.957 104.467 198.698 101.799 202.144 100.257C202.686 96.3536 204.251 93.6886 205.978 92.1806C192.565 90.6556 178.464 85.4766 178.464 62.3376C178.464 55.7446 180.824 50.3576 184.687 46.1276C184.059 44.6076 181.992 38.4656 185.271 30.1476C185.271 30.1476 190.341 28.5246 201.881 36.3376C206.699 34.9986 211.866 34.3256 216.999 34.3026C222.129 34.3256 227.299 34.9966 232.126 36.3356C243.652 28.5226 248.716 30.1456 248.716 30.1456C252.003 38.4626 249.936 44.6056 249.309 46.1256C253.181 50.3556 255.524 55.7426 255.524 62.3356C255.524 85.5296 241.397 90.6356 227.95 92.1316C230.117 94.0056 232.047 97.6816 232.047 103.315C232.047 111.395 231.977 117.898 231.977 119.887C231.977 121.494 233.065 123.377 236.125 122.784C260.105 114.79 277.388 92.1616 277.388 65.4896C277.387 32.1386 250.349 5.10156 216.999 5.10156Z" fill="#5D91A6"/>
<path d="M179.484 91.8035C179.351 92.1035 178.879 92.1935 178.449 91.9885C178.009 91.7925 177.764 91.3835 177.906 91.0825C178.036 90.7725 178.509 90.6875 178.946 90.8945C179.386 91.0915 179.636 91.5045 179.483 91.8045L179.484 91.8035ZM181.93 94.5325C181.643 94.7995 181.08 94.6755 180.698 94.2525C180.302 93.8325 180.228 93.2695 180.521 92.9985C180.819 92.7325 181.365 92.8585 181.761 93.2785C182.155 93.7045 182.233 94.2625 181.931 94.5335L181.93 94.5325ZM184.312 98.0095C183.942 98.2675 183.336 98.0265 182.962 97.4895C182.592 96.9515 182.592 96.3065 182.972 96.0495C183.345 95.7915 183.942 96.0245 184.322 96.5565C184.69 97.1015 184.69 97.7475 184.312 98.0095ZM187.573 101.37C187.243 101.735 186.537 101.637 186.021 101.14C185.494 100.653 185.347 99.9605 185.678 99.5965C186.014 99.2305 186.723 99.3325 187.242 99.8265C187.769 100.312 187.928 101.006 187.575 101.369L187.573 101.37ZM192.073 103.321C191.926 103.794 191.248 104.009 190.563 103.807C189.88 103.6 189.433 103.047 189.573 102.569C189.713 102.092 190.396 101.869 191.085 102.084C191.768 102.29 192.215 102.84 192.073 103.321ZM197.016 103.682C197.033 104.18 196.453 104.592 195.736 104.602C195.013 104.619 194.428 104.215 194.421 103.725C194.421 103.222 194.989 102.815 195.711 102.801C196.428 102.788 197.017 103.188 197.017 103.681L197.016 103.682ZM201.614 102.9C201.7 103.385 201.201 103.884 200.488 104.017C199.788 104.147 199.138 103.845 199.048 103.364C198.962 102.866 199.47 102.367 200.17 102.238C200.884 102.115 201.524 102.407 201.614 102.9Z" fill="#5D91A6"/>
<g clip-path="url(#clip0_112_4988)">
<path d="M124.737 58.3773L69.621 3.26331C66.449 0.0893126 61.301 0.0893126 58.124 3.26331L46.68 14.7093L61.198 29.2273C64.573 28.0883 68.441 28.8523 71.13 31.5413C73.833 34.2473 74.591 38.1483 73.424 41.5343L87.416 55.5273C90.801 54.3603 94.708 55.1143 97.41 57.8223C101.19 61.5993 101.19 67.7223 97.41 71.5013C96.5117 72.4 95.4452 73.113 94.2713 73.5994C93.0974 74.0858 91.8392 74.3361 90.5685 74.3361C89.2978 74.3361 88.0396 74.0858 86.8657 73.5994C85.6919 73.113 84.6253 72.4 83.727 71.5013C82.3774 70.1509 81.4574 68.4314 81.0829 66.5593C80.7083 64.6871 80.8959 62.7461 81.622 60.9803L68.574 47.9323L68.572 82.2733C69.5187 82.7395 70.383 83.3569 71.131 84.1013C74.909 87.8783 74.909 93.9993 71.131 97.7843C67.352 101.561 61.227 101.561 57.452 97.7843C53.674 94.0003 53.674 87.8793 57.452 84.1013C58.3572 83.1947 59.4338 82.4775 60.619 81.9913V47.3323C59.4328 46.8475 58.3559 46.1297 57.452 45.2213C54.59 42.3613 53.901 38.1613 55.369 34.6453L41.056 20.3323L3.26401 58.1223C1.73933 59.6475 0.882812 61.7157 0.882812 63.8723C0.882813 66.0289 1.73933 68.0972 3.26401 69.6223L58.381 124.736C61.555 127.91 66.701 127.91 69.88 124.736L124.738 69.8783C126.262 68.3527 127.119 66.2843 127.118 64.1276C127.118 61.971 126.262 59.9026 124.737 58.3773Z" fill="#5D91A6"/>
</g>
<g clip-path="url(#clip1_112_4988)">
<path d="M504.5 130C516.4 130 526 120.4 526 108.5V87H504.5C492.6 87 483 96.6 483 108.5C483 120.4 492.6 130 504.5 130Z" fill="#84B2C4"/>
<path d="M483 65.5C483 53.6 492.6 44 504.5 44H526V87H504.5C492.6 87 483 77.4 483 65.5Z" fill="#439BBE"/>
<path d="M483 22.5C483 10.6 492.6 1 504.5 1H526V44H504.5C492.6 44 483 34.4 483 22.5Z" fill="#AACFDE"/>
<path d="M526 1H547.5C559.4 1 569 10.6 569 22.5C569 34.4 559.4 44 547.5 44H526V1Z" fill="#5D91A6"/>
<path d="M569 65.5C569 77.4 559.4 87 547.5 87C535.6 87 526 77.4 526 65.5C526 53.6 535.6 44 547.5 44C559.4 44 569 53.6 569 65.5Z" fill="#99C8DA"/>
</g>
<g clip-path="url(#clip2_112_4988)">
<mask id="mask0_112_4988" style="mask-type:alpha" maskUnits="userSpaceOnUse" x="306" y="1" width="128" height="128">
<path fill-rule="evenodd" clip-rule="evenodd" d="M396.767 128.126C397.786 128.523 398.875 128.707 399.968 128.665C401.06 128.623 402.132 128.356 403.117 127.882L429.47 115.201C430.828 114.548 431.973 113.525 432.774 112.249C433.575 110.974 434 109.498 434 107.992V22.0091C434.001 20.5028 433.576 19.0269 432.774 17.7514C431.973 16.4759 430.828 15.4525 429.47 14.7991L403.117 2.12014C401.628 1.40365 399.953 1.16774 398.324 1.44508C396.695 1.72242 395.193 2.49928 394.024 3.66814L343.574 49.6941L321.6 33.0131C320.609 32.2605 319.386 31.8786 318.142 31.9338C316.899 31.989 315.714 32.4777 314.793 33.3151L307.745 39.7261C307.196 40.2257 306.757 40.8344 306.457 41.5133C306.156 42.1922 306.001 42.9264 306 43.6688C305.999 44.4113 306.154 45.1457 306.453 45.825C306.753 46.5044 307.191 47.1137 307.739 47.6141L326.796 65.0001L307.74 82.3871C307.192 82.8876 306.754 83.4969 306.455 84.1762C306.156 84.8555 306.001 85.5897 306.002 86.332C306.003 87.0743 306.158 87.8082 306.458 88.487C306.759 89.1658 307.197 89.7745 307.746 90.2741L314.794 96.6851C315.715 97.5229 316.9 98.0119 318.143 98.0673C319.387 98.1226 320.61 97.7408 321.601 96.9881L343.575 80.3081L394.025 126.333C394.805 127.115 395.739 127.725 396.767 128.126ZM402.019 35.9431L363.74 65.0001L402.02 94.0581L402.019 35.9431Z" fill="white"/>
</mask>
<g mask="url(#mask0_112_4988)">
<path d="M429.471 14.8208L403.097 2.12082C401.607 1.40385 399.931 1.16769 398.301 1.44503C396.672 1.72236 395.168 2.49948 394 3.66882L307.662 82.3878C307.113 82.888 306.675 83.4973 306.375 84.1766C306.076 84.8559 305.921 85.5902 305.922 86.3326C305.922 87.0751 306.078 87.8092 306.379 88.488C306.679 89.1668 307.118 89.7754 307.668 90.2748L314.72 96.6858C315.641 97.5236 316.826 98.0125 318.07 98.0678C319.314 98.1232 320.539 97.7414 321.531 96.9888L425.502 18.1138C428.99 15.4678 434 17.9558 434 22.3338V22.0278C434 20.5219 433.575 19.0466 432.773 17.7715C431.972 16.4964 430.827 15.4743 429.471 14.8208Z" fill="#215164"/>
<g filter="url(#filter0_d_112_4988)">
<path d="M429.471 115.183L403.097 127.881C401.607 128.598 399.932 128.835 398.302 128.558C396.672 128.281 395.169 127.504 394 126.335L307.662 47.615C307.113 47.1147 306.675 46.5055 306.375 45.8262C306.076 45.1469 305.921 44.4126 305.922 43.6701C305.922 42.9277 306.078 42.1936 306.379 41.5148C306.679 40.8359 307.118 40.2273 307.668 39.728L314.72 33.317C315.641 32.4792 316.826 31.9903 318.07 31.935C319.314 31.8796 320.539 32.2613 321.531 33.014L425.502 111.888C428.99 114.535 434 112.047 434 107.669V107.975C434 109.481 433.575 110.956 432.773 112.231C431.972 113.506 430.827 114.529 429.471 115.183Z" fill="#306980"/>
</g>
<g filter="url(#filter1_d_112_4988)">
<path d="M403.098 127.884C401.608 128.6 399.932 128.836 398.302 128.559C396.672 128.281 395.169 127.504 394 126.335C396.952 129.287 402 127.196 402 123.021V6.98198C402 2.80698 396.952 0.715981 394 3.66898C395.169 2.49978 396.672 1.7227 398.302 1.4452C399.932 1.1677 401.608 1.4035 403.098 2.11998L429.467 14.802C430.825 15.4549 431.971 16.4781 432.773 17.7536C433.575 19.0292 434 20.5053 434 22.012V107.994C434 109.501 433.575 110.977 432.773 112.252C431.971 113.528 430.825 114.551 429.467 115.204L403.098 127.884Z" fill="#5D91A6"/>
</g>
<path opacity="0.25" fill-rule="evenodd" clip-rule="evenodd" d="M396.69 128.126C397.708 128.523 398.797 128.706 399.89 128.664C400.982 128.622 402.054 128.356 403.039 127.882L429.392 115.201C430.749 114.548 431.894 113.524 432.696 112.249C433.497 110.973 433.922 109.498 433.922 107.991V22.0091C433.922 20.5028 433.497 19.0269 432.696 17.7514C431.894 16.4759 430.749 15.4525 429.392 14.7991L403.039 2.12014C401.55 1.40365 399.875 1.16774 398.246 1.44508C396.616 1.72242 395.114 2.49928 393.946 3.66814L343.496 49.6941L321.522 33.0141C320.53 32.2615 319.307 31.8796 318.064 31.9348C316.82 31.99 315.635 32.4787 314.715 33.3161L307.667 39.7271C307.118 40.2268 306.679 40.8355 306.378 41.5144C306.078 42.1933 305.922 42.9274 305.922 43.6698C305.921 44.4122 306.076 45.1466 306.375 45.8259C306.675 46.5053 307.112 47.1147 307.661 47.6151L326.718 65.0001L307.662 82.3861C307.113 82.8865 306.675 83.4959 306.376 84.1753C306.076 84.8546 305.922 85.589 305.922 86.3315C305.923 87.0739 306.078 87.8081 306.379 88.487C306.68 89.1659 307.118 89.7746 307.668 90.2741L314.716 96.6851C315.636 97.5227 316.821 98.0116 318.064 98.067C319.308 98.1223 320.531 97.7406 321.523 96.9881L343.498 80.3071L393.948 126.333C394.728 127.114 395.661 127.725 396.69 128.126ZM401.942 35.9421L363.662 65.0001L401.942 94.0571V35.9421Z" fill="url(#paint0_linear_112_4988)" style="mix-blend-mode:overlay"/>
</g>
</g>
<defs>
<filter id="filter0_d_112_4988" x="297.589" y="23.5963" width="144.745" height="113.409" filterUnits="userSpaceOnUse" color-interpolation-filters="sRGB">
<feFlood flood-opacity="0" result="BackgroundImageFix"/>
<feColorMatrix in="SourceAlpha" type="matrix" values="0 0 0 0 0 0 0 0 0 0 0 0 0 0 0 0 0 0 127 0" result="hardAlpha"/>
<feOffset/>
<feGaussianBlur stdDeviation="4.16667"/>
<feColorMatrix type="matrix" values="0 0 0 0 0 0 0 0 0 0 0 0 0 0 0 0 0 0 0.25 0"/>
<feBlend mode="overlay" in2="BackgroundImageFix" result="effect1_dropShadow_112_4988"/>
<feBlend mode="normal" in="SourceGraphic" in2="effect1_dropShadow_112_4988" result="shape"/>
</filter>
<filter id="filter1_d_112_4988" x="385.667" y="-7.00131" width="56.6667" height="144.007" filterUnits="userSpaceOnUse" color-interpolation-filters="sRGB">
<feFlood flood-opacity="0" result="BackgroundImageFix"/>
<feColorMatrix in="SourceAlpha" type="matrix" values="0 0 0 0 0 0 0 0 0 0 0 0 0 0 0 0 0 0 127 0" result="hardAlpha"/>
<feOffset/>
<feGaussianBlur stdDeviation="4.16667"/>
<feColorMatrix type="matrix" values="0 0 0 0 0 0 0 0 0 0 0 0 0 0 0 0 0 0 0.25 0"/>
<feBlend mode="overlay" in2="BackgroundImageFix" result="effect1_dropShadow_112_4988"/>
<feBlend mode="normal" in="SourceGraphic" in2="effect1_dropShadow_112_4988" result="shape"/>
</filter>
<linearGradient id="paint0_linear_112_4988" x1="369.922" y1="1.33004" x2="369.922" y2="128.67" gradientUnits="userSpaceOnUse">
<stop stop-color="white"/>
<stop offset="1" stop-color="white" stop-opacity="0"/>
</linearGradient>
<clipPath id="clip0_112_4988">
<rect width="128" height="128" fill="white"/>
</clipPath>
<clipPath id="clip1_112_4988">
<rect width="128" height="128" fill="white" transform="translate(459 1)"/>
</clipPath>
<clipPath id="clip2_112_4988">
<rect width="128" height="128" fill="white" transform="translate(306 1)"/>
</clipPath>
</defs>
</svg>
